<svg xmlns="http://www.w3.org/2000/svg" width="20.938" height="30" viewBox="0 0 20.938 30">
  <defs>
    <style>
      .cls-1 {
        fill: #00cfb4;
        fill-rule: evenodd;
      }
    </style>
  </defs>
  <path id="annual-report-ico.svg" class="cls-1" d="M532.018,759a2.065,2.065,0,0,1-1.987-2.132V731.127A2.065,2.065,0,0,1,532.018,729H542.48a0.553,0.553,0,0,1,.39.188l6.152,6.48a0.7,0.7,0,0,1,.175.386v2.05a2.1,2.1,0,0,1,1.783,2.118v10.749a2.1,2.1,0,0,1-1.783,2.118v3.784A2.066,2.066,0,0,1,547.209,759H532.018Zm0-28.781a0.878,0.878,0,0,0-.858.9v25.759a0.885,0.885,0,0,0,.84.925h15.209a0.878,0.878,0,0,0,.845-0.907v-3.8H536.882a2.066,2.066,0,0,1-2-2.13v-3.281a2.428,2.428,0,0,1,0-4.815v-2.657a2.067,2.067,0,0,1,2-2.131h11.172v-1.391H543.89a2.062,2.062,0,0,1-1.977-2.13v-4.34h-9.895Zm4.021,20.751a0.88,0.88,0,0,0,.828.925H548.98a0.888,0.888,0,0,0,.869-0.907V740.217a0.889,0.889,0,0,0-.849-0.926H536.884a0.878,0.878,0,0,0-.846.908v2.669h3.518a2.425,2.425,0,0,1,0,4.842h-2.235a1.432,1.432,0,0,1-1.276-.83v4.087Zm1.306-5.062a0.29,0.29,0,0,0-.328.245v0a0.3,0.3,0,0,0,.242.338,0.281,0.281,0,0,0,.058,0h2.24a1.2,1.2,0,0,0,0-2.4h-3.516v1.431a1.43,1.43,0,0,1,1.133-.816l0.048-.007,0.091-.007h2a0.6,0.6,0,0,1,0,1.2h-1.925Zm-2.451-1.814a1.216,1.216,0,0,0,0,2.383v-2.383Zm8.153-9.532a0.87,0.87,0,0,0,.824.912h3.372l-4.2-4.406v3.494Zm0.936,15.542a0.6,0.6,0,0,1-.559-0.406,0.635,0.635,0,0,1,.356-0.773,0.46,0.46,0,0,1,.177-0.057l0.1,0.007a0.891,0.891,0,0,1,.146-0.014h2l2.069,0.026a0.608,0.608,0,0,1,.4,1.026,0.547,0.547,0,0,1-.392.18c-0.042,0-1.058-.014-2.086-0.014-0.274-.007-0.531-0.01-0.776-0.01s-0.475,0-.679.01c-0.078,0-.368-0.006-0.368-0.006h-0.114a0.92,0.92,0,0,0-.105,0,0.526,0.526,0,0,1-.157.035h0Zm-0.009-2.59a0.6,0.6,0,0,1-.551-0.412,0.636,0.636,0,0,1,.356-0.772,0.547,0.547,0,0,1,.211-0.049l0.045-.007h0.17c0.113-.012.288-0.012,0.5-0.012h0.4c0.336,0,.716.009,1.1,0.018,1.048,0,2.064.014,2.064,0.014a0.616,0.616,0,0,1,.564.615,0.606,0.606,0,0,1-.579.6l-2.071-.027c-0.282,0-.562,0-0.824-0.007H544.72c-0.106,0-.207,0-0.3.008a1.652,1.652,0,0,1-.2,0,0.269,0.269,0,0,0-.057.006l-0.058.006a0.479,0.479,0,0,1-.135.029h0Zm0.745-2.615c-0.068,0-.364.006-0.364,0.006a1.2,1.2,0,0,1-.169-0.007h-0.027a0.77,0.77,0,0,1-.144-0.011h-0.037a0.546,0.546,0,0,1-.2-0.046,0.614,0.614,0,0,1-.38-0.621,0.6,0.6,0,0,1,.466-0.554l0.056-.01h0.045a0.478,0.478,0,0,1,.167.03h0.026a0.36,0.36,0,0,0,.066.006h1.956l2.064-.027a0.608,0.608,0,0,1,.582.6,0.6,0.6,0,0,1-.568.6h0c-0.317.02-1.852,0.03-2.065,0.03h-0.529Zm0-2.582c-0.217-.012-0.386-0.013-0.519-0.013l-0.076-.01h-0.132a0.518,0.518,0,0,1-.227-0.069,0.6,0.6,0,0,1-.311-0.615,0.571,0.571,0,0,1,.405-0.537l0.14-.011,0.062,0.007,0.058,0.017h0.109c0.133,0.013.289,0.013,0.466,0.013h1.491l2.065-.027a0.61,0.61,0,0,1,.014,1.219l-2.067.026h-1.478Z" transform="translate(-530.031 -729)"/>
</svg>
