<svg xmlns="http://www.w3.org/2000/svg" width="102.906" height="124.97" viewBox="0 0 102.906 124.97">
  <defs>
    <style>
      .cls-1 {
        fill: #26d07c;
        fill-rule: evenodd;
      }
    </style>
  </defs>
  <path id="automotive.svg" class="cls-1" d="M783.979,1947.81l-2,1.21a14.939,14.939,0,0,0-6.21-2.71l-0.5-2.11h-0.9a0.983,0.983,0,0,1-1,.71,0.958,0.958,0,0,1-.9-0.71h-0.9l-0.5,2.01a14.7,14.7,0,0,0-6.511,2.61l-1.7-1.01-0.7.7a0.985,0.985,0,0,1-1.3,1.31l-0.6.6,1,1.7a14.745,14.745,0,0,0-2.6,6.52l-2,.5v0.9a1,1,0,0,1,.7,1,0.959,0.959,0,0,1-.7.91v0.9l2.1,0.5a15,15,0,0,0,2.7,6.22l-1.2,2.01,0.6,0.6a0.9,0.9,0,0,1,1.1.2,0.933,0.933,0,0,1,.2,1.1l0.6,0.6,2.1-1.2a14.82,14.82,0,0,0,6.009,2.31l0.7,2.5h0.9a0.993,0.993,0,0,1,1-.7,1.189,1.189,0,0,1,1,.7h0.9l0.7-2.6a15.873,15.873,0,0,0,5.709-2.41l2.4,1.4,0.6-.6a0.982,0.982,0,0,1,1.3-1.3l0.6-.6-1.4-2.41a15.174,15.174,0,0,0,2.4-5.72l2.6-.7v-0.9a1,1,0,0,1-.7-1.01,1.223,1.223,0,0,1,.7-1v-0.9l-2.6-.4a14.374,14.374,0,0,0-2.3-5.92l1.2-2.1-0.6-.6a0.914,0.914,0,0,1-1.1-.2,1.127,1.127,0,0,1-.3-1.31Zm-1.5,22.37a13.237,13.237,0,1,1-.154-18.81l0.154,0.15a13.278,13.278,0,0,1,0,18.66h0Zm-15.224-15.35,0.4,0.4a7.883,7.883,0,0,1,4.408-2.21v-2.2h2.3v2.2a8.252,8.252,0,0,1,4.106,2.11l0.5-.5-0.4-.3,1.8-1.81a10.957,10.957,0,0,0-14.222-.2l1.8,1.81Zm12.82,1-1.1-1.1-0.5.5a7.428,7.428,0,0,1,2.2,4.71h2.1v2.31h-2.2a7.717,7.717,0,0,1-2.1,3.82l0.5,0.5,0.7-.7,2,2a11.3,11.3,0,0,0,.2-13.84Zm-9.114,2.71a3.12,3.12,0,1,0,4.408.01l0-.01a3.149,3.149,0,0,0-4.408,0h0Zm4,3.91a3.85,3.85,0,0,0-1.1-2.61,3.633,3.633,0,0,0-2.2-1.1,2.529,2.529,0,0,1,3.3,3.71h0Zm3.907,4.12-0.5-.5a7.555,7.555,0,0,1-3.906,2.1v2.31h-2.3v-2.21a7.743,7.743,0,0,1-4.607-2.2l-0.041.05a7.868,7.868,0,0,1-2.062-3.96h-2.4v-2.32h2.3a9.067,9.067,0,0,1,2.2-4.61l-0.4-.4-0.7.7-1.8-1.7a11.18,11.18,0,0,0,0,14.04l1.8-1.8,0.6,0.6,0.1-.1,0.9,0.9-1.8,1.8a11.139,11.139,0,0,0,14.02,0l-2-2Zm-31.148-32.29,1.5,1.6,0.2-1.3-1.5-1.5Zm-2.1-2.1,1.6,1.6,0.2-1.2-1.6-1.71Zm-0.3-1.71-1.7-1.8-0.2,1.3,1.7,1.7Zm4.407,5.82,1.7,1.7,0.2-1.3-1.7-1.61Zm7.912,7.91,0.2-1.2-1.5-1.5-0.2,1.2Zm-5.809-5.81,1.7,1.7,0.2-1.2-1.7-1.7Zm4.007,2.61-1.6-1.71-0.2,1.31,1.6,1.6Zm3.905,5.41,0.2-1.3-1.6-1.61-0.2,1.21Zm-26.941-26.96,1.7,1.6,0.2-1.2-1.7-1.71Zm8.413,8.32,1.7,1.7,0.2-1.2-1.7-1.71Zm-6.21-6.22,1.6,1.6,0.2-1.2-1.6-1.7Zm6.01,4.51-1.6-1.5-0.2,1.2,1.6,1.6Zm-3.906-2.4,1.6,1.6,0.2-1.2-1.6-1.61Zm-5.909-20.15a5.414,5.414,0,0,0-1.2-.2,12.706,12.706,0,0,0-1.3,1.9c0.4,0,.8-0.1,1.2-0.1a20.2,20.2,0,0,1,1.294-1.6h0.006Zm2.3-1.71a11.209,11.209,0,0,0-1.1-.5,8.648,8.648,0,0,0-1.9,1.51c0.5,0.1.9,0.1,1.2,0.2a5.693,5.693,0,0,1,1.8-1.21h0Zm2.9-.7-0.9-.9a7.58,7.58,0,0,0-2.4.8,11.354,11.354,0,0,1,1.1.6,5.408,5.408,0,0,1,2.2-.5h0Zm-6.811,4.61a5.406,5.406,0,0,0-1.2.2,8.973,8.973,0,0,0-.7,2.31,3.983,3.983,0,0,1,1.1-.5,12.363,12.363,0,0,1,.8-2.01h0Zm1,9.93a8.1,8.1,0,0,1-1.2-1.81c-0.185.36-.351,0.73-0.5,1.1a12.62,12.62,0,0,0,1.4,1.91q0.149-.6.3-1.2h0Zm-2-5.12a5.488,5.488,0,0,1,.2-2.2c-0.4.2-.7,0.4-1.1,0.6a9.718,9.718,0,0,0,0,2.41,8.137,8.137,0,0,1,.9-0.81h0Zm-0.8,1.61a9.01,9.01,0,0,0,.8,2.3,11.267,11.267,0,0,1,.6-1.1,8.29,8.29,0,0,1-.6-2.1,2.436,2.436,0,0,0-.806.9H727.8Zm3,5.21,1.6,1.6,0.2-1.2-1.6-1.6c-0.106.4-.106,0.8-0.206,1.2H730.8Zm17.727-10.52-1.7-1.61-0.2,1.2,1.7,1.61Zm-9.314-5.62c-0.2-.4-0.4-0.7-0.6-1.1a9.67,9.67,0,0,0-2.4,0,6.452,6.452,0,0,1,.8.9,7.743,7.743,0,0,1,2.2.2h0.006Zm7.111,3.51-1.6-1.6-0.2,1.2,1.6,1.6Zm-4.607-2.61a5,5,0,0,0-.2-1.2,8.106,8.106,0,0,0-2.2-.7,3.744,3.744,0,0,1,.5,1.1,5.475,5.475,0,0,1,1.9.8h0Zm1.5,1.01a4.839,4.839,0,0,1,.8.7,5,5,0,0,0,.2-1.2,13.645,13.645,0,0,0-2-1.41,4.958,4.958,0,0,1,.1,1.21,5.631,5.631,0,0,1,.9.7h0Zm17.828,16.34-1.5-1.61-0.2,1.3,1.5,1.51Zm2.2,2.1-1.7-1.6-0.2,1.2,1.7,1.6Zm2.2,2.21-1.8-1.71-0.2,1.2,1.8,1.71Zm-6.41-6.32-1.6-1.7-0.2,1.2,1.6,1.7Zm-6.409-6.41-1.5-1.61-0.2,1.31,1.6,1.5Zm4.306,4.21-1.7-1.61-0.2,1.2,1.7,1.71Zm-2.1-2.11-1.7-1.6-0.2,1.2,1.7,1.6Zm21.132,21.15-1.7-1.6-0.2,1.2,1.7,1.7Zm-8.413-8.42-1.7-1.6-0.2,1.2,1.7,1.7Zm6.31,6.32-1.7-1.61-0.2,1.2,1.7,1.61Zm-4.306-4.21-1.5-1.61-0.2,1.2,1.5,1.61Zm2.1,2.1-1.6-1.6-0.2,1.2,1.6,1.6Zm16.826,16.74a11.521,11.521,0,0,1-1.6-1.6l-0.2,1.2c0.5,0.6,1,1.1,1.5,1.6q0.154-.6.3-1.2h0Zm1.9,2.51c-0.5-.71-1-1.31-1.5-1.91q-0.15.6-.3,1.2a11.388,11.388,0,0,1,1.4,1.91c0.108-.4.308-0.8,0.409-1.2h-0.009Zm1,3.81c0.2-.41.4-0.71,0.6-1.11a9.555,9.555,0,0,0-1.2-2.2c-0.185.36-.352,0.73-0.5,1.1a15.325,15.325,0,0,1,1.11,2.21H791.38Zm-5.008-8.32-1.6-1.71-0.2,1.3,1.6,1.61Zm-6.309-6.42-1.6-1.5-0.2,1.2,1.6,1.6Zm4.206,4.31-1.6-1.7-0.2,1.2,1.6,1.7Zm-2.1-2.2-1.7-1.61-0.2,1.2,1.7,1.71Zm-4.206-4.11-1.6-1.71-0.2,1.3,1.6,1.61Zm13.92,30.88c0.4-.1.8-0.3,1.2-0.4a9.974,9.974,0,0,0,.6-2.31c-0.358.18-.725,0.35-1.1,0.5a14.177,14.177,0,0,1-.693,2.21h-0.007Zm0.3-11.44a6.438,6.438,0,0,0,.8-1,21.247,21.247,0,0,0-.8-2.21,9.487,9.487,0,0,1-.6,1.11,5.632,5.632,0,0,1,.607,2.1h-0.008Zm0.5,8.73c0.4-.2.7-0.4,1.1-0.6a19.615,19.615,0,0,0,.2-2.4,6.59,6.59,0,0,1-1,.7c-0.091.69-.191,1.39-0.291,2.29Zm0.2-5.92,0.9-.89a17.45,17.45,0,0,0-.5-2.22c-0.3.3-.5,0.61-0.8,0.9a21.194,21.194,0,0,1,.409,2.21h-0.009Zm0.1,2.92c0.3-.21.7-0.51,1-0.71a19.109,19.109,0,0,0-.1-2.4,10.208,10.208,0,0,1-1,.9,16.052,16.052,0,0,1,.11,2.2ZM780.965,1981l1.2,0.2,1.6-1.5-1.2-.2Zm-2.1,2.11,1.2,0.2,1.7-1.61-1.3-.2Zm-2.2,2.3,1.2,0.2,1.7-1.8-1.2-.2Zm6.411-6.41,1.2,0.2,1.6-1.71-1.2-.2Zm6.108-6.52h1.2c0.4-.6.8-1.2,1.2-1.9-0.4,0-.8.1-1.2,0.1a14.217,14.217,0,0,1-1.2,1.8h0Zm-4,4.41,1.2,0.2,1.6-1.7-1.2-.2Zm2.1-2.2a5.4,5.4,0,0,0,1.2.2c0.5-.6,1-1.21,1.5-1.81a5.371,5.371,0,0,1-1.2-.1c-0.493.6-.993,1.2-1.494,1.71h0Zm3.5-4.51c0.4-.1.8-0.1,1.2-0.21,0.3-.7.6-1.5,0.9-2.2l-1.2.3c-0.293.7-.594,1.4-0.894,2.11h0Zm-24.638,25.76,1.2,0.2,1.6-1.71-1.2-.2Zm8.413-8.42,1.2,0.2,1.6-1.71-1.2-.2Zm-6.31,6.21,1.2,0.2,1.7-1.6-1.3-.2Zm4.207-4.21,1.2,0.2,1.6-1.6-1.2-.2Zm-2.1,2.11,1.2,0.2,1.7-1.61-1.3-.2Zm-16.724,16.74,1.2,0.2,1.6-1.51-1.2-.2Zm-2.1,2.2,1.2,0.2,1.6-1.7-1.2-.2Zm-2.2,2.21,1.2,0.2,1.7-1.81-1.2-.2Zm6.31-6.42,1.3,0.2,1.6-1.6-1.2-.2Zm6.411-6.31,1.2,0.2,1.6-1.61-1.2-.2Zm-4.207,4.21,1.2,0.2,1.6-1.71-1.2-.2Zm2.1-2.11,1.2,0.2,1.6-1.7-1.2-.2Zm4.106-4.21,1.3,0.2,1.6-1.6-1.2-.2Zm-25.439,24.76a11.209,11.209,0,0,0,1.1.5,13.491,13.491,0,0,0,1.9-1.4,2.635,2.635,0,0,1-1.2-.3,5.7,5.7,0,0,1-1.8,1.2h0Zm8.613-7.82,1.2,0.2,1.6-1.6-1.2-.3Zm-5.508,5.41a6.123,6.123,0,0,1-.8.81c0.4,0.1.8,0.1,1.2,0.2l1.6-1.61-1.2-.2Zm3.4-3.4,1.2,0.2,1.6-1.51-1.2-.2Zm-2.1,2.1,1.2,0.2,1.6-1.6-1.2-.2Zm-19.63.2a14.657,14.657,0,0,0,1.4,1.91c0.1-.41.2-0.81,0.3-1.21l-1.2-1.8a11.146,11.146,0,0,0-.5,1.1h0Zm-0.4-3.71a7.66,7.66,0,0,0-.8.9,10.155,10.155,0,0,0,.9,2.21,10.223,10.223,0,0,1,.6-1.1,6.844,6.844,0,0,1-.7-2.01h0Zm-0.3-3a5.908,5.908,0,0,0-1,.7,10.712,10.712,0,0,0,.3,2.5,6.452,6.452,0,0,1,.8-0.9,18.548,18.548,0,0,1-.1-2.3h0Zm2.6,9.12a9.059,9.059,0,0,0,1.9,1.5v-1.2c-0.6-.5-1.2-1-1.7-1.51-0.1.41-.1,0.81-0.2,1.21h0Zm7.811,2.4a5.959,5.959,0,0,0,.7,1,8.922,8.922,0,0,0,2.3-.3l-0.9-.9a14.821,14.821,0,0,1-2.1.2h0Zm-5.308-1.8a4.829,4.829,0,0,0,.1,1.2,8.894,8.894,0,0,0,2.2,1,5.64,5.64,0,0,1-.4-1.2,5.744,5.744,0,0,1-1.9-1h0Zm2.4,1.3a5.64,5.64,0,0,0,.4,1.2,9.71,9.71,0,0,0,2.4.3c-0.2-.4-0.4-0.7-0.6-1.1a20.474,20.474,0,0,1-2.2-.4h0Zm5.709,0.3c0.3,0.3.6,0.5,0.9,0.8a10.292,10.292,0,0,0,2.2-.9,9.517,9.517,0,0,1-1-.6,17.2,17.2,0,0,1-2.1.7h0Zm-5.408-23.05-1.2-.2-1.6,1.6,1.2,0.2Zm-8.814,11.63c0.4-.21.7-0.41,1.1-0.61a9.748,9.748,0,0,1,.5-2.2,5.64,5.64,0,0,0-1.2.4,10.037,10.037,0,0,0-.4,2.41h0Zm6.711-9.53-1.2-.2-1.6,1.61,1.2,0.2Zm-4.006,4.31a4.833,4.833,0,0,0-1.2.1,18.7,18.7,0,0,0-.9,2.11l1.2-.3a11.467,11.467,0,0,1,.9-1.91h0Zm1.1-1.4,0.8-.8-1.2-.2a8.877,8.877,0,0,0-1.5,1.9h1.2c0.2-.3.5-0.6,0.7-0.9h0Zm17.531-17.54-1.2-.2-1.6,1.5,1.3,0.2Zm-0.7-.7,1.2,0.2,1.6-1.61-1.2-.2Zm5.009-3.71-1.2-.2-1.7,1.8,1.2,0.2Zm-6.308,6.41-1.3-.2-1.6,1.71,1.2,0.1Zm-6.411,6.42-1.2-.2-1.6,1.5,1.3,0.2Zm4.308-4.31-1.3-.2-1.6,1.7,1.2,0.2Zm-2.2,2.1-1.2-.2-1.6,1.71,1.2,0.2Zm-4.106,4.21-1.2-.2-1.7,1.61,1.2,0.2Zm22.434-23.85,1.2,0.2,1.7-1.71-1.3-.2Zm-5.508,6.91-1.3-.2-1.6,1.71,1.2,0.2Zm6.209-6.31-1.2-.1-1.6,1.6,1.2,0.2Zm-7.011,5.71,1.2,0.1,1.6-1.5-1.2-.2Zm2.1-2.1,1.2,0.2,1.6-1.61-1.2-.2ZM729.9,2018.89l1.2-1.2a8.247,8.247,0,0,0,2.9,1.2v1.7h3.1v-1.7a8.276,8.276,0,0,0,2.9-1.2l1.2,1.2,2.2-2.2-1.2-1.21a8.167,8.167,0,0,0,1.2-2.9h1.7v-3.11h-1.7a8.14,8.14,0,0,0-1.2-2.91l1.2-1.2-2.2-2.21-1.2,1.21a7.9,7.9,0,0,0-2.9-1.21v-1.7H734v1.7a7.875,7.875,0,0,0-2.9,1.21l-1.2-1.21-2.2,2.21,1.2,1.2a8.158,8.158,0,0,0-1.2,2.91H726v3.11h1.7a8.185,8.185,0,0,0,1.2,2.9l-1.2,1.21Zm1-12.43a6.518,6.518,0,1,1,0,9.22,6.6,6.6,0,0,1,0-9.22h0Zm7.812,6.62a4.086,4.086,0,0,0,0-4.01l-2,2Zm-1.2-5.12a3.643,3.643,0,0,0-4.006,0l2,2.01Zm-1.55,3.59a0.7,0.7,0,0,0,0-.99h0a0.691,0.691,0,0,0-.977-0.02c0,0.01-.01.01-0.015,0.02a0.7,0.7,0,0,0,0,.99h0a0.721,0.721,0,0,0,.986,0h0.006Zm-1.655-.48-2-2a3.642,3.642,0,0,0,0,4.01Zm-0.8,3.21a3.643,3.643,0,0,0,4.006,0l-2-2.01Zm49.114-67.3-18.913-18.93-0.638.64,18.909,18.92Zm-44.214-41.67a4.9,4.9,0,0,1,1.7.6,4.125,4.125,0,0,1,.7.61l0.8,0.7,0.7-.6-0.7-.71a5.655,5.655,0,0,0-.9-0.7,5.469,5.469,0,0,0-2.1-.8,5.625,5.625,0,0,0-4.307,1.2,5.017,5.017,0,0,0-1.4,1.81,7.909,7.909,0,0,0-.6,2.2,5.418,5.418,0,0,0,.4,2.21,6.109,6.109,0,0,0,1.2,1.9l0.7-.7a4.448,4.448,0,0,1-1.3-3.41,4.99,4.99,0,0,1,1.6-3.31A4.543,4.543,0,0,1,738.41,1905.31Zm16.124,57.84,0.9-.8-1.6-1.61-0.9.91a7.974,7.974,0,0,0-2.1-.91v-1.2h-2.3v1.2a4.383,4.383,0,0,0-2.1.91l-0.8-.91-1.6,1.61,0.9,0.9a7.953,7.953,0,0,0-.9,2.1h-1.2v2.32h1.18a4.385,4.385,0,0,0,.9,2.1l-1,.81,1.6,1.6,0.9-.9a8,8,0,0,0,2.1.9v1.2h2.3v-1.2a4.384,4.384,0,0,0,2.1-.9l0.9,0.9,1.6-1.6-0.9-.91a7.953,7.953,0,0,0,.9-2.1h1.2v-2.31h-1.2a4.369,4.369,0,0,0-.88-2.11h0Zm-8.613-.4a0.72,0.72,0,0,1,1,0,0.711,0.711,0,0,1-1,1.01v-0.01a0.663,0.663,0,0,1-.058-0.94q0.025-.03.054-0.06h0Zm1,7.53a0.672,0.672,0,0,1-.946.05,0.3,0.3,0,0,0-.054-0.05,0.681,0.681,0,0,1-.052-0.96,0.2,0.2,0,0,1,.052-0.05,0.673,0.673,0,0,1,.946-0.06q0.029,0.03.054,0.06a0.669,0.669,0,0,1,.053.95q-0.024.03-.051,0.06h0Zm0.4-1.41a3.4,3.4,0,1,1,4.807,0,3.446,3.446,0,0,1-4.8,0h0Zm6.108,1.41a0.671,0.671,0,0,1-.945.05,0.3,0.3,0,0,0-.054-0.05,0.68,0.68,0,0,1-.051-0.96,0.2,0.2,0,0,1,.051-0.05,0.659,0.659,0,0,1,.942-0.06,0.787,0.787,0,0,1,.057.06,0.669,0.669,0,0,1,.056.95c-0.017.02-.034,0.04-0.053,0.06h0Zm0-6.63a0.7,0.7,0,0,1-1-.05,0.708,0.708,0,0,1,0-.95,0.907,0.907,0,0,1,1,0,0.678,0.678,0,0,1,.061.95,0.206,0.206,0,0,1-.058.05h0Zm-4.907,1.7a1.633,1.633,0,1,0,2.306.01s0,0-.007-0.01a1.71,1.71,0,0,0-2.3,0h0Zm1.6,1.52a0.566,0.566,0,0,1-.8-0.8,0.559,0.559,0,0,1,.8-0.01v0.01a0.608,0.608,0,0,1,.006.8h-0.006ZM756.1,1936l10.481,10.49,0.638-.64-10.481-10.49Zm-7.075-27.08-1.3,1.3a6.546,6.546,0,0,0-2.4-1v-1.8a0.267,0.267,0,0,0-.224-0.3h-2.075a0.266,0.266,0,0,0-.3.22,0.354,0.354,0,0,0,0,.08v1.8a7.449,7.449,0,0,0-2.4,1l-1.2-1.2a0.3,0.3,0,0,0-.4,0l-1.4,1.4a0.32,0.32,0,0,0,0,.41l1.2,1.2a6.4,6.4,0,0,0-1,2.4h-1.8a0.266,0.266,0,0,0-.3.23,0.206,0.206,0,0,0,0,.07v2.01a0.262,0.262,0,0,0,.225.3h1.874a7.332,7.332,0,0,0,1,2.41l-1.3,1.3a0.3,0.3,0,0,0,0,.4l1.4,1.4a0.3,0.3,0,0,0,.4,0l1.3-1.3a6.549,6.549,0,0,0,2.4,1v1.81a0.262,0.262,0,0,0,.225.3,0.1,0.1,0,0,0,.075,0h2a0.265,0.265,0,0,0,.3-0.22,0.268,0.268,0,0,0,0-.08v-1.81a8.078,8.078,0,0,0,2.4-1l1.3,1.3a0.3,0.3,0,0,0,.4,0l1.4-1.4a0.3,0.3,0,0,0,0-.4l-1.3-1.3a6.6,6.6,0,0,0,1-2.41h1.8a0.265,0.265,0,0,0,.3-0.23,0.27,0.27,0,0,0,0-.07v-2.01a0.27,0.27,0,0,0-.227-0.3H750.52a8.167,8.167,0,0,0-1-2.4l1.3-1.3a0.318,0.318,0,0,0,0-.41l-0.357-.35,0.158-.95-1.6-1.7-0.2,1.3,0.274,0.27c-0.019.02-.05,0.01-0.068,0.03H749.02Zm-1.6,10.12a4.826,4.826,0,0,1-6.711,0,4.655,4.655,0,0,1-.128-6.58c0.042-.04.085-0.09,0.128-0.13a4.746,4.746,0,0,1,6.714,6.71h0Zm-5.709-5.71a3.329,3.329,0,1,0,4.707,0h0a3.32,3.32,0,0,0-4.7,0h-0.007Zm4.206,3.31a0.85,0.85,0,0,1-.04,1.2,0.838,0.838,0,0,1-1.159,0l-0.8-.8-0.8.8a0.85,0.85,0,0,1-1.27-1.13c0.022-.02.046-0.05,0.071-0.07l0.8-.8-0.8-.8a0.924,0.924,0,0,1,0-1.21,0.911,0.911,0,0,1,1.2,0l0.8,0.8,0.8-.8a0.754,0.754,0,0,1,1.053-.15,1.568,1.568,0,0,1,.146.15,0.924,0.924,0,0,1,0,1.21l-0.8.8Zm12.319,6.82-0.6.6a3.58,3.58,0,0,0-1.4-.6v-0.91h-1.6v0.91a3.587,3.587,0,0,0-1.4.6l-0.7-.6-1.1,1.1,0.6,0.6a3.557,3.557,0,0,0-.6,1.4h-0.8v1.61h0.9a3.437,3.437,0,0,0,.6,1.4l-0.6.6,1.1,1.1,0.6-.6a3.445,3.445,0,0,0,1.4.6v0.91h1.6v-0.91a3.439,3.439,0,0,0,1.4-.6l0.6,0.6,1.1-1.1-0.6-.6a3.41,3.41,0,0,0,.6-1.4h0.9v-1.61h-0.9a3.529,3.529,0,0,0-.6-1.4l0.6-.6Zm-1.9,2.3-1,1-1-1a2.333,2.333,0,0,1,2,0h0Zm-0.7,1.91a0.454,0.454,0,0,1-.5,0,0.471,0.471,0,0,1,0-.51,0.275,0.275,0,0,1,.384-0.11,0.238,0.238,0,0,1,.116.11,0.469,0.469,0,0,1,0,.51h0Zm-1.8-1.31,1,1-1,1.01a1.831,1.831,0,0,1,0-2.01h0Zm0.5,2.61,1-1,1,1a1.822,1.822,0,0,1-2,0h0Zm2.6-.6-1-1.01,1-1a1.826,1.826,0,0,1,0,2.01h0ZM745.4,1925.4l2.126,2.13,0.636-.64-2.124-2.13Zm9.979-5.73-2.125-2.13-0.637.64,2.125,2.13Zm-1.844,25.54-0.3.9h-0.5l-0.4-.9a0.854,0.854,0,0,0-1.1-.4l-1.3.6a0.743,0.743,0,0,0-.3,1l0.4,0.9a1.468,1.468,0,0,0-.3.4l-0.9-.3a0.9,0.9,0,0,0-1.1.5l-0.5,1.31a0.89,0.89,0,0,0,.5,1.1l0.9,0.3v0.5l-1,.4a0.842,0.842,0,0,0-.4,1.1l0.6,1.31a0.835,0.835,0,0,0,1.1.4l0.9-.4a1.2,1.2,0,0,0,.4.3l-0.3.9a0.811,0.811,0,0,0,.41,1.07,0.3,0.3,0,0,0,.09.03l1.3,0.5a0.808,0.808,0,0,0,1.068-.41c0.012-.03.023-0.06,0.032-0.09l0.3-.9h0.5l0.4,0.9a0.836,0.836,0,0,0,1.1.4l1.3-.6a0.836,0.836,0,0,0,.4-1.1l-0.4-.9a1.347,1.347,0,0,0,.3-0.4l0.9,0.3a0.808,0.808,0,0,0,1.068-.41,0.8,0.8,0,0,0,.031-0.09l0.5-1.31a0.8,0.8,0,0,0-.41-1.06,0.327,0.327,0,0,0-.09-0.04l-0.9-.3v-0.5l0.9-.4a0.847,0.847,0,0,0,.4-1.11l-0.6-1.2a0.855,0.855,0,0,0-1.1-.4l-0.9.4a1.531,1.531,0,0,0-.4-0.3l0.3-.9a0.89,0.89,0,0,0-.5-1.1l-1.3-.5a0.8,0.8,0,0,0-1.063.41,0.844,0.844,0,0,0-.036.09h0Zm2.2,4.31a2.8,2.8,0,1,1-5.109,2.3h0a2.745,2.745,0,0,1,1.3-3.66c0.032-.02.064-0.03,0.1-0.05a2.84,2.84,0,0,1,3.715,1.41h-0.006Zm-3.105-1.11s-0.1-.1-0.1,0l-0.5.2s-0.1.1,0,.1l0.2,0.41a2.37,2.37,0,0,0-.5.5l-0.4-.2h-0.1l-0.2.5v0.1l0.4,0.2v0.7l-0.4.2s-0.1.1,0,.1l0.2,0.5s0.1,0.1.1,0l0.4-.2a2.37,2.37,0,0,0,.5.5l-0.1.5v0.1l0.5,0.2h0.1l0.2-.4h0.7l0.2,0.4s0.1,0.1.1,0l0.5-.2s0.1-.1,0-0.1l-0.2-.4a2.37,2.37,0,0,0,.5-0.5l0.4,0.2h0.1l0.2-.5v-0.1l-0.4-.2v-0.7l0.4-.2s0.1-.1,0-0.1l-0.3-.6s-0.1-.1-0.1,0l-0.4.1a2.37,2.37,0,0,0-.5-0.5l0.2-.41v-0.1l-0.5-.2h-0.1l-0.2.4h-0.7Zm1.9,1.61a1.206,1.206,0,0,1-.584,1.6h-0.016a0.449,0.449,0,0,1-.4.1l-0.9-2.1a0.258,0.258,0,0,1,.292-0.2h0.008a1.212,1.212,0,0,1,1.6.59s0,0.01.006,0.01h-0.009Zm5.609,45.31-1-2.3h-1.3a4.653,4.653,0,0,0-.8-1.91l1.6-1.5-2.4-.9-1,.9a6.275,6.275,0,0,0-1.9-.8v-2.51l-2.3,1.01v1.4a4.558,4.558,0,0,0-1.9.8l-1.8-1.8-0.9,2.4,1,1a5.162,5.162,0,0,0-.8,1.91h-2.4l1,2.3h1.4a4.535,4.535,0,0,0,.8,1.91l-1.7,1.7,2.4,0.91,1-1.01a6.879,6.879,0,0,0,1.9.81v2.5l2.3-1v-1.5a4.869,4.869,0,0,0,1.9-.81l1.8,1.81,0.9-2.41-1-1a6.406,6.406,0,0,0,.8-1.91h2.4Zm-7.912,2.81a3.71,3.71,0,1,1,3.705-3.72v0.01a3.7,3.7,0,0,1-3.688,3.71h-0.017Zm0-6.11a2.405,2.405,0,1,0,2.4,2.41v-0.01a2.429,2.429,0,0,0-2.39-2.4h-0.009Zm1.5,3.61a3.115,3.115,0,0,0-3-2.31h-0.2a1.69,1.69,0,0,1,1.6-.9,2,2,0,0,1,2,2,2.218,2.218,0,0,1-.382,1.21h-0.012Zm14.682-19.51-10.764,10.78,0.708,0.7,10.764-10.77ZM745.1,2000.44l-0.5-.49-2.762,2.76,0.5,0.5Zm-19.617-20.72a1.305,1.305,0,1,0-1.845-.01s0,0.01,0,.01a1.315,1.315,0,0,0,1.854,0H725.48Zm-0.1,3.09v0.1a1.354,1.354,0,0,0,1.787.7h0.012a1.341,1.341,0,0,0,.847-1.69c-0.014-.04-0.03-0.08-0.047-0.12a1.363,1.363,0,0,0-1.791-.71,0.07,0.07,0,0,0-.008.01,1.383,1.383,0,0,0-.79,1.71h-0.01Zm-4.914-5.05a4.166,4.166,0,1,0-.007-0.01,0.016,0.016,0,0,1,.017.01h-0.01Zm6.215-1.07a9.725,9.725,0,1,0,.01,0h-0.01Zm-5.007,21.15a12.759,12.759,0,0,1-9.414,0,11.813,11.813,0,0,1-4.007-2.71,12.118,12.118,0,0,1-2.7-4.11,12.755,12.755,0,0,1,0-9.42,12.267,12.267,0,0,1,2.7-4.11,12.118,12.118,0,0,1,9.315-3.61,14.131,14.131,0,0,1,4.106.91,16.018,16.018,0,0,1,4.006,2.9,12.878,12.878,0,0,1,2.705,4.01,11.2,11.2,0,0,1,.9,4.41,14.267,14.267,0,0,1-.9,5.01,11.8,11.8,0,0,1-2.705,4.01,12.724,12.724,0,0,1-4,2.71h-0.01Zm-4.707-20.75a1.243,1.243,0,0,0,1.391-1.06,1.377,1.377,0,0,0,.009-0.24,1.3,1.3,0,0,0-1.1-1.3h-0.3a1.291,1.291,0,0,0-1.306,1.29,1.3,1.3,0,0,0,1.292,1.31h0.014Zm9.515,9.12v0.3a1.334,1.334,0,0,0,1.3,1.31,1.507,1.507,0,0,0,1.3-1.41,1.318,1.318,0,0,0-1.3-1.3,1.29,1.29,0,0,0-1.29,1.1h-0.009Zm-0.6.3a10.5,10.5,0,0,0-.7-3.6,8.1,8.1,0,0,0-1.9-2.71,8.583,8.583,0,0,0-2.9-1.91,6.931,6.931,0,0,0-3.5-.6,9.107,9.107,0,0,0-6.11,2.61,8.511,8.511,0,0,0-1.9,2.91,6.552,6.552,0,0,0-.6,2.7,9.332,9.332,0,0,0,.6,4.01,8.284,8.284,0,0,0,1.9,2.91,8.673,8.673,0,0,0,2.9,1.9,8.768,8.768,0,0,0,7.112-.2,7.363,7.363,0,0,0,2.5-1.8,10.717,10.717,0,0,0,1.8-2.51,9.924,9.924,0,0,0,.814-3.71h-0.009Zm-3.406,5.32a5.465,5.465,0,1,1,.009,0h-0.009Zm-9.006-14.14a2.381,2.381,0,1,0-.006,0h0.006Zm13.813,11.53a1.353,1.353,0,0,0-1.795.69s0,0,0,.01c0,0.1-.1.2-0.1,0.3a1.427,1.427,0,0,0,.8,1.51,1.331,1.331,0,0,0,1.8-.57,1.521,1.521,0,0,0,.1-0.24,1.375,1.375,0,0,0-.791-1.7h-0.009Zm-15.122-7.62a6.8,6.8,0,1,0,9.62,0h-0.006a6.716,6.716,0,0,0-9.508-.1,0.843,0.843,0,0,0-.1.1h-0.009Zm9.214,9.12a6.007,6.007,0,1,1,.021-0.02,0.226,0.226,0,0,0-.013.02h-0.008Zm2.309,2.38a1.3,1.3,0,1,0,1.841,0,1.289,1.289,0,0,0-1.833,0h-0.008Zm-13.178-13.2a1.305,1.305,0,1,0-1.845-.01s0,0.01,0,.01a1.31,1.31,0,0,0,1.85,0h-0.008Zm10.368,15.03a0.339,0.339,0,0,0-.3.1,1.366,1.366,0,0,0-.7,1.8s0,0,0,.01a1.38,1.38,0,0,0,1.7.8h0.1a1.541,1.541,0,0,0,.7-1.9,1.34,1.34,0,0,0-1.491-.81h-0.008ZM706.6,1983.59a1.3,1.3,0,1,0-.706-1.7,1.293,1.293,0,0,0,.708,1.69,0.061,0.061,0,0,0,.007.01H706.6Zm1.056,2.72v-0.2a1.381,1.381,0,0,0-1.3-1.1,1.233,1.233,0,0,0-1.3,1.18v0.12a1.3,1.3,0,0,0,2.607,0h-0.008Zm9.314,9.53a1.3,1.3,0,1,0,.009,0h-0.009Zm-3.406-.81a0.1,0.1,0,0,1-.1-0.1h0a1.371,1.371,0,0,0-1.1,2.51h0.1a1.435,1.435,0,0,0,1.7-.7,1.326,1.326,0,0,0-.591-1.71h-0.009Zm-5.208-5.11a1.367,1.367,0,1,0-.7,1.81,1.463,1.463,0,0,0,.708-1.81h-0.009Zm0.174,3.09a1.3,1.3,0,1,0,1.842,0,1.289,1.289,0,0,0-1.833,0h-0.009Zm10.643-55.52,0.6-.7a2.893,2.893,0,0,0-1.3-1.21,3.121,3.121,0,0,0-1.7-.7l-0.4.8a5.584,5.584,0,0,0,1.4,1.01,3.364,3.364,0,0,0,1.408.8h-0.009Zm-8.012-4.01-0.1.9a4.928,4.928,0,0,0,1.6.4,4.256,4.256,0,0,0,1.7.2l0.3-.9a3.966,3.966,0,0,0-1.7-.6,4.5,4.5,0,0,0-1.791,0h-0.009Zm-10.817,2.91a6.433,6.433,0,0,0,1.6-.51,4.935,4.935,0,0,0,1.5-.7l-0.2-.9a3.145,3.145,0,0,0-1.7.4,3.405,3.405,0,0,0-1.6.9Zm-3.105,2.2a4.157,4.157,0,0,0,1.2-1.1l-0.4-.8a3.669,3.669,0,0,0-1.6.9,2.782,2.782,0,0,0-1.2,1.3l0.6,0.7a5.929,5.929,0,0,0,1.408-1h-0.009Zm-4.406,5.41a3.283,3.283,0,0,0,.9-1.4,5.017,5.017,0,0,0,.7-1.4l-0.7-.6a2.8,2.8,0,0,0-1.2,1.4,3.147,3.147,0,0,0-.6,1.7Zm-0.2,4.82a7.485,7.485,0,0,0-.2-1.21,6.436,6.436,0,0,0-.2-1.6l-0.9-.1a2.829,2.829,0,0,0-.2,1.8c0.1,0.5.2,1,.3,1.31a1.323,1.323,0,0,0,.3.5l0.9-.2v-0.5h0Zm1,4.1a3.791,3.791,0,0,0-.6-1.6l-0.9.2a4.34,4.34,0,0,0,.2,1.71,3.742,3.742,0,0,0,.6,1.6l0.9-.2a2.893,2.893,0,0,0-.194-1.71h-0.006Zm1.3,5.42a3.938,3.938,0,0,0-.6-1.61l-0.9.2a4.3,4.3,0,0,0,.2,1.71,3.729,3.729,0,0,0,.6,1.6l0.9-.2a4.286,4.286,0,0,0-.187-1.7H694.93Zm1.3,5.52a3.833,3.833,0,0,0-.6-1.61l-0.9.2a4.251,4.251,0,0,0,.2,1.7,3.915,3.915,0,0,0,.6,1.62l0.9-.21a4.332,4.332,0,0,0-.185-1.71Zm1.3,5.51a3.741,3.741,0,0,0-.6-1.6l-0.9.2a4.276,4.276,0,0,0,.2,1.7,3.842,3.842,0,0,0,.6,1.61l0.9-.2a4.224,4.224,0,0,0-.182-1.71h-0.018Zm1.3,5.62a3.744,3.744,0,0,0-.6-1.61l-0.9.2a4.325,4.325,0,0,0,.2,1.71,3.791,3.791,0,0,0,.6,1.6l0.9-.2a4.173,4.173,0,0,0-.18-1.7h-0.02Zm1.3,5.31a3.741,3.741,0,0,0-.6-1.6l-0.9.3a4.276,4.276,0,0,0,.2,1.7,3.778,3.778,0,0,0,.6,1.6l0.9-.2a4.808,4.808,0,0,0-.177-1.8h-0.023Zm1.3,5.61a3.729,3.729,0,0,0-.6-1.6l-0.9.2a4.312,4.312,0,0,0,.2,1.7,3.842,3.842,0,0,0,.6,1.61l0.9-.2a4.309,4.309,0,0,0-.175-1.71h-0.025Zm1.3,5.52a3.744,3.744,0,0,0-.6-1.61l-0.9.2a4.325,4.325,0,0,0,.2,1.71,3.791,3.791,0,0,0,.6,1.6l0.9-.2a4.188,4.188,0,0,0-.172-1.7h-0.028Zm0.8,3.9-0.9.31a3.06,3.06,0,0,0,.7,1.7,3.467,3.467,0,0,0,1.3,1.3l0.6-.6a4.186,4.186,0,0,0-.8-1.3,8.359,8.359,0,0,0-.871-1.41h-0.029Zm3.2,4.01-0.5.81a4.867,4.867,0,0,0,1.5,1.1,3.911,3.911,0,0,0,1.7.5l0.3-.9a3.756,3.756,0,0,0-1.5-.8,5.329,5.329,0,0,0-1.47-.71h-0.029Zm6.71,2.21a5.39,5.39,0,0,0-1.7-.1l-0.1.9a2.852,2.852,0,0,0,1.7.5,3.662,3.662,0,0,0,1.8-.1v-0.9a5.294,5.294,0,0,0-1.671-.3h-0.029Zm5.408-.1a4.982,4.982,0,0,0-1.7.4l0.1,0.9a3.064,3.064,0,0,0,1.8,0,3.2,3.2,0,0,0,1.7-.5l-0.2-.9c0.033-.2-0.769,0-1.671.1H718.85Zm6.01-.4a2.993,2.993,0,0,0,1.5-1l-0.5-.81a3.846,3.846,0,0,0-1.6.61,5.039,5.039,0,0,0-1.5.8l0.4,0.9a3.891,3.891,0,0,0,1.728-.5H724.86Zm4.807-3.31a2.918,2.918,0,0,0,1.1-1.4l-0.7-.6a11.033,11.033,0,0,0-1.3,1.1,3.718,3.718,0,0,0-1.2,1.2l0.6,0.7a2.877,2.877,0,0,0,1.528-1h-0.029Zm2.4-3.21a3.032,3.032,0,0,0,1-1.5,3.33,3.33,0,0,0,.4-1.8l-0.9-.21a11.635,11.635,0,0,0-.7,1.51,9.482,9.482,0,0,0-.6,1.5Zm1.7-7.31a3.857,3.857,0,0,0-.6-1.71l-0.9.2a4.362,4.362,0,0,0,.2,1.71,6.363,6.363,0,0,0,.4,1.6h0.9a3.053,3.053,0,0,0,.037-1.8h-0.037Zm-2.6-5.12a3.842,3.842,0,0,0,.6,1.61l0.9-.2a4.3,4.3,0,0,0-.2-1.71,3.741,3.741,0,0,0-.6-1.6l-0.9.2a4.21,4.21,0,0,0,.232,1.7h-0.032Zm-0.7-3.71,0.9-.2a4.2,4.2,0,0,0-.2-1.7,3.755,3.755,0,0,0-.6-1.6l-0.9.2a4.312,4.312,0,0,0,.2,1.7,3.8,3.8,0,0,0,.631,1.6h-0.031Zm-1.3-5.61,0.9-.2a4.234,4.234,0,0,0-.2-1.7,3.743,3.743,0,0,0-.6-1.61l-0.9.2a4.346,4.346,0,0,0,.2,1.71,3.808,3.808,0,0,0,.627,1.6h-0.027Zm-1.3-5.41,0.9-.2a4.34,4.34,0,0,0-.2-1.71c-0.2-1-.4-1.7-0.6-1.6l-0.9.2a4.383,4.383,0,0,0,.2,1.71,3.806,3.806,0,0,0,.626,1.6h-0.026Zm-1.3-5.62,0.9-.31a4.276,4.276,0,0,0-.2-1.7,3.778,3.778,0,0,0-.6-1.6l-0.9.2a4.7,4.7,0,0,0,.2,1.8,3.829,3.829,0,0,0,.622,1.61h-0.022Zm-1.2-5.52,0.9-.2a4.276,4.276,0,0,0-.2-1.7,3.925,3.925,0,0,0-.6-1.61l-0.9.2a2.877,2.877,0,0,0,.2,1.71,3.711,3.711,0,0,0,.621,1.6h-0.021Zm-0.6-7.41a6.331,6.331,0,0,0-.6-1.61l-0.9.2a4.3,4.3,0,0,0,.2,1.71,3.741,3.741,0,0,0,.6,1.6l0.9-.2a4.282,4.282,0,0,0-.18-1.7h-0.02Zm-12.619-2.21,0.4-.4,0.9-.9,1.7-1.71,6.81-6.81,13.721-13.74-0.3-.3-13.621,13.84-6.81,6.81-1.7,1.71-0.9.9-0.4.4c-0.1.2-.3,0.3-0.4,0.5a3.5,3.5,0,0,0-.6,2.41,4.106,4.106,0,0,0,1.1,2.3,3.818,3.818,0,0,0,2.3,1.1,3.466,3.466,0,0,0,2.4-.6,0.947,0.947,0,0,0,.5-0.4,1.386,1.386,0,0,0,.4-0.4l0.9-.9,1.7-1.71,6.81-6.81,13.721-13.73-0.3-.2-13.62,13.73-6.811,6.81-1.7,1.71-0.9.9-0.4.4a1.733,1.733,0,0,1-.5.3,3.279,3.279,0,0,1-2.2.5,2.973,2.973,0,0,1-2-1,3.775,3.775,0,0,1-1-2,3.439,3.439,0,0,1,.5-2.21c0.114-.2.214-0.3,0.315-0.5h-0.02Zm2.4-3.61-1.7,1.71-0.9.8-0.5.5a2.215,2.215,0,0,0-.4.6,4.036,4.036,0,0,0-.6,2.81,4.614,4.614,0,0,0,3.907,3.91,4.365,4.365,0,0,0,2.8-.61c0.2-.1.4-0.3,0.6-0.4l0.5-.5,0.9-.9,1.7-1.7,6.81-6.82,13.721-13.73-0.3-.1-13.621,13.63-6.91,6.82-1.7,1.7-0.9.9a1.949,1.949,0,0,1-.5.4,1.911,1.911,0,0,1-.6.4,4.24,4.24,0,0,1-5.2-.6,3.945,3.945,0,0,1-1.2-2.5,6.571,6.571,0,0,1,.8-2.61c0.1-.2.3-0.4,0.4-0.6a1.748,1.748,0,0,0,.4-0.5l0.9-.9,1.7-1.71,6.81-6.81,13.721-13.74h-0.1l-13.72,13.74Zm5.008,5.11-1.7,1.71-0.9.9a4.839,4.839,0,0,1-.8.7,2.838,2.838,0,0,1-1.8.4,3.046,3.046,0,0,1-1.6-.8,3.042,3.042,0,0,0,1.8.9,2.941,2.941,0,0,0,1.9-.4,4.839,4.839,0,0,0,.8-0.7l0.9-.9,1.7-1.71,6.811-6.81,13.72-13.73-0.3-.11-13.621,13.64Zm-7.211-.5a4.982,4.982,0,0,1,.7-0.8l0.9-.9,1.7-1.71,6.81-6.81,13.721-13.73-0.2-.2-13.621,13.63-6.81,6.91-1.7,1.71-0.9.8a4.982,4.982,0,0,0-.7.8,2.676,2.676,0,0,0-.4,1.91,3.073,3.073,0,0,0,.9,1.8,3.005,3.005,0,0,1-.8-1.6,2.855,2.855,0,0,1,.424-1.81h-0.024Zm22.634-21.85a2.188,2.188,0,0,0,0,3.01,2.007,2.007,0,0,0,2.837.17,1.588,1.588,0,0,0,.168-0.17,2.126,2.126,0,0,0-2.981-3.01H734.98Zm2.5,2.61a1.632,1.632,0,0,1-2.305-2.31,1.818,1.818,0,0,1,2.305.1,1.581,1.581,0,0,1,.023,2.21h-0.023Zm-1.8-1.61a1.15,1.15,0,0,1,1.2.4,1.012,1.012,0,0,1,.3.81,0.989,0.989,0,0,0-.041-1.4,1,1,0,0,0-1.359-.01,0.211,0.211,0,0,0-.08.2h-0.02Zm-4.506,5.92a2.127,2.127,0,1,0,0-3.01,2.183,2.183,0,0,0,.02,3.01h-0.02Zm2.5-2.61a1.58,1.58,0,0,1,0,2.21,1.632,1.632,0,0,1-2.3-2.31,1.826,1.826,0,0,1,2.329.1h-0.025Zm-0.6,1a0.865,0.865,0,0,1,.3.8,0.989,0.989,0,1,0-1.334-1.46c-0.023.02-.045,0.04-0.065,0.06a0.2,0.2,0,0,0-.1.2,1.147,1.147,0,0,1,1.222.4h-0.023Zm-6.409,3.21a2.127,2.127,0,1,0,3.007,0h0a2.194,2.194,0,0,0-2.983,0h-0.022Zm2.6,2.61a1.629,1.629,0,1,1-2.384-2.22q0.041-.045.084-0.09a1.837,1.837,0,0,1,2.3.1,1.581,1.581,0,0,1,.022,2.21h-0.022Zm-1.9-1.71a1.242,1.242,0,0,1,1.471.95,1.144,1.144,0,0,1,.029.26,0.989,0.989,0,0,0-.041-1.4,1,1,0,0,0-1.359-.01,0.211,0.211,0,0,0-.08.2h-0.02Zm-5.108,3.61a2.127,2.127,0,1,0,3.007.01v-0.01a2.2,2.2,0,0,0-2.986,0h-0.02Zm2.6,2.61a1.633,1.633,0,1,1-.034-2.24l0.034,0.03a1.581,1.581,0,0,1,.02,2.21h-0.02Zm-1.8-1.71a1.166,1.166,0,0,1,1.2.4,1.962,1.962,0,0,1,.3.81,0.987,0.987,0,0,0-.041-1.4,1,1,0,0,0-1.358-.01,0.209,0.209,0,0,0-.084.2H723.07Zm-5.107,3.31a2.128,2.128,0,1,0,3.007.01s-0.006,0-.008-0.01a2.194,2.194,0,0,0-2.983,0h-0.016Zm2.6,2.61a1.632,1.632,0,0,1-2.3-2.31,1.829,1.829,0,0,1,2.3.1,1.581,1.581,0,0,1,.016,2.21h-0.016Zm-1.9-1.71a1.242,1.242,0,0,1,1.472.95,1.281,1.281,0,0,1,.028.26,0.989,0.989,0,0,0-.073-1.4,1,1,0,0,0-1.327-.01,0.215,0.215,0,0,0-.088.2h-0.012Zm-5.108,3.51a2.188,2.188,0,0,0,0,3.01,2.008,2.008,0,0,0,2.838.17,1.579,1.579,0,0,0,.167-0.17,2.126,2.126,0,1,0-2.81-3.19c-0.064.06-.126,0.12-0.183,0.18h-0.012Zm2.6,2.71a1.631,1.631,0,1,1-.038-2.25,0.164,0.164,0,0,0,.038.04,1.581,1.581,0,0,1,.012,2.21h-0.012Zm-1.8-1.71a1.169,1.169,0,0,1,1.2.41,1.949,1.949,0,0,1,.3.8,0.992,0.992,0,1,0-1.322-1.48c-0.027.02-.053,0.05-0.078,0.07a0.207,0.207,0,0,0-.091.2h-0.009Zm12.418,4.51,25.941-12.02-0.4-.4-25.64,11.92Zm-0.6-2.8,24.438-11.33-0.4-.3-24.137,11.13Zm0.1,0.8,0.2,0.8,25.338-11.73-0.7-.6Zm10.116-15.84,1.3,4.81,4.808,1.31,3.5-3.51-1.3-4.81-4.808-1.31Zm7.211-1.2,0.9,3.41-2.5,2.5-3.4-.9-0.8-3.41,2.5-2.5Zm-1.3,4.51,1.1-2-1.1-2.01h-2.3l-1.1,2.01,1.1,2h2.3Zm-2.1-3.51h1.808l0.9,1.51-0.9,1.5h-1.8l-0.9-1.5Zm20.733-2.1a0.568,0.568,0,0,0-.117.79,0.557,0.557,0,0,0,.117.11l9.714,9.72a0.637,0.637,0,0,0,.9-0.9l-9.716-9.72a0.564,0.564,0,0,0-.9,0h0Zm-54.08,30.98a7.861,7.861,0,0,1-1-.8,5.335,5.335,0,0,1-.9-1.11l-2,2.01,1.9,1.91Zm10.617,0.2-2-2a7.541,7.541,0,0,1-.8,1,5.59,5.59,0,0,1-1.1.9l2,2.01Zm1.7-6.73h-2.8a5.8,5.8,0,0,1,0,2.62h2.8v-2.62Zm-10.216,7.43v2.81h2.6v-2.81a5.726,5.726,0,0,1-2.6-.01v0.01Zm-7.611-4.82h2.8a5.752,5.752,0,0,1,0-2.61h-2.8v2.61Zm4.507-5.71a3.441,3.441,0,0,1,1.1-.9l-2-2.01-1.9,1.91,2,2a7.541,7.541,0,0,1,.8-1h0Zm7.611,1.2a4.538,4.538,0,0,0-6.474,6.36l0.065,0.06a4.645,4.645,0,0,0,6.409,0,4.375,4.375,0,0,0,.348-6.24,0.443,0.443,0,0,0-.348-0.18h0Zm-2.4,6.12-2.9-.81-0.8-2.9,2.1-2.11,2.905,0.8,0.8,2.91Zm-1.4-5.02-0.7.8,2.6,2.62,0.8-.7-0.6-2.12Zm-9.616,12.14a14.315,14.315,0,0,0,21.834-18.35l-1.7,1.7a11.889,11.889,0,1,1-18.328-1.9,12.068,12.068,0,0,1,7.411-3.41l2.3-2.31a14.307,14.307,0,0,0-11.524,24.27h0.007Zm8.614-40.8,0.3-.1a1.238,1.238,0,0,1,.6-0.11h0.2l-0.1-.5h-0.5a0.57,0.57,0,0,1-.4.1h-0.3l0.1,0.61h0.1Zm0.1,0.6,0.3-.1a1.366,1.366,0,0,1,.6-0.1h0.2l-0.1-.4h-0.5a0.57,0.57,0,0,1-.4.1h-0.3l0.1,0.5h0.1Zm0-1.51a1.366,1.366,0,0,1,.6-0.1c0.1,0,.2,0,0.2.1l-0.1-.5h-0.5a0.57,0.57,0,0,1-.4.1h-0.3l0.2,0.5h0.1Zm-0.4-.6,0.3-.1a1.366,1.366,0,0,1,.6-0.1,0.1,0.1,0,0,1,.1.1h0l-0.1-.4a1.078,1.078,0,0,1-.5-0.1l-0.4-.1-0.2-.1h-0.1l0.2,0.8h0.1Zm0.8,2.71a1.366,1.366,0,0,1,.6-0.1h0.3l-0.1-.5h-0.5a0.572,0.572,0,0,1-.4.1h-0.3v0.6h0.1Zm0.2,2.2,0.3-.1a1.362,1.362,0,0,1,.6-0.1h0.2l-0.1-.4h-0.5a0.572,0.572,0,0,1-.4.1h-0.3l0.1,0.5h0.1Zm0.4,1.51,0.3-.1a1.36,1.36,0,0,1,.6-0.1h0.2l-0.1-.5h-0.5a0.568,0.568,0,0,1-.4.1h-0.3l0.1,0.6h0.1Zm-0.2-.7,0.3-.11a1.362,1.362,0,0,1,.6-0.1h0.2l-0.1-.5h-0.5a0.572,0.572,0,0,1-.4.1h-0.3l0.1,0.61h0.1Zm0.4,1.4,0.3-.1a1.366,1.366,0,0,1,.6-0.1h0.2l-0.1-.5h-0.5a0.568,0.568,0,0,1-.4.1h-0.3l0.1,0.6h0.1Zm-0.7-2.91h0.3a1.362,1.362,0,0,1,.6-0.1,0.2,0.2,0,0,0,.2-0.1l-0.1-.5h-0.5a0.572,0.572,0,0,1-.4.1h-0.3l0.1,0.6h0.1Zm-0.6-5.11c0.2,0.1.3,0.2,0.5,0.3,0.1,0,.1,0,0.3.2l0.1-.1c-0.1-.2-0.2-0.3-0.3-0.5l-0.3-.3-0.1-.2-0.1-.1-0.5.5,0.1,0.1Zm0.4,4.41,0.3-.1a1.366,1.366,0,0,1,.6-0.1c0.1,0,.2,0,0.2.1l-0.1-.5h-0.5a0.572,0.572,0,0,1-.4.1h-0.3l0.1,0.5h0.1Zm2.1-6.92a1.522,1.522,0,0,1,.4.4c0,0.1.1,0.1,0.1,0.21l0.3-.31a0.762,0.762,0,0,0-.2-0.4l-0.3-.3-0.1-.2-0.1-.1-0.4.4,0.1,0.1Zm2.5-2.6a1.507,1.507,0,0,1,.4.4l0.2,0.2,0.3-.3c-0.1-.1-0.2-0.3-0.3-0.4l-0.2-.3-0.1-.2-0.1-.1-0.4.4,0.1,0.1Zm-1,1.1a1.522,1.522,0,0,1,.4.4,1.054,1.054,0,0,0,.3.1l0.3-.3c-0.1-.1-0.2-0.3-0.3-0.4l-0.3-.3-0.1-.2-0.1-.1-0.4.4,0.1,0.1Zm0.9-.2c0.1,0.1.1,0.2,0.2,0.3l0.4-.4c-0.1-.1-0.2-0.3-0.3-0.4l-0.3-.3-0.1-.2-0.1-.1-0.4.4v0.1l0.2,0.2a1.511,1.511,0,0,1,.4.4h0Zm0.8-1.5a1.423,1.423,0,0,0,.2.6c0,0.1,0,.1.2,0.1,0-.1.1-0.1,0.1-0.2a0.331,0.331,0,0,0,.1-0.2c0-.1.1-0.3,0.1-0.4l0.1-.2v-0.1l-0.8-.21-0.2.21,0.1,0.1Zm-4.707,4.61a1.537,1.537,0,0,1,.4.4,0.515,0.515,0,0,0,.2.3l0.3-.3c-0.1-.2-0.2-0.3-0.3-0.5l-0.3-.3-0.1-.2-0.1-.1-0.4.4,0.1,0.1Zm0.5-.5a1.518,1.518,0,0,1,.4.4,2.341,2.341,0,0,1,.1.4l0.4-.4c-0.1-.2-0.2-0.3-0.3-0.5-0.1-.1-0.2-0.2-0.3-0.31l-0.1-.2-0.1-.1-0.4.41,0.1,0.1Zm-1.1,1.1a1.522,1.522,0,0,1,.4.4,0.215,0.215,0,0,1,.2.2l0.3-.2c-0.1-.2-0.2-0.3-0.3-0.5l-0.3-.3-0.1-.2-0.1-.1-0.4.4,0.1,0.1Zm3.105-3.01a1.522,1.522,0,0,1,.4.4c0.1,0,.1.1,0.1,0.2l0.3-.4a0.762,0.762,0,0,0-.2-0.4l-0.3-.3-0.1-.2-0.1-.1-0.4.4,0.1,0.2Zm-0.5.5a1.522,1.522,0,0,1,.4.4c0.1,0,.1.1,0.1,0.2l0.3-.3a0.762,0.762,0,0,0-.2-0.4l-0.3-.3-0.1-.2-0.1-.1-0.4.4,0.1,0.1Zm-1,.9a1.53,1.53,0,0,1,.4.41c0.1,0.1.1,0.1,0,.3l0.3-.3a0.815,0.815,0,0,0-.2-0.41l-0.3-.3-0.1-.2-0.1-.1-0.3.3,0.1,0.1Zm9.815-1.4a0.319,0.319,0,0,0,0,.3l0.5,0.1a1.415,1.415,0,0,1,.2-0.4c0-.1.1-0.3,0.1-0.4v-0.3l-0.5-.2v0.1l-0.1.3a2.676,2.676,0,0,0-.2.5h0Zm-0.6.1,0.4,0.1a1.442,1.442,0,0,1,.2-0.4c0-.1.1-0.3,0.1-0.4l0.1-.3v-0.1l-0.5-.1v0.1l-0.1.3a2.676,2.676,0,0,0-.2.5,0.322,0.322,0,0,0,0,.3h0Zm1.3,0.3,0.5,0.2,0.3-.3a1.069,1.069,0,0,0-.2-0.5,0.548,0.548,0,0,0-.2-0.3l-0.1-.2-0.1-.1v0.4a1.277,1.277,0,0,1-.1.6,0.324,0.324,0,0,1-.1.2h0Zm0.6-.9a1.522,1.522,0,0,1,.4.4,0.388,0.388,0,0,1,.1.2l0.4-.4c-0.1-.1-0.2-0.3-0.3-0.4l-0.3-.3-0.1-.2-0.1-.1-0.4.4,0.1,0.1Zm-2.8.4,0.5,0.1a1.33,1.33,0,0,0,.3-0.4c0-.1.1-0.3,0.1-0.4l0.1-.2v-0.1l-0.5-.2v0.1l-0.1.3a2.676,2.676,0,0,0-.2.5c-0.1.1-.1,0.2-0.2,0.3h0Zm-2-.6,0.4,0.1a1.347,1.347,0,0,0,.3-0.4c0-.1.1-0.3,0.1-0.4l0.1-.2v-0.1l-0.5-.1v0.1l-0.1.3a2.676,2.676,0,0,0-.2.5,0.39,0.39,0,0,0-.1.2h0Zm-1.4-.4,0.5,0.1a1.442,1.442,0,0,0,.2-0.4c0-.1.1-0.3,0.1-0.4l0.1-.2v-0.1l-0.5-.1v0.1l-0.1.3a2.546,2.546,0,0,0-.2.5c-0.105,0-.105.1-0.105,0.2h0Zm0.7,0.3,0.5,0.1a1.317,1.317,0,0,0,.2-0.4c0-.1.1-0.3,0.1-0.4l0.1-.2v-0.1l-0.5-.2v0.1l-0.1.3a2.676,2.676,0,0,0-.2.5c-0.1,0-.1.1-0.1,0.3h0Zm-1.3-.7c0,0.1-.1.1-0.1,0.2l0.5,0.1a1.364,1.364,0,0,0,.2-0.4c0-.1.1-0.3,0.1-0.4l0.1-.2-0.5-.2v0.1l-0.1.3a2.63,2.63,0,0,0-.2.5h0Zm2.6,1,0.5,0.1a1.347,1.347,0,0,0,.3-0.4c0-.1.1-0.3,0.1-0.4l0.1-.2v-0.1l-0.5-.2v0.1l-0.1.3a2.546,2.546,0,0,0-.2.5c-0.1.1-.1,0.2-0.2,0.3h0Zm4.707-.6a1.522,1.522,0,0,1,.4.4,0.52,0.52,0,0,0,.2.3l0.3-.3c-0.1-.2-0.2-0.3-0.3-0.5l-0.3-.3-0.1-.2-0.1-.1-0.4.4,0.1,0.1Zm-3.906.7,0.4,0.1a1.33,1.33,0,0,0,.3-0.4c0-.1.1-0.3,0.1-0.4l0.1-.2v-0.1l-0.5-.1v0.1l-0.1.3a2.676,2.676,0,0,0-.2.5,0.3,0.3,0,0,0-.1.2h0Zm6.41-3.11a1.522,1.522,0,0,1,.4.4,0.144,0.144,0,0,1,0,.2h0l0.4-.4a0.762,0.762,0,0,0-.2-0.4l-0.3-.3-0.1-.2-0.1-.1-0.4.4,0.1,0.1Zm2.6-2.6a1.522,1.522,0,0,1,.4.4,0.316,0.316,0,0,0,.2.1l0.3-.3c-0.1-.1-0.2-0.3-0.3-0.4l-0.3-.3-0.1-.2-0.1-.11-0.4.41,0.1,0.1Zm-1,1a1.5,1.5,0,0,1,.4.4c0,0.1,0,.1.2,0.2l0.3-.3c-0.1-.1-0.2-0.3-0.3-0.4l-0.3-.3-0.1-.2-0.1-.1-0.4.4,0.1,0.1Zm0.8-.1a0.788,0.788,0,0,1,.2.3l0.4-.4c-0.1-.1-0.2-0.3-0.3-0.4l-0.3-.3-0.1-.2-0.1-.1-0.4.4v0.1l0.2,0.2a1.5,1.5,0,0,1,.4.4h0Zm0.7-1.4a1.522,1.522,0,0,1,.4.4,0.4,0.4,0,0,1,.1.2l0.4-.4c-0.1-.1-0.2-0.3-0.3-0.4s-0.2-.21-0.3-0.31l-0.1-.2-0.1-.1-0.4.4,0.1,0.21Zm-4.206,4.91a0.732,0.732,0,0,0,.3.3l0.3-.3c-0.1-.2-0.2-0.3-0.3-0.5l-0.3-.3-0.1-.21-0.1-.1-0.4.41v0.1l0.2,0.2a1.522,1.522,0,0,1,.4.4h0Zm0.5-.5c0,0.1.1,0.1,0.2,0.4l0.4-.4c-0.1-.2-0.2-0.3-0.3-0.51l-0.3-.3-0.1-.2-0.1-.1-0.4.4v0.1l0.2,0.21a1.522,1.522,0,0,1,.4.4h0Zm-1.4.6a1.537,1.537,0,0,1,.4.4,2.438,2.438,0,0,1,.1.4l0.4-.4c-0.1-.2-0.2-0.3-0.3-0.5l-0.3-.3-0.1-.2-0.1-.1-0.4.4,0.1,0.1Zm3-2.91a1.522,1.522,0,0,1,.4.4q0.15,0,0,.3l0.4-.4a0.761,0.761,0,0,0-.2-0.4l-0.3-.3-0.1-.2-0.1-.1-0.4.4,0.1,0.1Zm-0.5.5a1.522,1.522,0,0,1,.4.4,0.1,0.1,0,0,1,.1.1h0l0.3-.3a0.762,0.762,0,0,0-.2-0.4l-0.3-.3-0.1-.2-0.1-.1-0.4.4,0.1,0.2Zm-1,.9a1.507,1.507,0,0,1,.4.4c0.1,0,.1.11,0.1,0.31l0.3-.31a0.762,0.762,0,0,0-.2-0.4l-0.3-.3-0.1-.2-0.1-.1-0.3.3h0.1Zm13.32,23.56-1.2-3.41-3.606-.7-2.4,2.81,1.2,3.4,3.6,0.71Zm-5.208,1.3-0.9-2.4,1.7-1.91,2.5,0.5,0.9,2.41-1.7,1.9Zm0.7-3.31-0.7,1.51,0.9,1.4,1.6-.1,0.7-1.5-0.9-1.41Zm1.7,2.51-1.3.1-0.7-1.1,0.5-1.2,1.3-.1,0.7,1.1Zm5.608,11.23-2.9,2.9a2.015,2.015,0,0,1,.3.81h4.107a6.674,6.674,0,0,0-1.507-3.71h0Zm-0.8-.8a6.655,6.655,0,0,0-3.706-1.51v4.11c0.3,0.1.5,0.2,0.8,0.3Zm-1.8,5.61c-0.1.2-.2,0.5-0.3,0.7l2.9,2.91a6.393,6.393,0,0,0,1.5-3.61h-4.1Zm-3.705-2.71c0.2-.1.5-0.2,0.7-0.3v-4.11a6.163,6.163,0,0,0-3.605,1.51Zm0.2,1a1.633,1.633,0,1,0,2.3.01s0,0-.006-0.01a1.72,1.72,0,0,0-2.3,0h0Zm2.1,2.11-0.2.2a1.744,1.744,0,0,0-1.559-1.9,1.93,1.93,0,0,0-.34,0,0.38,0.38,0,0,1,.2-0.2,1.344,1.344,0,0,1,1.9,1.9h0Zm-7.411-1.5H733.1a1.373,1.373,0,0,1,.3-0.81l-2.9-2.9a6.68,6.68,0,0,0-1.506,3.71h0Zm6.91,7.02a6.73,6.73,0,0,0,3.706-1.5l-2.9-2.91c-0.26.11-.528,0.21-0.8,0.3v4.11h0Zm-5.408-2.3,2.9-2.92a1.3,1.3,0,0,1-.3-0.7h-4.105a6.118,6.118,0,0,0,1.507,3.61v0.01Zm0.7,0.8a6.476,6.476,0,0,0,3.605,1.5v-4.12c-0.2-.1-0.5-0.2-0.7-0.3Zm51.367,11.18-0.567-.56-20.892,20.91,0.566,0.56Zm-21.05-.69-0.637-.64-13.1,13.12,0.637,0.63Zm-49.747-46.49v1.51h1.1a3.585,3.585,0,0,0,.7,1.7l-0.8.8,1.1,1.11,0.8-.81a3.539,3.539,0,0,0,1.7.71v1h1.5v-1a3.539,3.539,0,0,0,1.7-.71l0.7,0.71,1.1-1.11-0.7-.7a3.585,3.585,0,0,0,.7-1.7h1v-1.51h-1a3.627,3.627,0,0,0-.7-1.7l0.8-.7-1.1-1.1-0.7.7a3.752,3.752,0,0,0-1.7-.7v-1.01h-1.5v1.01a4.506,4.506,0,0,0-1.8.7l-0.7-.7-1.1,1.1,0.7,0.7a3.627,3.627,0,0,0-.7,1.7h-1.1Zm3.506,3.91a0.885,0.885,0,0,1-1.1-.5,0.751,0.751,0,0,1,.3-1.02,0.722,0.722,0,0,1,.2-0.08,0.855,0.855,0,1,1,.655,1.58,0.119,0.119,0,0,1-.054.02h0Zm4.506,0a0.885,0.885,0,0,1-1.1-.5,0.856,0.856,0,0,1,.494-1.1h0.006a0.855,0.855,0,0,1,.655,1.58,0.116,0.116,0,0,1-.053.02h0Zm-0.7-6.21a0.862,0.862,0,0,1,1.1.5,0.854,0.854,0,1,1-1.6.6h0a0.8,0.8,0,0,1,.41-1.06,0.346,0.346,0,0,1,.091-0.04h0Zm-0.5,1.7a1.947,1.947,0,0,1,.064,2.75l-0.064.06a2.056,2.056,0,1,1-2.9-2.91,2.408,2.408,0,0,1,2.9.1h0Zm-4.006-1.7a0.862,0.862,0,0,1,1.1.5,0.855,0.855,0,0,1-1.6.6h0a0.814,0.814,0,0,1,.412-1.07l0.088-.03h0Zm4.607,0.3a0.557,0.557,0,0,0-.3.5l0.9-.3a0.669,0.669,0,0,0-.6-0.2h0Zm0.4,1c0.2,0,.3-0.2.3-0.5l-0.9.3a0.623,0.623,0,0,0,.6.2h0Zm-3.506,2.91a1.49,1.49,0,1,0,0-2.11,1.459,1.459,0,0,0-.045,2.06c0.015,0.02.032,0.03,0.046,0.05h0Zm0.3-1.81a1.065,1.065,0,0,1,1.5,1.51,1.053,1.053,0,0,1-1.5,0,1.087,1.087,0,0,1,0-1.51h0Zm2.9,2.51a0.557,0.557,0,0,0-.3.5l0.9-.3a0.665,0.665,0,0,0-.6-0.2h0Zm-4.607-4.51a0.556,0.556,0,0,0-.3.5l0.9-.3a0.666,0.666,0,0,0-.6-0.2h0Zm5.008,5.51a0.545,0.545,0,0,0,.3-0.5l-0.9.3a0.624,0.624,0,0,0,.6.2h0Zm-4.607-4.61c0.2,0,.3-0.2.3-0.5l-0.9.3a0.624,0.624,0,0,0,.6.2h0Zm-0.3,3.61a0.554,0.554,0,0,0-.3.5l0.9-.3a0.666,0.666,0,0,0-.6-0.2h0Zm0.4,1a0.823,0.823,0,0,0,.3-0.5l-0.9.3a0.624,0.624,0,0,0,.6.2h0Zm23.135,48.63,2.2-2.21a2.365,2.365,0,0,0,0-3.31l-2.2-2.2a2.36,2.36,0,0,0-3.305,0l-2.2,2.2a2.365,2.365,0,0,0,0,3.31l2.2,2.21a2.363,2.363,0,0,0,3.307,0h0Zm-4.406-5.11,1.6-1.61a1.824,1.824,0,0,1,2.4,0l1.6,1.61a1.626,1.626,0,0,1,.094,2.3c-0.03.03-.062,0.07-0.094,0.1l-1.6,1.6a1.62,1.62,0,0,1-2.293.1c-0.037-.03-0.072-0.07-0.106-0.1l-1.6-1.6a1.638,1.638,0,0,1-.093-2.31c0.03-.03.062-0.06,0.1-0.09h0Zm3.606,3.4a1.33,1.33,0,0,0,1.3-1.3v-1.7a1.321,1.321,0,0,0-1.3-1.31h-1.7a1.321,1.321,0,0,0-1.3,1.31v1.7a1.33,1.33,0,0,0,1.3,1.3h1.7Zm-2.3-1.6v-1.2a0.9,0.9,0,0,1,.9-0.91h1.2a0.9,0.9,0,0,1,.9.91v1.2a0.9,0.9,0,0,1-.9.9h-1.2a0.91,0.91,0,0,1-.9-0.9h0Zm2.125,0.02a0.91,0.91,0,0,0,0-1.28,0.9,0.9,0,0,0-1.272,1.28,0.907,0.907,0,0,0,1.276,0h0Zm-3.927-3.93-1.2-1.2a0.354,0.354,0,0,1,.026-0.5,0.337,0.337,0,0,1,.474,0l1.2,1.2,0.7-.7-1.3-1.31a0.354,0.354,0,0,1,.025-0.5,0.338,0.338,0,0,1,.475,0l1.3,1.31,0.6-.61-6.609-6.62,2.3,10.94Zm-24.738-31.08a1.985,1.985,0,1,0,0-2.81,1.938,1.938,0,0,0-.068,2.74,0.386,0.386,0,0,0,.07.07h0Zm0.7-2.11a1.2,1.2,0,0,1,1.4,0,1,1,0,1,1-1.407.01s0.006,0,.01-0.01h0Zm-1.6-2,0.5,0.6a4.582,4.582,0,0,1,1.6-.6l-2.5-11.03-1.5,1.5,2.1,9.03a0.476,0.476,0,0,1-.2.5h0Zm-6.109,6.41-1.3-1.3-2.7,2.71-0.1.1,0.9,0.9,1.5-1.51,0.4,0.41,1.2,1.2a15.04,15.04,0,0,1,4.707-2.31l1.9-1.9a2.6,2.6,0,0,1-.123-3.68,1.283,1.283,0,0,1,.123-0.13l0.1-.1-0.5-.6c-0.1,0-.1.1-0.2,0.1a0.736,0.736,0,0,1-.6-0.5l-2-8.42-1.2,1.2,2.3,9.42Zm-6.411,4.91a3,3,0,0,0,4.256.05,0.22,0.22,0,0,0,.052-0.05,3.2,3.2,0,0,0,.5-3.4l-0.8.8a1.9,1.9,0,0,1-.5,1.9,1.982,1.982,0,1,1-2.854-2.75,0.261,0.261,0,0,0,.05-0.05,2.734,2.734,0,0,1,1.2-.61l1-1a3.168,3.168,0,0,0-2.9.8,3.028,3.028,0,0,0-.029,4.28l0.031,0.03h0Zm1.6-2.46a0.6,0.6,0,0,0,0,.85h0a0.593,0.593,0,0,0,.836.02,0.226,0.226,0,0,0,.013-0.02,0.6,0.6,0,0,0,0-.85h0a0.612,0.612,0,0,0-.852,0h0Z" transform="translate(-691.063 -1900.03)"/>
</svg>
