<svg xmlns="http://www.w3.org/2000/svg" width="70" height="70" viewBox="0 0 70 70">
  <defs>
    <style>
      .cls-1 {
        fill: #fff;
        fill-rule: evenodd;
      }
    </style>
  </defs>
  <path id="career-opportunity-new.svg" class="cls-1" d="M727.175,972.907a0.61,0.61,0,0,0,.508-0.271,0.607,0.607,0,0,0-.168-0.844l-8.9-5.934V955.485a0.609,0.609,0,1,0-1.218,0v10.373l-8.9,5.934a0.609,0.609,0,1,0,.676,1.012l8.831-5.888,8.831,5.889A0.609,0.609,0,0,0,727.175,972.907Zm-21.431-22.744,24.527,0a2.021,2.021,0,0,0,2.106-1.92V947a5.371,5.371,0,0,0-3.741-5.147l-4.3-1.119a1.994,1.994,0,0,1-1.013-.622l-0.082-.131,0-2.67,0.126-.154,0.018-.02a9.415,9.415,0,0,0,2.138-6.033V929.3l0.024-.078a15.478,15.478,0,0,0-.072-9.706l-0.033-.066-0.035-.053-0.038-.047-0.033-.036-0.045-.039-0.022-.015c-0.01-.007-0.02-0.015-0.032-0.022l-0.031-.018-0.024-.012-0.041-.019-0.061-.021-0.06-.014-0.062-.007-0.055,0-0.056,0-0.019,0a4.927,4.927,0,0,1-.694.047,15.3,15.3,0,0,1-3.385-.563,17.257,17.257,0,0,0-3.953-.63,5.723,5.723,0,0,0-3.469,1.057l-0.121.087-0.148.013c-2.136.183-3.628,2.007-3.628,4.436a32.155,32.155,0,0,0,1.117,6.2l0.019,0.069v1.028a9.78,9.78,0,0,0,2.107,6.124l0.119,0.148,0,2.827-0.084.132a1.973,1.973,0,0,1-1.029.624l-4.245,1.1-0.044.012a5.376,5.376,0,0,0-3.74,5.147v1.238A2.022,2.022,0,0,0,705.744,950.163Zm18.526-8.184,4.042,1.05A4.139,4.139,0,0,1,731.16,947v1.238a0.813,0.813,0,0,1-.889.7l-11.654,0v-3.628Zm-6.26,2.281-4.772-2.865,0.379-.479a1.694,1.694,0,0,0,.381-1.069l0-1.431,0.808,0.476a6.268,6.268,0,0,0,3.213.906,6.486,6.486,0,0,0,3.2-.844l0.8-.446,0,1.336a1.7,1.7,0,0,0,.4,1.094l0.4,0.485ZM710.774,925.1a10.713,10.713,0,0,1-.135-1.51c0-1.61.856-3.235,2.761-3.235l0.034,0h0.039l0.061-.009,0.05-.012,0.054-.018,0.066-.032,0.049-.029,0.021-.015c0.015-.012.029-0.023,0.037-0.028a4.581,4.581,0,0,1,3.011-.99,16.031,16.031,0,0,1,3.636.593,16.4,16.4,0,0,0,3.647.594l0.41,0,0.107,0.4a14.607,14.607,0,0,1,.291,5.6l-0.09.661-0.627-.229a35.223,35.223,0,0,0-11.822-1.972h-0.027l-0.05,0-0.07.011-0.041.009-0.055.019-0.019.009a0.514,0.514,0,0,0-.047.023l-0.042.025-0.051.037-0.026.022-0.021.021-0.042.047-0.032.043-0.019.03-0.029.057-0.731,1.893Zm1,5.785V930.5a14.994,14.994,0,0,1,.871-4.034l0.127-.372,0.393,0.009a34.315,34.315,0,0,1,10.78,1.953l0.351,0.129v2.923a8.182,8.182,0,0,1-2.089,5.52l-0.016.017a5.721,5.721,0,0,1-4.171,1.937C714.693,938.579,711.775,934.985,711.775,930.888ZM704.856,947a4.145,4.145,0,0,1,2.858-3.976l4.1-1.065,5.583,3.35v3.63l-11.655,0a0.812,0.812,0,0,1-.888-0.7V947Zm3.136,32.686-4.3-1.117a1.992,1.992,0,0,1-1.013-.621l-0.082-.131,0-2.67,0.136-.166a9.409,9.409,0,0,0,2.145-6.042v-1.811l0.024-.077a15.441,15.441,0,0,0-.068-9.7l-0.013-.026-0.026-.051-0.028-.044-0.036-.047-0.041-.042-0.044-.038-0.02-.015h0l-0.033-.023-0.045-.025-0.058-.027L704.433,957l-0.061-.014-0.059-.007-0.052,0h-0.022l-0.06,0a4.89,4.89,0,0,1-.694.046,15.236,15.236,0,0,1-3.383-.562,17.265,17.265,0,0,0-3.954-.63,5.715,5.715,0,0,0-3.468,1.057l-0.12.086-0.148.013c-2.137.184-3.629,2.008-3.629,4.437a32.077,32.077,0,0,0,1.118,6.2l0.018,0.068v1.028a9.781,9.781,0,0,0,2.107,6.123L692.145,975l0,2.827-0.082.131a1.964,1.964,0,0,1-1.029.626l-4.282,1.112A5.374,5.374,0,0,0,683,984.842v1.238a2.022,2.022,0,0,0,2.106,1.92h12.273l12.255,0a2.022,2.022,0,0,0,2.106-1.92v-1.238A5.388,5.388,0,0,0,707.992,979.69Zm-17.857-16.75a10.917,10.917,0,0,1-.134-1.509c0-1.61.854-3.235,2.755-3.235l0.036,0a0.386,0.386,0,0,0,.047,0l0.03,0,0.03,0,0.053-.013,0.05-.018,0.057-.026,0.055-.033,0.048-.035a4.582,4.582,0,0,1,3.022-1,16,16,0,0,1,3.635.593,16.481,16.481,0,0,0,3.648.594l0.409,0,0.107,0.395a14.552,14.552,0,0,1,.292,5.6l-0.09.661-0.626-.228a35.2,35.2,0,0,0-11.818-1.972h-0.03l-0.036,0-0.04,0-0.029,0-0.057.013-0.057.02-0.056.026-0.053.031-0.057.043a0.324,0.324,0,0,0-.033.031l-0.011.01-0.021.024-0.014.015-0.036.05-0.027.044-0.026.054-0.755,1.693Zm1,5.785v-0.391a14.977,14.977,0,0,1,.871-4.033l0.127-.372,0.394,0.009a34.315,34.315,0,0,1,10.779,1.952l0.351,0.13v2.923a8.184,8.184,0,0,1-2.09,5.52l-0.02.022a5.721,5.721,0,0,1-4.167,1.933C694.055,976.418,691.137,972.823,691.137,968.725Zm5.624,18.056-11.655,0a0.813,0.813,0,0,1-.888-0.7v-1.238a4.145,4.145,0,0,1,2.859-3.976l4.1-1.066,5.583,3.351v3.63Zm0.611-4.683-4.772-2.865,0.378-.479a1.693,1.693,0,0,0,.381-1.069l0-1.432,0.809,0.477a6.26,6.26,0,0,0,3.212.9,6.491,6.491,0,0,0,3.2-.843l0.8-.446,0,1.335a1.691,1.691,0,0,0,.4,1.094l0.4,0.485Zm13.15,3.442v0.537a0.813,0.813,0,0,1-.889.7H697.979v-3.627l5.653-3.338,4.042,1.05a4.139,4.139,0,0,1,2.848,3.973v0.7h0Zm38.73-5.85-4.3-1.117a1.985,1.985,0,0,1-1.013-.621l-0.083-.131,0-2.491,0.014-.2,0.121-.144a9.41,9.41,0,0,0,2.146-6.042v-1.811l0.023-.077a15.5,15.5,0,0,0-.068-9.7l-0.034-.068-0.038-.059-0.035-.045-0.023-.024a0.173,0.173,0,0,0-.023-0.021l-0.036-.032-0.028-.019-0.015-.013-0.062-.034-0.072-.03L745.7,957l-0.01,0-0.052-.012-0.067-.009-0.057,0-0.033,0-0.064.006a4.945,4.945,0,0,1-.674.044,15.253,15.253,0,0,1-3.384-.562,17.259,17.259,0,0,0-3.953-.631,5.717,5.717,0,0,0-3.469,1.058l-0.12.086-0.148.013c-2.137.184-3.629,2.008-3.629,4.437a32.17,32.17,0,0,0,1.117,6.2l0.019,0.069v1.027a9.787,9.787,0,0,0,2.107,6.125L733.405,975l0,2.826-0.082.131a1.965,1.965,0,0,1-1.03.626l-4.282,1.112a5.375,5.375,0,0,0-3.748,5.15v1.238a2.022,2.022,0,0,0,2.106,1.92h12.272l12.256,0a2.022,2.022,0,0,0,2.106-1.92v-1.238A5.385,5.385,0,0,0,749.252,979.69ZM731.4,962.94a10.916,10.916,0,0,1-.135-1.509c0-1.61.855-3.235,2.755-3.235l0.037,0a0.378,0.378,0,0,0,.046,0l0.059-.009,0.055-.014,0.059-.021,0.049-.023,0.053-.032,0.028-.02,0.03-.023a4.582,4.582,0,0,1,3.012-.99,16.057,16.057,0,0,1,3.635.592,16.406,16.406,0,0,0,3.648.595l0.41,0,0.107,0.395a14.6,14.6,0,0,1,.29,5.6l-0.089.661-0.627-.228A35.2,35.2,0,0,0,733,962.709h-0.03l-0.037,0h-0.018l-0.063.01-0.051.013-0.027.01a0.409,0.409,0,0,0-.045.018c-0.013.006-.027,0.012-0.041,0.02l-0.026.015a0.3,0.3,0,0,0-.032.02l-0.048.038a0.264,0.264,0,0,0-.028.026l-0.006,0-0.017.017-0.025.03-0.032.044-0.031.05-0.027.056-0.756,1.664Zm1,5.785v-0.391a14.986,14.986,0,0,1,.871-4.033l0.127-.372,0.393,0.009a34.323,34.323,0,0,1,10.78,1.952l0.351,0.13v2.923a8.188,8.188,0,0,1-2.092,5.523l-0.021.022a5.718,5.718,0,0,1-4.163,1.93C735.315,976.418,732.4,972.823,732.4,968.725Zm5.624,18.056-11.655,0a0.813,0.813,0,0,1-.888-0.7v-1.238a4.145,4.145,0,0,1,2.859-3.976l4.1-1.066,5.582,3.351v3.63Zm0.611-4.683-4.771-2.865,0.378-.479a1.7,1.7,0,0,0,.381-1.069l0-1.432,0.809,0.477a6.254,6.254,0,0,0,3.211.9,6.5,6.5,0,0,0,3.2-.843l0.8-.447v1.336a1.691,1.691,0,0,0,.4,1.094l0.4,0.485Zm13.15,3.979a0.812,0.812,0,0,1-.888.7H739.239v-3.627l5.654-3.338,4.041,1.05a4.139,4.139,0,0,1,2.848,3.973v1.238Zm-5.923-29h0Z" transform="translate(-683 -918)"/>
</svg>
