<svg xmlns="http://www.w3.org/2000/svg" width="25.88" height="23" viewBox="0 0 25.88 23">
  <defs>
    <style>
      .cls-1 {
        fill: #fff;
        fill-rule: evenodd;
      }
    </style>
  </defs>
  <path id="download-brochure.svg" class="cls-1" d="M1131.04,1199.85v16.43l-10.44-9.83a0.931,0.931,0,0,0-1.28,0,0.813,0.813,0,0,0,0,1.21l11.99,11.27a0.83,0.83,0,0,0,.3.18h0.02a0.881,0.881,0,0,0,.33.06,0.9,0.9,0,0,0,.34-0.06h0.02a0.923,0.923,0,0,0,.3-0.18l11.99-11.27a0.813,0.813,0,0,0,0-1.21,0.931,0.931,0,0,0-1.28,0l-10.48,9.81v-16.41A0.907,0.907,0,0,0,1131.04,1199.85ZM1119.95,1222h23.99a0.851,0.851,0,1,0,0-1.7h-23.99a0.87,0.87,0,0,0-.91.85A0.89,0.89,0,0,0,1119.95,1222Z" transform="translate(-1119.03 -1199)"/>
</svg>
