<svg xmlns="http://www.w3.org/2000/svg" width="102.938" height="103.79" viewBox="0 0 102.938 103.79">
  <defs>
    <style>
      .cls-1 {
        fill: #00cfb4;
        fill-rule: evenodd;
      }
    </style>
  </defs>
  <path id="emiratisation-new2.svg" class="cls-1" d="M526.992,1427.37a51.17,51.17,0,0,0-72.778-.18,52.2,52.2,0,0,0-.177,73.39,51.17,51.17,0,0,0,72.778.18A52.2,52.2,0,0,0,526.992,1427.37Zm-36.3,87.61a51.007,51.007,0,0,1,.006-102.01c27.934,0,50.579,22.84,50.579,51.01A50.831,50.831,0,0,1,490.688,1514.98Zm-16.543-39.53c0.1,0.58,1.442,5.56,16.838,5.56,15.834,0,16.811-5.39,16.844-5.61,0.618-6.64-.7-10.55-4.011-11.95l-0.109-.05-3.341-13.85-0.015-.05a1.033,1.033,0,0,0-.186-0.35l-0.109-.14,0.088-.14a0.638,0.638,0,0,0,.109-0.42v-0.07l0.22-.15-0.225-.16v-0.06a0.779,0.779,0,0,0-.114-0.37l-0.086-.14,0.055-.13a0.6,0.6,0,0,0,.045-0.37,0.68,0.68,0,0,1-.006-0.09v-0.26q0-.06-0.006-0.12a1.087,1.087,0,0,0-.4-0.76l-0.02-.02-0.034-.04v-0.15a8.717,8.717,0,0,0-17.4,0v0.12l-0.1.07a1.121,1.121,0,0,0-.475.91v0.26a0.97,0.97,0,0,0,.149.45l0.113,0.15-0.06.11a0.626,0.626,0,0,0-.051.11l-0.053.14-0.073-.05v0.59a0.675,0.675,0,0,0,.1.45l0.1,0.14-0.1.14c-0.051.08-.1,0.15-0.141,0.23l-0.013.02-0.008.03c-0.009.03-.016,0.05-0.025,0.09a0.534,0.534,0,0,1-.032.08l-0.008.02-3.331,13.78-0.109.05c-3.319,1.4-4.633,5.3-4.015,11.95Zm28.688-11.75,0.026,0.06,0.627,2.6-3.813,2.65-1.207-11.97-0.023-.05c-0.015-.03-0.028-0.06-0.039-0.08l-0.019-.05,0.007-.06a5.177,5.177,0,0,0,.015-0.61v-5.28l0.2-.03a3.842,3.842,0,0,0,.819-0.2l0.24-.09Zm-19.676-18.83a7.944,7.944,0,0,1,15.649,0l0.038,0.35-0.325-.09a5.337,5.337,0,0,0-.683-0.14,58.242,58.242,0,0,0-13.713,0,5.243,5.243,0,0,0-.679.14l-0.325.09Zm-0.323,2.21a0.335,0.335,0,0,1-.212-0.33c0-.42,1-0.75,1.676-0.84a55.862,55.862,0,0,1,13.429,0c0.436,0.06,1.68.35,1.68,0.87a0.349,0.349,0,0,1-.245.3,0.459,0.459,0,0,0-.246.42,0.488,0.488,0,0,0,.271.43,1.314,1.314,0,0,1,.179.1l0.283,0.2-0.285.19a1.412,1.412,0,0,1-.341.17,0.469,0.469,0,0,0-.3.45,0.574,0.574,0,0,0,.232.46l0.516,0.3-0.666.19c-0.034.01-.071,0.02-0.115,0.03a2.322,2.322,0,0,1-.69.13H483.96a2.373,2.373,0,0,1-.7-0.13l-0.118-.03-0.662-.18,0.517-.31a0.538,0.538,0,0,0,.233-0.44,0.493,0.493,0,0,0-.3-0.46,1.425,1.425,0,0,1-.343-0.17l-0.247-.17,0.293-.23c0.027-.02.049-0.04,0.073-0.06a0.135,0.135,0,0,1,.055-0.04,0.46,0.46,0,0,0,.262-0.42,0.427,0.427,0,0,0-.192-0.43h0Zm8.084,15.72a6.627,6.627,0,0,1-6.444-6.49c0-.12-0.008-0.24-0.008-0.35v-4.86h12.9v4.86a6.668,6.668,0,0,1-6.453,6.84h0Zm4.411-.48-0.2.6a34.3,34.3,0,0,1-3.962,8.31l-0.19.29-0.191-.29a34.259,34.259,0,0,1-3.961-8.31l-0.2-.6,0.532,0.32a7.2,7.2,0,0,0,7.631,0Zm-13.007-11.73,0.354,0.14a1.681,1.681,0,0,0,.7.15l0.174,0.01v5.07a0.376,0.376,0,0,0,.027.13l-0.1-.06-0.111.09,0.228,0.03a0.252,0.252,0,0,0,.028.14l0.013,0.03-0.011.13a1.782,1.782,0,0,0-.01.35v0.06l-0.019.05c-0.009.02-.022,0.05-0.041,0.09l-0.022.04-1.225,11.97-3.8-2.65Zm-4.849,14.32,0.512-.38-0.463,1.92a0.475,0.475,0,0,0,.187.5l4.7,3.26a0.444,0.444,0,0,0,.249.08,0.426,0.426,0,0,0,.191-0.04,0.48,0.48,0,0,0,.257-0.38l1.069-10.6,0.355,0.63a7.7,7.7,0,0,0,.81,1.16l0.05,0.06,0.007,0.08a0.221,0.221,0,0,0,.012.07,34.924,34.924,0,0,0,5.208,11.32,0.434,0.434,0,0,0,.6.13,0.414,0.414,0,0,0,.13-0.13,34.926,34.926,0,0,0,5.209-11.32,0.293,0.293,0,0,0,.012-0.08l0.007-.07,0.049-.06a8,8,0,0,0,.81-1.16l0.356-.63,1.069,10.6a0.478,0.478,0,0,0,.257.38,0.426,0.426,0,0,0,.191.04,0.454,0.454,0,0,0,.252-0.08l4.7-3.26a0.475,0.475,0,0,0,.193-0.5L504,1464.52l0.545,0.39c2.126,1.6,2.948,4.95,2.513,10.26l-0.006.06-0.055.04-0.013.04c-0.056.2-1.539,4.76-16,4.76-14.208,0-15.809-4.27-15.946-4.75l-0.006-.03v-0.01c-0.494-5.37.307-8.76,2.446-10.37h0Zm34.538,2.91-0.122-.01v1.01l0.107,0.01a6.3,6.3,0,0,1,5.654,6.37v9.64H463.725v-9.64a6.3,6.3,0,0,1,5.655-6.37l0.106-.01v-1.01l-0.122.01a7.16,7.16,0,0,0-6.561,7.38v15.39h0.922v-4.79h54.157v4.79h0.691V1475.2a7.16,7.16,0,0,0-6.561-7.38h0Z" transform="translate(-439.031 -1412.09)"/>
</svg>
