<svg xmlns="http://www.w3.org/2000/svg" width="110" height="28" viewBox="0 0 110 28">
  <defs>
    <style>
      .cls-1 {
        fill: #ebeff3;
        fill-rule: evenodd;
      }
    </style>
  </defs>
  <path id="motorists.svg" class="cls-1" d="M1285.08,35.5a3.045,3.045,0,0,0-1.3-.9,5.023,5.023,0,0,0-3.42,0,3.941,3.941,0,0,0-1.31.9,4.2,4.2,0,0,0-.9,1.4,5.55,5.55,0,0,0,0,3.6,4.2,4.2,0,0,0,.9,1.4,3.141,3.141,0,0,0,1.31.9,5.024,5.024,0,0,0,3.42,0,3.805,3.805,0,0,0,1.3-.9,4.224,4.224,0,0,0,.91-1.4,5.55,5.55,0,0,0,0-3.6A4.224,4.224,0,0,0,1285.08,35.5Zm-0.2,4.6a2.075,2.075,0,0,1-.6,1,1.586,1.586,0,0,1-.91.7,5.019,5.019,0,0,1-1.2.2,2.6,2.6,0,0,1-1.21-.2,5.5,5.5,0,0,1-.9-0.7,2.075,2.075,0,0,1-.6-1,4.468,4.468,0,0,1,0-2.8,2.075,2.075,0,0,1,.6-1,1.6,1.6,0,0,1,.9-0.7,5.184,5.184,0,0,1,1.21-.2,2.537,2.537,0,0,1,1.2.2,5.157,5.157,0,0,1,.91.7,2.075,2.075,0,0,1,.6,1A6.608,6.608,0,0,1,1284.88,40.1Zm1.71-4.7h2.81V43h1.21V35.4h2.81v-1h-6.83v1Zm-11.75-.7-2.92,5.2a0.53,0.53,0,0,0-.2.3c0,0.1-.1.2-0.1,0.3-0.1-.2-0.2-0.5-0.3-0.7l-2.91-5.2a0.215,0.215,0,0,0-.2-0.2H1267V43h1.11V36.2l3.01,5.3a0.349,0.349,0,0,0,.4.3h0.1c0.1,0,.2-0.1.3-0.1a0.215,0.215,0,0,0,.2-0.2l2.92-5.3V43h1.2V34.5h-1.2A0.215,0.215,0,0,0,1274.84,34.7Zm9.24-6.8a3.045,3.045,0,0,0,1.3.9,5.023,5.023,0,0,0,3.42,0,3.941,3.941,0,0,0,1.31-.9,4.2,4.2,0,0,0,.9-1.4,5.663,5.663,0,0,0,.3-1.8,4.075,4.075,0,0,0-.5-1.8,4.073,4.073,0,0,0-.91-1.4,3.045,3.045,0,0,0-1.3-.9,5.023,5.023,0,0,0-3.42,0,3.805,3.805,0,0,0-1.3.9,4.073,4.073,0,0,0-.91,1.4,5.55,5.55,0,0,0,0,3.6A3.028,3.028,0,0,0,1284.08,27.9Zm0.3-4.6a2.075,2.075,0,0,1,.6-1,1.586,1.586,0,0,1,.91-0.7,5.019,5.019,0,0,1,1.2-.2,2.6,2.6,0,0,1,1.21.2,5.5,5.5,0,0,1,.9.7,2.075,2.075,0,0,1,.6,1,6.753,6.753,0,0,1,.2,1.4,3.194,3.194,0,0,1-.3,1.4,2.075,2.075,0,0,1-.6,1,1.6,1.6,0,0,1-.9.7,5.184,5.184,0,0,1-1.21.2,1.978,1.978,0,0,1-1.1-.2,5.157,5.157,0,0,1-.91-0.7,2.075,2.075,0,0,1-.6-1A4.468,4.468,0,0,1,1284.38,23.3Zm16.67,12.2a3.045,3.045,0,0,0-1.3-.9,5.023,5.023,0,0,0-3.42,0,3.805,3.805,0,0,0-1.3.9,4.224,4.224,0,0,0-.91,1.4,5.55,5.55,0,0,0,0,3.6,4.224,4.224,0,0,0,.91,1.4,3.045,3.045,0,0,0,1.3.9,5.024,5.024,0,0,0,3.42,0,3.805,3.805,0,0,0,1.3-.9,4.073,4.073,0,0,0,.91-1.4,5.55,5.55,0,0,0,0-3.6A4.073,4.073,0,0,0,1301.05,35.5Zm-0.3,4.6a2.075,2.075,0,0,1-.6,1,1.6,1.6,0,0,1-.9.7,5.184,5.184,0,0,1-1.21.2,2.537,2.537,0,0,1-1.2-.2,5.157,5.157,0,0,1-.91-0.7,2.075,2.075,0,0,1-.6-1,4.468,4.468,0,0,1,0-2.8,2.075,2.075,0,0,1,.6-1,1.586,1.586,0,0,1,.91-0.7,5.019,5.019,0,0,1,1.2-.2,2.6,2.6,0,0,1,1.21.2,5.5,5.5,0,0,1,.9.7,2.075,2.075,0,0,1,.6,1A4.468,4.468,0,0,1,1300.75,40.1Zm4.32-14.8h3.52v-1h-3.52V21.4h4.12v-1h-5.32V29h1.2V25.3ZM1272.42,28h-4.11V25.2h3.31v-1h-3.31V21.4h4.11v-1H1267V29h5.42V28Zm2.62-5V22.4l5.02,6.3a0.215,0.215,0,0,0,.2.2c0,0.1.1,0.1,0.2,0.1h0.6V20.4h-1.1V27l-4.82-6.4a0.215,0.215,0,0,0-.2-0.2h-0.91V29h1.01V23Zm21.39,6.1a2.9,2.9,0,0,0,1.81-.3,6.485,6.485,0,0,0,1.31-1l-0.5-.5c0-.1-0.1-0.1-0.21-0.1s-0.1,0-.1.1l-0.1.1c-0.1.1-.3,0.2-0.4,0.3a0.764,0.764,0,0,1-.5.2c-0.2,0-.4.1-0.6,0.1h-0.71a2.663,2.663,0,0,1-1.2-.3,6.007,6.007,0,0,1-.91-0.7,2.075,2.075,0,0,1-.6-1,4.468,4.468,0,0,1,0-2.8,2.075,2.075,0,0,1,.6-1,1.652,1.652,0,0,1,.91-0.7,5.019,5.019,0,0,1,1.2-.2,2.8,2.8,0,0,1,.91.1l0.6,0.3a1.38,1.38,0,0,1,.4.3,0.367,0.367,0,0,0,.3.1h0.2l0.11-.1,0.4-.6a2.581,2.581,0,0,0-1.21-.8,4.161,4.161,0,0,0-1.61-.3,4.671,4.671,0,0,0-1.7.3,3.749,3.749,0,0,0-1.31.9,4.2,4.2,0,0,0-.9,1.4,5.55,5.55,0,0,0,0,3.6,3.924,3.924,0,0,0,.8,1.4,3.749,3.749,0,0,0,1.31.9A5.547,5.547,0,0,0,1296.43,29.1Zm36.07,9.8a2.419,2.419,0,0,0-.71-0.4c-0.3-.1-0.5-0.2-0.8-0.3s-0.5-.2-0.8-0.3c-0.2-.1-0.51-0.2-0.71-0.3a1,1,0,0,1-.5-0.4,1.421,1.421,0,0,1-.2-0.6,0.9,0.9,0,0,1,.1-0.5c0.1-.1.2-0.3,0.3-0.4,0.2-.1.3-0.2,0.5-0.3a1.773,1.773,0,0,1,.71-0.1c0.3,0,.5.1,0.7,0.1a2.01,2.01,0,0,1,.8.4c0,0.1.11,0.1,0.21,0.1h0.2c0.1,0,.1,0,0.1-0.1l0.3-.6a4.032,4.032,0,0,0-1.11-.7,5.853,5.853,0,0,0-1.3-.2,4.326,4.326,0,0,0-1.11.2,2.1,2.1,0,0,0-1.3,1.3,2.92,2.92,0,0,0-.2.9,3.553,3.553,0,0,0,.2,1,3.039,3.039,0,0,0,.5.7,1.612,1.612,0,0,0,.7.4,6.465,6.465,0,0,0,.81.3,2.353,2.353,0,0,1,.8.2c0.2,0.1.5,0.2,0.7,0.3a1,1,0,0,1,.5.4,1.315,1.315,0,0,1,.21.6c0,0.2-.1.4-0.1,0.6a0.56,0.56,0,0,1-.31.5c-0.2.1-.3,0.2-0.5,0.3a1.7,1.7,0,0,1-.7.1,2.283,2.283,0,0,1-.81-0.1l-0.6-.3a1.38,1.38,0,0,1-.4-0.3,0.367,0.367,0,0,0-.3-0.1h-0.2l-0.1.1-0.4.6a1.205,1.205,0,0,0,.5.5,2.092,2.092,0,0,0,.6.4c0.2,0.1.5,0.1,0.7,0.2a2.283,2.283,0,0,0,.81.1,5.019,5.019,0,0,0,1.2-.2c0.3-.2.61-0.4,0.91-0.6a1.8,1.8,0,0,0,.6-0.9,4.253,4.253,0,0,0,.2-1.1,2.92,2.92,0,0,0-.2-0.9C1332.8,39.3,1332.7,39.1,1332.5,38.9Zm-10.95-13.4h0.9c0.1,0,.3.1,0.4,0.1a0.215,0.215,0,0,1,.2.2l2.21,3a0.576,0.576,0,0,0,.51.3h1.1l-2.51-3.4a0.781,0.781,0,0,0-.4-0.4,1.613,1.613,0,0,0,.9-0.3,1.829,1.829,0,0,0,.71-0.5,1.612,1.612,0,0,0,.4-0.7,2.769,2.769,0,0,0,.1-0.9,3.553,3.553,0,0,0-.2-1,1.523,1.523,0,0,0-.61-0.8,3.128,3.128,0,0,0-1-.5,6.751,6.751,0,0,0-1.41-.2h-2.51V29h1.21V25.5Zm0-4.1h1.2a2.159,2.159,0,0,1,1.51.4,1.606,1.606,0,0,1,.5,1.1,1.7,1.7,0,0,1-.1.7,1,1,0,0,1-.4.5l-0.6.3a2.829,2.829,0,0,1-.91.1h-1.2V21.4Zm-1.01,14h2.82V43h1.2V35.4h2.71v-1h-6.73v1Zm-13.06,3.9a1.619,1.619,0,0,0,.91-0.3,1.794,1.794,0,0,0,.7-0.5,1.612,1.612,0,0,0,.4-0.7,2.769,2.769,0,0,0,.1-0.9,3.553,3.553,0,0,0-.2-1,1.555,1.555,0,0,0-.6-0.8,3.128,3.128,0,0,0-1-.5,6.943,6.943,0,0,0-1.41-.2h-2.51V43h1.2V39.5h0.91c0.1,0,.3.1,0.4,0.1a0.215,0.215,0,0,1,.2.2l2.21,3a0.55,0.55,0,0,0,.5.3h1.11l-2.51-3.4A0.8,0.8,0,0,0,1307.48,39.3Zm-1.2-.8h-1.21V35.4h1.21a2.879,2.879,0,0,1,1.51.4,1.606,1.606,0,0,1,.5,1.1,1.7,1.7,0,0,1-.1.7,1,1,0,0,1-.4.5c-0.21.1-.41,0.2-0.61,0.3A2.769,2.769,0,0,1,1306.28,38.5Zm33.85,7.5h1.01V18h-1.01V46Zm-28.63-3h1.21V34.4h-1.21V43Zm7.94-4.1a2.506,2.506,0,0,0-.7-0.4c-0.31-.1-0.51-0.2-0.81-0.3s-0.5-.2-0.8-0.3c-0.2-.1-0.5-0.2-0.71-0.3a1,1,0,0,1-.5-0.4,1.421,1.421,0,0,1-.2-0.6,0.9,0.9,0,0,1,.1-0.5c0.1-.1.2-0.3,0.3-0.4,0.2-.1.3-0.2,0.51-0.3a1.7,1.7,0,0,1,.7-0.1c0.3,0,.5.1,0.7,0.1a2.123,2.123,0,0,1,.81.4c0,0.1.1,0.1,0.2,0.1h0.2c0.1,0,.1,0,0.1-0.1l0.3-.6a4.032,4.032,0,0,0-1.11-.7,5.853,5.853,0,0,0-1.3-.2,4.4,4.4,0,0,0-1.11.2,2.1,2.1,0,0,0-1.3,1.3,2.92,2.92,0,0,0-.2.9,3.553,3.553,0,0,0,.2,1,3.039,3.039,0,0,0,.5.7,1.612,1.612,0,0,0,.7.4,7.12,7.12,0,0,0,.81.3,2.353,2.353,0,0,1,.8.2c0.2,0.1.5,0.2,0.7,0.3a1.023,1.023,0,0,1,.51.4,1.421,1.421,0,0,1,.2.6c0,0.2-.1.4-0.1,0.6a0.542,0.542,0,0,1-.31.5c-0.2.1-.3,0.2-0.5,0.3a1.7,1.7,0,0,1-.7.1,2.2,2.2,0,0,1-.8-0.1c-0.21-.1-0.41-0.2-0.61-0.3a1.38,1.38,0,0,1-.4-0.3,0.367,0.367,0,0,0-.3-0.1h-0.2l-0.1.1-0.4.6a1.205,1.205,0,0,0,.5.5,2.092,2.092,0,0,0,.6.4c0.2,0.1.5,0.1,0.7,0.2a2.283,2.283,0,0,0,.81.1,5.019,5.019,0,0,0,1.2-.2c0.31-.2.61-0.4,0.91-0.6a1.8,1.8,0,0,0,.6-0.9,4.253,4.253,0,0,0,.2-1.1,2.92,2.92,0,0,0-.2-0.9C1319.74,39.3,1319.64,39.1,1319.44,38.9Zm-2.01-11a4.2,4.2,0,0,0,.9-1.4,5.422,5.422,0,0,0,0-3.6,4.2,4.2,0,0,0-.9-1.4,3.018,3.018,0,0,0-1.31-.9,5,5,0,0,0-3.41,0,3.843,3.843,0,0,0-1.31.9,4.2,4.2,0,0,0-.9,1.4,5.55,5.55,0,0,0,0,3.6,4.2,4.2,0,0,0,.9,1.4,3.078,3.078,0,0,0,1.31.9,5,5,0,0,0,3.41,0A3.749,3.749,0,0,0,1317.43,27.9Zm-3.01.1a5.851,5.851,0,0,1-1.31-.2,5.5,5.5,0,0,1-.9-0.7,2.02,2.02,0,0,1-.61-1,4.468,4.468,0,0,1,0-2.8,2.02,2.02,0,0,1,.61-1,2.178,2.178,0,0,1,.9-0.7,3.2,3.2,0,0,1,1.41-.2,2.537,2.537,0,0,1,1.2.2,6.007,6.007,0,0,1,.91.7,2.075,2.075,0,0,1,.6,1,6.753,6.753,0,0,1,.2,1.4,3.194,3.194,0,0,1-.3,1.4,2.075,2.075,0,0,1-.6,1,1.652,1.652,0,0,1-.91.7A5.019,5.019,0,0,1,1314.42,28Zm48.52-10A14,14,0,1,0,1377,32,14.075,14.075,0,0,0,1362.94,18Zm0,27.1A13.1,13.1,0,1,1,1376.1,32,13.171,13.171,0,0,1,1362.94,45.1Zm0-24.1a11,11,0,1,0,11.05,11A10.992,10.992,0,0,0,1362.94,21Zm0,1a9.9,9.9,0,0,1,9.44,6.7,21.968,21.968,0,0,0-9.54-2.3,20.664,20.664,0,0,0-9.35,2.2A9.959,9.959,0,0,1,1362.94,22Zm-3.02,19.6a9.9,9.9,0,0,1-6.63-6.7H1354c1.2,0,3.51.3,4.72,1.9A7.521,7.521,0,0,1,1359.92,41.6Zm5.93,0a7.193,7.193,0,0,1,1.31-4.8c1.2-1.7,3.51-1.9,4.72-1.9h0.7A10.225,10.225,0,0,1,1365.85,41.6Zm5.83-8.1c-1.41,0-4.02.3-5.53,2.4a8.42,8.42,0,0,0-1.51,5.7,2.543,2.543,0,0,1-1.7.4,6.837,6.837,0,0,1-2.01-.2,8.92,8.92,0,0,0-1.41-5.7c-1.51-2.1-4.12-2.4-5.52-2.4h-1.01a11.019,11.019,0,0,1-.2-1.8,13.552,13.552,0,0,1,.2-2,0.1,0.1,0,0,0,.1-0.1,20.027,20.027,0,0,1,5.63-2.2,17.31,17.31,0,0,1,3.91-.4,21.463,21.463,0,0,1,10.05,2.6,12.31,12.31,0,0,1,.2,2,11.019,11.019,0,0,1-.2,1.8C1372.48,33.6,1372.08,33.5,1371.68,33.5Zm-8.74-3.6a2.1,2.1,0,1,0,0,4.2,2.059,2.059,0,0,0,2.11-2.1A2.121,2.121,0,0,0,1362.94,29.9Zm0,3.2a1.1,1.1,0,1,1,1.1-1.1A1.112,1.112,0,0,1,1362.94,33.1Z" transform="translate(-1267 -18)"/>
</svg>
