<svg xmlns="http://www.w3.org/2000/svg" width="138" height="101.66" viewBox="0 0 138 101.66">
  <defs>
    <style>
      .cls-1 {
        fill: #26d07c;
        fill-rule: evenodd;
      }
    </style>
  </defs>
  <path id="exploration-icon.svg" class="cls-1" d="M373.4,2092.23l-1.322-2.05-0.391-.49-0.45-.46-0.509-.4-0.5-.35-0.557-.29-0.558-.23-0.578-.19-0.587-.14-0.6-.08-0.587-.04-0.587.02-0.578.05-0.557.12-0.617.21a3.492,3.492,0,0,1-.43.18l-1.449.58-0.617-2.01a1.71,1.71,0,0,0-.1-0.23,1.359,1.359,0,0,1-.117-0.25,1.577,1.577,0,0,0-.127-0.22,1.651,1.651,0,0,1-.127-0.18,1.416,1.416,0,0,0-.206-0.27l-0.088-.11a2.807,2.807,0,0,0-.3-0.28l-0.059-.05a2.382,2.382,0,0,0-.411-0.31,2.8,2.8,0,0,0-.47-0.26,3.125,3.125,0,0,0-.5-0.23,2.606,2.606,0,0,0-.539-0.18,2.917,2.917,0,0,0-.577-0.15,3.916,3.916,0,0,0-.587-0.11c-0.2-.03-0.4-0.04-0.607-0.05a6.166,6.166,0,0,0-1.214.04h-0.049c-0.144.02-.288,0.04-0.43,0.07l-0.157.04a1.038,1.038,0,0,0-.342.09,1.75,1.75,0,0,1-.3.09l-1.546.39,1.321-1.19a4.016,4.016,0,0,1,.45-0.38,7.719,7.719,0,0,1,.676-0.39,7.368,7.368,0,0,1,1.438-.5,4.775,4.775,0,0,1,.754-0.12,5,5,0,0,1,.773-0.05,5.123,5.123,0,0,1,.783.03,4.137,4.137,0,0,1,.783.11,5.255,5.255,0,0,1,.783.22,4.2,4.2,0,0,1,.764.32,4.1,4.1,0,0,1,.734.42,4.767,4.767,0,0,1,.675.55l0.088,0.08a3.562,3.562,0,0,1,.519.57,1.213,1.213,0,0,0,.127.17,3.7,3.7,0,0,1,.362.57l0.088,0.15a1.882,1.882,0,0,0,.235-0.06c0.294-.05.568-0.1,0.842-0.14l0.225-.01c0.2-.02.411-0.03,0.626-0.03l0.216,0.01c0.2,0.01.411,0.02,0.616,0.04l0.176,0.02c0.216,0.04.441,0.07,0.656,0.12l0.822,0.22,0.734,0.29,0.734,0.39,0.216,0.14c0.166,0.11.322,0.22,0.479,0.33l0.646,0.57,0.558,0.62,0.47,0.68,0.107,0.2c0.088,0.17.177,0.34,0.255,0.5l0.264,0.82,0.039,0.23,0.088,0.53Zm-6.626-5.53,0.665,0.05,0.656,0.1,0.646,0.15,0.636,0.2,0.627,0.27,0.646,0.34,0.538,0.37,0.567,0.45-0.4-.59-0.5-.53-0.577-.5c-0.118-.09-0.265-0.19-0.412-0.29l-0.2-.12c-0.2-.11-0.421-0.23-0.656-0.34l-0.675-.28-0.744-.2c-0.176-.03-0.382-0.07-0.587-0.1l-0.147-.02c-0.176-.02-0.372-0.03-0.568-0.04l-0.2-.01c-0.167.01-.363,0.02-0.558,0.03l-0.2.01c-0.235.04-.489,0.08-0.754,0.13-0.127.04-.283,0.08-0.44,0.12l-0.372.12-0.147-.3a1.842,1.842,0,0,0-.127-0.26l-0.1-.2a3.106,3.106,0,0,0-.284-0.43c-0.058-.07-0.107-0.13-0.156-0.2a2.354,2.354,0,0,0-.4-0.44l-0.107-.1a2.831,2.831,0,0,0-.558-0.44l-0.039-.03a3.541,3.541,0,0,0-.617-0.36,3.86,3.86,0,0,0-.665-0.27,4.128,4.128,0,0,0-.695-0.2,5.411,5.411,0,0,0-.695-0.1,3.14,3.14,0,0,0-.685-0.02,4.041,4.041,0,0,0-.695.04,3.745,3.745,0,0,0-.666.1c-0.192.05-.381,0.1-0.567,0.16a3.707,3.707,0,0,1,.577.02,4.792,4.792,0,0,1,.656.05,3.675,3.675,0,0,1,.656.12,4.49,4.49,0,0,1,.626.15,4.436,4.436,0,0,1,.617.22,3.069,3.069,0,0,1,.577.25,3.593,3.593,0,0,1,.539.32,2.632,2.632,0,0,1,.5.38l0.029,0.03a1.751,1.751,0,0,1,.411.4l0.069,0.06a1.893,1.893,0,0,1,.3.41c0.02,0.02.049,0.07,0.078,0.11a1.234,1.234,0,0,1,.235.41c0.02,0.05.049,0.1,0.078,0.16a2.725,2.725,0,0,1,.147.36l0.372,1.19,0.666-.26c0.137-.05.264-0.11,0.391-0.17l0.177-.07,0.577-.18,0.626-.14,0.646-.07Zm-10.943-3.28-0.009-.15v0.01l0.009,0.14-0.019-.14Zm49.778,18.52-0.078-1.44a2.156,2.156,0,0,1,0-.44,4.16,4.16,0,0,1,.088-0.57,2.32,2.32,0,0,1,.166-0.54q0.094-.255.216-0.51c0.078-.15.176-0.32,0.274-0.48a4.7,4.7,0,0,1,.333-0.46l0.195-.22,0.372-.38,0.45-.36a1.478,1.478,0,0,0,.186-0.13l0.078-.04a2.31,2.31,0,0,1,.549-0.29,3.856,3.856,0,0,1,.577-0.22,2.6,2.6,0,0,1,.617-0.11l0.078-.01a1.863,1.863,0,0,1,.577-0.02c0.03,0,.079.01,0.137,0.01a1.906,1.906,0,0,1,.412.04c0.1-.18.2-0.35,0.3-0.5l0.108-.15c0.088-.12.176-0.23,0.274-0.34l0.1-.11c0.108-.11.216-0.22,0.333-0.33l0.088-.08c0.127-.11.245-0.22,0.372-0.31l0.529-.35,0.489-.25c0.206-.09.382-0.16,0.558-0.22l0.186-.05c0.127-.03.254-0.07,0.391-0.1l0.617-.09h0.568l0.146,0.02c0.147,0.02.284,0.03,0.431,0.06l0.2,0.05c0.127,0.03.254,0.07,0.381,0.11l0.137,0.06c0.128,0.06.255,0.11,0.372,0.17l0.167,0.12a2.245,2.245,0,0,1,.323.22l1.047,0.79-1.3-.07-0.323-.03-0.186-.02-0.411.01-0.44.05-0.4.08-0.392.13-0.372.16-0.352.19c-0.1.07-.215,0.15-0.323,0.22l-0.323.24-0.294.28-0.264.28-0.235.29-0.215.32c-0.02.03-.039,0.08-0.069,0.13-0.039.07-.068,0.13-0.107,0.19l-0.147.36c-0.039.11-.069,0.22-0.108,0.34l-0.469,1.28-1.214-.52c-0.118-.05-0.235-0.1-0.343-0.15a0.568,0.568,0,0,0-.127-0.04,0.632,0.632,0,0,1-.186-0.06c-0.029-.01-0.078-0.01-0.117-0.02a0.833,0.833,0,0,1-.157-0.02,1.034,1.034,0,0,0-.176-0.01h-0.108a1.863,1.863,0,0,0-.235.02l-0.058.01a1.678,1.678,0,0,0-.314.07,1.112,1.112,0,0,0-.3.1l-0.1.04-0.1.03-0.489.27a3.713,3.713,0,0,0-.313.21c-0.118.09-.215,0.17-0.313,0.26-0.118.1-.216,0.18-0.3,0.27a3.886,3.886,0,0,0-.284.29c-0.088.11-.156,0.2-0.225,0.3l-0.039.05a2.115,2.115,0,0,0-.176.25l-0.069.12a1.321,1.321,0,0,0-.1.18,1.729,1.729,0,0,1-.108.22Zm6.851-5.75,0.245-.36,0.274-.35,0.313-.33,0.343-.31,0.391-.31c0.108-.07.215-0.13,0.323-0.21l0.059-.03,0.382-.21,0.44-.19,0.617-.19h-0.04l-0.1-.01h-0.5l-0.509.07c-0.088.02-.2,0.06-0.323,0.09l-0.166.05c-0.137.05-.294,0.11-0.46,0.17l-0.44.24-0.451.29c-0.1.08-.2,0.18-0.322,0.27l-0.069.06-0.294.3-0.078.09c-0.068.07-.147,0.18-0.235,0.29l-0.088.13a4.546,4.546,0,0,0-.274.44c-0.019.03-.039,0.08-0.068,0.14l-0.167.36-0.372-.07a0.542,0.542,0,0,0-.176-0.04,1.328,1.328,0,0,0-.342-0.05,1.051,1.051,0,0,1-.177-0.01,1.8,1.8,0,0,0-.4.02l-0.1.01a3.712,3.712,0,0,0-.47.09l-0.039.01a3.472,3.472,0,0,0-.45.17,2.4,2.4,0,0,0-.43.23l-0.088.05a1.481,1.481,0,0,0-.137.09l-0.392.31-0.333.34-0.147.19a2.637,2.637,0,0,0-.274.37,4.162,4.162,0,0,0-.235.4c-0.009.02-.009,0.03-0.019,0.05a0.3,0.3,0,0,0,.039-0.04c0.117-.11.235-0.22,0.343-0.31a4.411,4.411,0,0,1,.352-0.28c0.1-.08.225-0.16,0.372-0.26l0.166-.09,0.392-.21c0.068-.03.117-0.05,0.166-0.07l0.049-.02a3.2,3.2,0,0,1,.431-0.13,1.522,1.522,0,0,1,.421-0.09h0.009a1.358,1.358,0,0,1,.4-0.03l0.058-.01a1.961,1.961,0,0,1,.343.03c0.02,0,.049.01,0.078,0.01a1.259,1.259,0,0,1,.333.07l0.088,0.03a1.128,1.128,0,0,1,.255.08c0.107,0.05.2,0.1,0.313,0.14l0.469,0.21,0.186-.51,0.088-.3,0.04-.1,0.185-.41m-50.815,72.07a9.825,9.825,0,0,1-4.2-.94c-0.128.06-.265,0.11-0.4,0.16-0.088.03-.176,0.06-0.254,0.09-0.186.05-.372,0.11-0.568,0.16l-0.264.06c-0.186.04-.372,0.09-0.558,0.12a2.335,2.335,0,0,0-.264.04c-0.188.03-.377,0.05-0.568,0.07l-0.264.01a5.188,5.188,0,0,1-.558.03H353.29c-0.186,0-.372,0-0.558-0.01l-0.235-.02a5.573,5.573,0,0,1-.577-0.04l-0.8-.13-0.792-.2-0.784-.25-0.753-.33-0.724-.4c-0.071-.05-0.14-0.1-0.206-0.15l-0.43-.3a0.278,0.278,0,0,0-.069.04,4.342,4.342,0,0,1-.489.24c-0.108.05-.186,0.08-0.265,0.11a4.8,4.8,0,0,1-.528.19c-0.069.02-.147,0.04-0.225,0.07a5.018,5.018,0,0,1-.539.14c-0.078.02-.156,0.04-0.244,0.06-0.167.03-.343,0.07-0.529,0.09l-0.235.02a4.687,4.687,0,0,1-.528.06c-0.088,0-.167.01-0.245,0.01-0.176.01-.352,0.02-0.519,0.02a2.149,2.149,0,0,1-.254-0.01c-0.167,0-.343,0-0.509-0.01l-0.245-.03a2.8,2.8,0,0,1-.5-0.05l-0.744-.11-0.734-.18-0.714-.23c-0.177-.07-0.333-0.13-0.48-0.2l-0.215-.09c-0.176-.08-0.323-0.16-0.47-0.24l-0.2-.11-0.44-.29-0.186-.14c-0.147-.12-0.264-0.21-0.382-0.32l-0.185-.16,0.469-.64,0.206,0.13c0.127,0.09.244,0.17,0.372,0.25l0.195,0.1c0.128,0.07.255,0.13,0.382,0.19l0.206,0.08c0.137,0.05.274,0.1,0.4,0.15l0.245,0.07c0.137,0.03.264,0.07,0.4,0.1l0.656,0.12,0.655,0.08,0.656,0.02c0.137,0,.274-0.01.421-0.02l0.245-.01c0.131-.01.262-0.02,0.391-0.04l0.265-.03c0.127-.01.254-0.04,0.391-0.06a2.046,2.046,0,0,1,.245-0.05c0.137-.02.254-0.06,0.382-0.09a2.169,2.169,0,0,0,.244-0.06,2.195,2.195,0,0,0,.362-0.12c0.079-.03.157-0.05,0.245-0.08,0.108-.04.225-0.09,0.333-0.14a2.021,2.021,0,0,1,.235-0.1,1.819,1.819,0,0,0,.313-0.17c0.068-.04.137-0.08,0.215-0.12a1.54,1.54,0,0,0,.264-0.18l0.206-.15,0.029-.03c0.069-.06.127-0.12,0.186-0.17s0.127-.11.186-0.17l0.685-.6,1.312,0.9,0.5,0.27,0.557,0.21,0.558,0.16,0.568,0.1,0.587,0.07,0.6,0.01,0.6-.02c0.108-.01.225-0.03,0.353-0.05l0.234-.02c0.119-.02.237-0.04,0.353-0.07,0.068-.01.147-0.03,0.225-0.04l0.323-.09a1.922,1.922,0,0,1,.235-0.07l0.039-.01c0.068-.02.166-0.06,0.264-0.1a1.635,1.635,0,0,1,.215-0.07l0.04-.02c0.087-.04.172-0.08,0.254-0.12s0.147-.07.215-0.11a1.385,1.385,0,0,0,.255-0.14c0.066-.04.135-0.08,0.205-0.12a2.077,2.077,0,0,0,.216-0.16c0.058-.04.117-0.09,0.176-0.13,0.147-.11.47-0.39,0.47-0.39l0.264-.21,0.245,0.23a6.885,6.885,0,0,0,4.374,1.53,4.807,4.807,0,0,0,3.318-1.32l1.136-1.22,1.272,1.09a6.349,6.349,0,0,0,4.032,1.26h0.128a1.466,1.466,0,0,0,.362-0.02,2.725,2.725,0,0,0,.489-0.08,8.974,8.974,0,0,0,3.435-1.96l0.284-.26,0.264,0.28a6.223,6.223,0,0,0,2.526,1.46,3.058,3.058,0,0,0,.509.15c0.156,0.04.332,0.08,0.508,0.11a8.536,8.536,0,0,0,1.009.09c3.67,0.08,4.678-1.76,4.727-1.84l0.235-.45,0.372,0.34c0.019,0.02,2.28,2.1,4.551,2.26a5.583,5.583,0,0,0,4.414-1.42l0.244-.23,0.764,0.6c0.1,0.07.215,0.16,0.333,0.26l0.46,0.27,0.489,0.23,0.519,0.18,0.548,0.15,0.577,0.11c0.11,0.02.221,0.03,0.333,0.04l0.254,0.03c0.118,0.01.235,0.01,0.353,0.01h0.6c0.088,0,.166-0.01.254-0.01,0.108,0,.225-0.02.343-0.03a1.089,1.089,0,0,1,.254-0.03c0.118-.02.225-0.04,0.343-0.07a1.928,1.928,0,0,0,.235-0.05c0.112-.02.223-0.05,0.332-0.08a2.131,2.131,0,0,1,.245-0.07l0.059-.03,0.264-.09a1.686,1.686,0,0,1,.215-0.08,1.7,1.7,0,0,0,.294-0.15c0.059-.03.127-0.07,0.2-0.1l0.039-.02c0.088-.05.157-0.1,0.235-0.15s0.147-.09.215-0.14l0.812-.51,0.245,0.18,0.852,0.74c0.068,0.05.137,0.1,0.195,0.15,0.1,0.06.186,0.12,0.284,0.18,0.049,0.03.127,0.07,0.2,0.12l0.323,0.18,0.558,0.24,0.6,0.2,0.606,0.15,0.627,0.12c0.117,0.01.254,0.02,0.391,0.04l0.245,0.02c0.127,0.01.255,0.02,0.392,0.02h0.254c0.127,0,.264,0,0.4-0.01a2.008,2.008,0,0,1,.245-0.01c0.137-.01.264-0.03,0.391-0.05l0.255-.03c0.127-.02.254-0.05,0.382-0.08l0.254-.06a2.2,2.2,0,0,0,.362-0.1c0.086-.03.171-0.05,0.255-0.08a2.23,2.23,0,0,0,.352-0.15c0.078-.03.157-0.07,0.235-0.1a2.141,2.141,0,0,0,.333-0.18c0.078-.05.156-0.09,0.225-0.13,0.088-.06.195-0.15,0.313-0.23,0.059-.05.127-0.1,0.2-0.15l0.5,0.61-0.167.16a3.574,3.574,0,0,1-.342.33c-0.088.07-.147,0.12-0.206,0.16a2.388,2.388,0,0,1-.4.29,1.767,1.767,0,0,0-.2.14,3.98,3.98,0,0,1-.451.24c-0.078.04-.146,0.07-0.215,0.11a3.834,3.834,0,0,1-.47.2c-0.068.03-.147,0.06-0.225,0.09a3.861,3.861,0,0,1-.479.15l-0.225.06c-0.164.05-.331,0.09-0.5,0.13-0.078.01-.156,0.03-0.234,0.04a4.23,4.23,0,0,1-.5.08c-0.088.01-.166,0.01-0.254,0.02-0.167.02-.323,0.04-0.489,0.05l-0.255.01c-0.166,0-.333.01-0.5,0.01l-0.744-.03-0.763-.09-0.764-.15c-0.186-.05-0.352-0.11-0.528-0.16l-0.216-.06c-0.185-.06-0.352-0.13-0.509-0.19l-0.234-.1c-0.186-.09-0.353-0.18-0.519-0.26l-0.059-.03-0.431.29-0.235.15c-0.078.04-.156,0.09-0.225,0.12-0.166.09-.322,0.19-0.509,0.27a2.075,2.075,0,0,0-.234.11c-0.167.06-.343,0.14-0.519,0.2-0.078.03-.157,0.05-0.245,0.08a3.313,3.313,0,0,1-.528.17c-0.088.02-.177,0.04-0.255,0.06a3.4,3.4,0,0,1-.538.13c-0.088.01-.167,0.03-0.255,0.04a5.087,5.087,0,0,1-.548.09l-0.254.03c-0.186.02-.372,0.04-0.558,0.05H399.5c-0.192.01-.385,0.01-0.577,0.01l-0.235-.01-0.588-.03-0.822-.11-0.841-.19-0.822-.25c-0.177-.07-0.343-0.14-0.49-0.21a9.565,9.565,0,0,1-4.336.94,8.912,8.912,0,0,1-4.766-1.33,9.686,9.686,0,0,1-9.865-.01,10.249,10.249,0,0,1-9.778.03,8.647,8.647,0,0,1-4.571,1.42h-0.352Zm-4.179-1.81,0.167,0.08a9.153,9.153,0,0,0,4.335.93,7.858,7.858,0,0,0,4.346-1.41l0.215-.16,0.215,0.14a9.413,9.413,0,0,0,9.4-.02l0.206-.14,0.215,0.14a8.981,8.981,0,0,0,9.435.01l0.215-.15,0.215,0.15a8.114,8.114,0,0,0,4.561,1.33,9,9,0,0,0,4.14-.93l0.157-.09,0.235,0.1c0.176,0.08.362,0.16,0.538,0.24l0.773,0.23,0.764,0.17,0.773,0.09c0.167,0.02.362,0.03,0.548,0.04l0.216,0.01c0.166,0,.352-0.01.528-0.01l0.245-.01c0.156-.01.323-0.03,0.5-0.03l0.254-.03c0.167-.02.333-0.05,0.49-0.08,0.088-.02.176-0.03,0.264-0.05a3.772,3.772,0,0,0,.47-0.11c0.088-.02.176-0.05,0.264-0.07,0.156-.04.31-0.09,0.46-0.14l0.264-.09c0.137-.05.284-0.11,0.431-0.18l0.264-.12a3.3,3.3,0,0,0,.421-0.21c0.078-.05.157-0.1,0.235-0.14,0.061-.03.12-0.07,0.176-0.1l0.225-.16c0.079-.06.147-0.11,0.225-0.16,0.01-.01.04-0.03,0.069-0.06l0.264-.22,0.5,0.29c0.157,0.08.3,0.16,0.46,0.24l0.215,0.09c0.157,0.05.3,0.11,0.46,0.17l0.206,0.06c0.157,0.05.323,0.1,0.48,0.14l0.7,0.14,0.7,0.08,0.7,0.03h0.147a0.742,0.742,0,0,1-.147-0.02l-0.675-.12-0.665-.16-0.646-.23-0.617-.26c-0.137-.08-0.254-0.14-0.372-0.21l-0.205-.11c-0.137-.09-0.235-0.16-0.333-0.23l-0.206-.15-0.039-.02-0.656-.58-0.352.22c-0.068.04-.127,0.08-0.2,0.12-0.1.07-.195,0.14-0.293,0.2l-0.088.04c-0.049.02-.108,0.05-0.167,0.08a2.55,2.55,0,0,1-.372.18c-0.078.03-.146,0.06-0.2,0.08a3.263,3.263,0,0,1-.313.12,0.4,0.4,0,0,1-.108.03l-0.2.06a3.282,3.282,0,0,1-.431.11c-0.068.01-.137,0.03-0.2,0.04-0.137.03-.274,0.06-0.431,0.08l-0.225.03c-0.137.01-.284,0.03-0.421,0.04a0.927,0.927,0,0,0-.235.01c-0.137,0-.284.01-0.421,0.01a0.85,0.85,0,0,0-.225-0.01c-0.147,0-.284-0.01-0.421-0.02l-0.254-.03c-0.128-.01-0.255-0.03-0.382-0.04l-0.617-.12-0.92-.27-0.283-.11-0.549-.25-0.557-.34c-0.128-.09-0.225-0.17-0.333-0.25l-0.264-.21a6.464,6.464,0,0,1-4.747,1.41,9.185,9.185,0,0,1-4.7-2.18c-0.548.67-2,1.94-5.158,1.87a8.368,8.368,0,0,1-1.116-.11c-0.195-.03-0.381-0.07-0.567-0.11a5.114,5.114,0,0,1-.558-0.16,7.522,7.522,0,0,1-2.584-1.42,9.42,9.42,0,0,1-3.514,1.91,5.754,5.754,0,0,1-.587.1c-0.147.01-.3,0.02-0.46,0.02h-0.117a7.136,7.136,0,0,1-4.522-1.44l-0.715-.62-0.636.68a5.431,5.431,0,0,1-3.846,1.56,7.684,7.684,0,0,1-4.669-1.51,2.513,2.513,0,0,0-.225.19l-0.029.03c-0.059.04-.118,0.08-0.167,0.12-0.1.06-.186,0.13-0.293,0.2-0.068.04-.133,0.08-0.2,0.12a3.527,3.527,0,0,1-.333.18c-0.067.03-.132,0.07-0.195,0.1-0.118.06-.235,0.11-0.362,0.16l-0.05.02c-0.039.01-.1,0.04-0.156,0.06a2.443,2.443,0,0,1-.372.12c-0.088.03-.157,0.05-0.225,0.07-0.137.04-.264,0.08-0.4,0.11-0.079.01-.147,0.03-0.216,0.04-0.137.03-.274,0.06-0.411,0.08l-0.235.03c-0.137.02-.264,0.04-0.4,0.05l-0.636.02-0.656-.01-0.646-.07-0.646-.12-0.626-.19-0.637-.25-0.577-.3-0.842-.58-0.235.2c-0.058.05-.107,0.1-0.166,0.16s-0.137.13-.206,0.19c-0.039.03-.058,0.06-0.088,0.08a0.78,0.78,0,0,0-.186.13c-0.119.09-.243,0.17-0.371,0.25-0.069.04-.128,0.06-0.186,0.1a2.415,2.415,0,0,1-.421.22c-0.059.03-.127,0.06-0.186,0.09-0.144.06-.291,0.12-0.441,0.17-0.068.02-.137,0.05-0.2,0.07a3.634,3.634,0,0,1-.46.15c-0.059.02-.137,0.04-0.2,0.06-0.147.04-.3,0.07-0.46,0.1-0.079.01-.157,0.03-0.225,0.04-0.157.03-.314,0.06-0.461,0.08a1.289,1.289,0,0,0-.195.02h0.225a3.381,3.381,0,0,0,.45-0.01,2.345,2.345,0,0,1,.264-0.02,2.291,2.291,0,0,0,.451-0.05l0.264-.03c0.147-.02.293-0.05,0.44-0.07l0.274-.06a3.556,3.556,0,0,0,.45-0.12,2.219,2.219,0,0,1,.255-0.08,4.465,4.465,0,0,0,.421-0.16,2.1,2.1,0,0,1,.244-0.09l0.04-.02a3.314,3.314,0,0,0,.411-0.21,1.853,1.853,0,0,1,.225-0.13l0.294-.17,0.323,0.29,0.469,0.33c0.049,0.03.1,0.07,0.157,0.11l0.665,0.37,0.685,0.3,0.725,0.24,0.734,0.18,0.753,0.11c0.157,0.02.343,0.03,0.529,0.05l0.235,0.02c0.156,0,.333,0,0.5.01h0.264l0.509-.03,0.264-.02,0.5-.06c0.088-.01.186-0.03,0.274-0.04,0.156-.03.323-0.07,0.489-0.11l0.274-.06c0.167-.04.323-0.1,0.49-0.15l0.264-.08c0.169-.06.336-0.13,0.5-0.2Zm-5.158-2.2-0.509-.02-0.509-.05-0.489-.09-0.47-.13-0.479-.2-0.4-.21-1.889-1.28-1.115.98v-19.93h-9.739v-9.27h2.026v-0.84L299.3,2108.69l-0.3-5.59,40.539,18.71h7.418v2.93h2.8v-16.71h1.458v-2.6h9.954v2.6h1.468v12.92h2.671v-3.94H367.6v-2.34h8.123v2.34H378v14.85h2.027l3.121-61.74h3.974v-3.15H389.7v3.15h3.719l3.064,61.74H398.2v-7.48h5.53v1.83H408.2v-0.01h0.783v0.01H410v-0.01h0.783v0.01H437L412.4,2132.1v2.31h1.889v9.27h-8.877v18.86l-1.693,1.06a1.639,1.639,0,0,0-.225.14l-0.177.12c-0.1.05-.156,0.08-0.225,0.12l-0.029.02c-0.049.02-.1,0.05-0.147,0.07-0.1.03-.176,0.06-0.254,0.09l-0.04.02a0.682,0.682,0,0,1-.137.05c-0.107.03-.195,0.06-0.293,0.09a1.507,1.507,0,0,1-.206.05c-0.1.02-.195,0.04-0.284,0.06s-0.156.04-.225,0.05l-0.284.03-0.049.01a1.148,1.148,0,0,1-.186.01c-0.094,0-.189.01-0.283,0.01h-0.049a0.524,0.524,0,0,1-.176.01c-0.075,0-.151-0.01-0.226-0.01H400.1a0.85,0.85,0,0,1-.225-0.01l-0.255-.02-0.274-.03-0.518-.1-0.47-.13-0.441-.16-0.469-.22-0.314-.2c-0.088-.05-0.166-0.12-0.254-0.18l-0.059-.05-0.636-.5v-19.26H380.263v20.27l-0.479-.12c-0.2-.05-0.382-0.11-0.568-0.17a4.013,4.013,0,0,1-.568-0.22,7.8,7.8,0,0,1-2.505-1.74,12.3,12.3,0,0,1-3.514,2.26,3.892,3.892,0,0,1-.577.17,4.043,4.043,0,0,1-.6.1l-0.421.03v-20.58H355.482v19.98l-0.294.18a1.45,1.45,0,0,0-.127.07c-0.1.05-.166,0.08-0.245,0.12l-0.156.07c-0.1.04-.186,0.07-0.274,0.1l-0.049.02c-0.049.02-.108,0.04-0.157,0.06l-0.166-.37,0.107,0.39-0.2.06a0.967,0.967,0,0,1-.235.06l-0.245.06c-0.1.02-.176,0.03-0.264,0.05l-0.245.02-0.274.03Zm1.8-1.08,0.147,0.37-0.108-.38c0.034-.01.066-0.03,0.1-0.04l0.059-.02a2.78,2.78,0,0,1,.284-0.11l0.088-.05c0.068-.03.137-0.07,0.215-0.1v-20.33h17.118v20.5c0.02,0,.039-0.01.059-0.01,0.176-.05.342-0.1,0.489-0.15a12.531,12.531,0,0,0,3.533-2.36l0.3-.29,0.274,0.33a7.061,7.061,0,0,0,2.476,1.82c0.166,0.06.333,0.13,0.509,0.19a0.186,0.186,0,0,1,.02.01v-20.04h17.48v19.68l0.342,0.26-0.2.36,0.226-.33a2.751,2.751,0,0,1,.254.19l0.294,0.17,0.332,0.15,0.382,0.14,0.411,0.11,0.47,0.08c0.059,0.01.137,0.02,0.225,0.03l0.245,0.03h0.293a1.562,1.562,0,0,0,.216.01h0.127l0.039-.01c0.108,0,.206-0.01.313-0.01,0.03,0,.059-0.01.1-0.01l0.049-.01c0.108-.01.215-0.03,0.313-0.04a0.323,0.323,0,0,0,.1-0.02l0.039-.01c0.108-.02.216-0.04,0.313-0.05l0.089-.03c0.137-.04.234-0.07,0.342-0.1a0.056,0.056,0,0,1,.039-0.01l0.059-.03c0.078-.03.166-0.07,0.254-0.1a0.182,0.182,0,0,0,.059-0.04l0.049-.02c0.063-.03.129-0.07,0.2-0.1l0.127-.08c0.078-.06.167-0.11,0.245-0.17l1.321-.82v-19.22H413.5v-7.66h-1.889v-3.73l18.635-4.47h-27.3v-1.84h-3.964v7.48h-3.249l-3.063-61.74h-3.758v-3.15h-1.009v3.15H383.9l-3.122,61.74H377.23v-14.84h-2.29v-2.34h-6.568v2.34h-2.28v3.94h-4.238v-12.93h-1.468v-2.59H352v2.59H350.53v16.73h-4.355v-2.94h-6.8l-39.521-18.25,0.206,3.87,39.266,24.89v2.09H337.3v7.67h9.738v19l0.284-.25,2.349,1.6,0.333,0.18,0.391,0.15,0.392,0.11,0.43,0.08,0.441,0.05,0.46,0.01,0.479-.02c0.066-.01.144-0.02,0.235-0.03l0.245-.03c0.049-.01.117-0.03,0.186-0.04l0.274-.06,0.137-.03Zm-14.593-30.76-4.668-2.96,4.668-4.03v6.99h0Zm-3.347-3.06,2.564,1.62v-3.83Zm58.753,2.94h-5.814v-6.22l5.775,5.39Zm-5.031-.79h3.866l-3.866-3.62v3.62Zm-1.791.79H381.78l0.049-.86,6.078-5.5v6.36h0Zm-4.972-.79h4.189v-3.79Zm11.706-.98-5.8-5.42,5.305-4.8ZM390,2125.47l3.768,3.52-0.333-6.63Zm-8.134,5.39,0.539-10.52,5.461,5.11Zm1.234-8.78-0.353,6.93,3.945-3.57Zm-48.565,7.66-5.9-3.74,5.921-4.92Zm-4.551-3.83,3.778,2.39,0.01-5.54Zm4.845,3.36,0.02-8.43,4.472,2.07v2.49Zm0.793-7.19-0.01,5.47,2.926-2.52v-1.6Zm35.381,5h-2.751v-3.27h2.751v3.27Zm-1.968-.8h1.185v-1.68h-1.185v1.68Zm-40.626-.42-4.845-3.08,5.138-4.37Zm-3.514-3.18,2.78,1.77,0.176-4.27Zm3.817,2.88,0.294-7.41,5.539,2.56Zm1.028-6.2-0.176,4.46,3.513-2.92Zm58.165,5.23-4.991-4.66,4.991-4.61v9.27Zm-3.827-4.66,3.044,2.85v-5.66Zm4.835,4.57v-9.16l5.06,4.59Zm0.783-7.38v5.6l3.1-2.79Zm-14.759,6.31h-2.75v-3.28h2.75v3.28Zm-1.967-.8h1.184v-1.68h-1.184v1.68Zm-49.543.06-4.336-2.74,4.61-3.84Zm-2.985-2.83,2.261,1.43,0.147-3.44Zm3.288,2.38,0.274-6.4,4.718,2.17Zm1.008-5.19-0.146,3.43,2.662-2.26Zm-5.842,2.78-3.631-2.31,3.885-3.48Zm-2.33-2.42,1.615,1.02,0.108-2.56Zm2.643,2.07,0.244-5.74,4.277,1.97Zm0.969-4.53-0.118,2.78,2.193-1.82Zm62.266,4.52,0.489-9.53,4.972,4.49Zm1.184-7.84-0.3,5.95,3.406-3.14Zm10.433,7.48-5.177-4.68,4.727-4.36Zm-4-4.69,3.123,2.84-0.265-5.47Zm-75.185,2.85-3.739-2.37,3.68-2.9Zm-2.369-2.44,1.566,1-0.019-2.22Zm2.653,2.39-0.049-5.48,4.071,1.87Zm0.744-4.24,0.019,2.49,1.83-1.64Zm44.013,2.06h-2.741v-3.28h2.741v3.28Zm-1.958-.8h1.184v-1.68h-1.184v1.68Zm-2.681.8h-2.751v-3.28h2.751v3.28Zm-1.968-.8h1.185v-1.68h-1.185v1.68Zm-42.584.4-3.4-2.15,3.249-2.46Zm-2.006-2.21,1.174,0.75-0.049-1.59Zm2.3,2.19-0.157-4.85,3.983,1.84Zm0.665-3.6,0.059,2.02,1.586-1.26Zm76.223,2.53-5.373-4.85h5.373v4.85Zm-3.308-4.06,2.525,2.28v-2.28H384.6Zm4.316,4.01v-4.8h5.227Zm0.783-4.01v2.23l2.418-2.23H389.7Zm-82.77,2.74-3.22-2.04,3.19-1.88Zm-1.693-2.01,0.9,0.57-0.01-1.1Zm1.977,1.98-0.03-4.13,3.426,1.58Zm0.763-2.89,0.01,1.32,1.086-.81Zm-4.678.62-2.8-1.77,2.936-1.45Zm-1.175-1.68,0.451,0.28,0.019-.52Zm1.459,1.68,0.146-3.45,3.2,1.47Zm0.881-2.24-0.04.82,0.793-.47Zm-4.131.22-0.166-3.07,3.308,1.52Zm0.685-1.8,0.03,0.56,0.587-.28Zm93.008,1.56h-5.108v-4.62Zm-4.326-.8h2.261l-2.261-2.04v2.04Zm-1.791.8h-5.02l5.02-4.55v4.55Zm-2.965-.8h2.182v-1.98Zm-1.84-.29,0.421-8.4,4.443,4.01Zm1.116-6.71-0.245,4.86,2.809-2.54Zm9.2,6.37-4.473-4.05,4.091-3.71Zm-3.3-4.05,2.428,2.2-0.206-4.21Zm-1.2-.86v-6.45l3.572,3.22Zm0.783-4.68v2.91l1.6-1.46Zm-1.791,4.61-3.494-3.16,3.494-3.24v6.4Zm-2.32-3.17,1.536,1.39v-2.82Zm-2.055-.07,0.391-7.66,3.984,3.61Zm1.086-5.97-0.205,4.09,2.329-2.16Zm8.378,5.63-4.12-3.72,3.768-3.49Zm-2.946-3.73,2.075,1.87-0.186-3.62Zm-2.143-.86-4.375-3.97h4.375v3.97Zm-2.32-3.17,1.537,1.39v-1.39h-1.537Zm3.328,3.11v-3.91h4.218Zm0.783-3.11v1.31l1.409-1.31H389.7Zm3.269-1.83h-4.052v-3.66Zm-3.269-.79h1.213l-1.213-1.09v1.09Zm-1.791.79h-3.925l3.925-3.55v3.55Zm-1.86-.79h1.077v-0.99Zm-1.967-.18,0.342-6.75,3.563,3.22Zm1.037-5.06-0.156,3.2,1.85-1.67Zm7.341,4.68-3.494-3.15,3.191-2.89Zm-2.31-3.15,1.429,1.3-0.117-2.49Zm-1.233-.83v-5.38l3.044,2.62Zm0.783-3.66v1.88l1.067-.96Zm-1.791,3.54-2.917-2.65,2.917-2.64v5.29Zm-1.742-2.65,0.959,0.87v-1.73Zm-1.7-.4,0.293-5.8,3.132,2.7Zm1-4.14-0.117,2.27,1.35-1.21Zm6.626,3.8-3.21-2.77,2.936-2.66Zm-2.016-2.79,1.145,0.99-0.1-1.93Zm-2.163-.81-3.112-2.69,0.058-1.02h3.054v3.71Zm-2.163-2.91,1.38,1.19v-1.19h-1.38Zm3.171,2.82v-3.62h2.809l0.049,1.04Zm0.783-2.82v1.04l1.165-1.04H389.7Zm-61.385,33.47,0.156-1.75a2.188,2.188,0,0,1,.059-0.48,4.827,4.827,0,0,1,.176-0.61,3.041,3.041,0,0,1,.255-0.57,4.82,4.82,0,0,1,.3-0.53,3.846,3.846,0,0,1,.372-0.48,3.255,3.255,0,0,1,.421-0.47,2.778,2.778,0,0,1,.47-0.42,3.945,3.945,0,0,1,.518-0.37,3.18,3.18,0,0,1,.568-0.32,2.723,2.723,0,0,1,.617-0.24,3.572,3.572,0,0,1,.646-0.17l0.029-.01a3.716,3.716,0,0,1,.666-0.06h0.088a2.542,2.542,0,0,1,.616.04c0.04,0.01.1,0.02,0.157,0.03a2.391,2.391,0,0,1,.528.12l0.059,0.03c0.02-.04.049-0.08,0.069-0.12,0.137-.2.274-0.38,0.411-0.56l0.147-.15a3.409,3.409,0,0,1,.313-0.34l0.156-.14c0.118-.1.235-0.21,0.363-0.3l0.107-.09c0.147-.1.294-0.21,0.441-0.3l0.606-.33,0.568-.24c0.235-.07.44-0.14,0.636-0.19l0.2-.04,0.46-.09,0.665-.02,0.676,0.03,0.646,0.14,0.166,0.06a3.065,3.065,0,0,1,.411.15l0.607,0.32,0.127,0.1c0.128,0.09.235,0.17,0.353,0.27l1.291,1.08-2.182-.51-0.48-.06-0.489-.02-0.489.05-0.46.09-0.47.13-0.44.18-0.421.2-0.4.25-0.372.27-0.352.31-0.323.33-0.293.35-0.245.36-0.235.44-0.147.35-0.558,1.22-1.5-.86c-0.059-.02-0.118-0.04-0.167-0.06-0.07-.03-0.138-0.05-0.2-0.08a0.56,0.56,0,0,0-.176-0.05,0.966,0.966,0,0,1-.167-0.04,0.935,0.935,0,0,0-.235-0.03l-0.117-.01a1.544,1.544,0,0,0-.3,0l-0.068.01a1.717,1.717,0,0,0-.391.05,1.806,1.806,0,0,0-.392.1,2.8,2.8,0,0,0-.4.14c-0.138.06-.272,0.13-0.4,0.2-0.166.09-.293,0.16-0.4,0.22-0.129.09-.253,0.17-0.372,0.27-0.157.12-.284,0.22-0.382,0.31a4.338,4.338,0,0,0-.342.32c-0.118.12-.215,0.24-0.313,0.36l-0.03.02c-0.068.09-.137,0.18-0.205,0.28l-0.069.11a0.965,0.965,0,0,0-.137.23,2.192,2.192,0,0,1-.127.23Zm1.115-2.48-0.019-.01h0l0.019,0.01-0.019-.01Zm4.072-3.21a3.7,3.7,0,0,0-.47.06l-0.039.01a2.563,2.563,0,0,0-.548.14,2.375,2.375,0,0,0-.509.21,3.165,3.165,0,0,0-.49.27,2.774,2.774,0,0,0-.44.31,3.206,3.206,0,0,0-.4.36,4.668,4.668,0,0,0-.362.4c-0.088.11-.177,0.22-0.255,0.33,0.088-.08.2-0.17,0.313-0.26a6.444,6.444,0,0,1,.881-0.55,2.935,2.935,0,0,1,.48-0.23,3.808,3.808,0,0,1,.479-0.18,2.592,2.592,0,0,1,.48-0.11,1.686,1.686,0,0,1,.5-0.07h0.019a1.848,1.848,0,0,1,.47,0h0.069a1.812,1.812,0,0,1,.4.07,0.335,0.335,0,0,1,.1.02,0.976,0.976,0,0,1,.372.11c0.029,0.01.068,0.02,0.117,0.04a2.784,2.784,0,0,1,.294.13l0.763,0.43,0.206-.43c0.049-.11.088-0.21,0.137-0.33l0.059-.14,0.225-.41,0.293-.43,0.343-.41,0.362-.37,0.4-.34,0.431-.32,0.45-.28,0.489-.23,0.5-.2,0.557-.17,0.5-.09-0.529-.03-0.587.04a2.491,2.491,0,0,0-.382.07l-0.166.02c-0.167.05-.353,0.11-0.548,0.17l-0.519.22-0.529.29c-0.117.08-.244,0.17-0.381,0.26l-0.1.07c-0.088.08-.206,0.18-0.313,0.27l-0.137.12-0.274.31-0.128.13c-0.107.14-.235,0.31-0.352,0.48-0.039.07-.1,0.17-0.157,0.26l-0.2.38-0.313-.12c-0.059-.02-0.128-0.04-0.2-0.07l-0.176-.06a2.32,2.32,0,0,0-.372-0.09l-0.2-.03a3.231,3.231,0,0,0-.44-0.03l-0.128.01a0.082,0.082,0,0,0-.049,0v-0.01Z" transform="translate(-299 -2066.97)"/>
</svg>
