<svg xmlns="http://www.w3.org/2000/svg" width="129.782" height="99" viewBox="0 0 129.782 99">
  <defs>
    <style>
      .cls-1 {
        fill: #26d07c;
        fill-rule: evenodd;
      }
    </style>
  </defs>
  <path id="fabrication.svg" class="cls-1" d="M895.89,1916.71a0.9,0.9,0,1,0,.9.9h0A0.9,0.9,0,0,0,895.89,1916.71Zm-87.061,45.54h0.2a0.629,0.629,0,0,0,.6-0.5,7.138,7.138,0,0,1,1.2-2.81,0.652,0.652,0,0,0-1.1-.7,13.058,13.058,0,0,0-1.31,3.21,0.634,0.634,0,0,0,.4.8h0.013Zm3.51-5.51a0.491,0.491,0,0,0,.4-0.2,14.551,14.551,0,0,1,2.6-1.6,0.647,0.647,0,0,0,.327-0.86c-0.005-.01-0.011-0.03-0.017-0.04a0.663,0.663,0,0,0-.9-0.3h-0.014a13.908,13.908,0,0,0-2.91,1.9,0.555,0.555,0,0,0,0,.9A1.062,1.062,0,0,0,812.339,1956.74Zm-3.01,12.01h0.2a0.679,0.679,0,0,0,.4-0.8,10.591,10.591,0,0,1-.6-3,0.657,0.657,0,0,0-1.31.1,12.818,12.818,0,0,0,.7,3.4A1.188,1.188,0,0,0,809.329,1968.75Zm1.1,2.61a11.057,11.057,0,0,0,2.51,2.4,0.482,0.482,0,0,0,.4.1,0.534,0.534,0,0,0,.5-0.3,0.745,0.745,0,0,0-.1-0.9,9.363,9.363,0,0,1-2.21-2.2,0.642,0.642,0,0,0-.888-0.11,0.011,0.011,0,0,1-.012.01,0.707,0.707,0,0,0-.223.97Zm8.93,3.4a7.977,7.977,0,0,1-3.01-.6,0.691,0.691,0,0,0-.8.4,1.482,1.482,0,0,0,.4,1.3,10.283,10.283,0,0,0,3.41,1.1,1.22,1.22,0,0,0,.6-1.1,1.154,1.154,0,0,0-.6-1.1h0Zm57.271,1.2h-3.01c-0.4,0-.6.1-0.6,0.5a0.5,0.5,0,0,0,.49.51,0.407,0.407,0,0,0,.11-0.01h3.01c0.4,0,.6-0.1.6-0.5a0.506,0.506,0,0,0-.489-0.51,0.41,0.41,0,0,0-.111.01h0Zm12.041,0H885.66c-0.4,0-.6.1-0.6,0.5a0.5,0.5,0,0,0,.49.51,0.407,0.407,0,0,0,.11-0.01h3.011c0.4,0,.6-0.1.6-0.5a0.506,0.506,0,0,0-.489-0.51,0.418,0.418,0,0,0-.111.01h0Zm-18.161,0H867.5c-0.4,0-.6.1-0.6,0.5a0.5,0.5,0,0,0,.49.51,0.407,0.407,0,0,0,.11-0.01h3.01c0.4,0,.6-0.1.6-0.5s-0.2-.5-0.6-0.5h0Zm-18.05,0h-3.01c-0.4,0-.6.1-0.6,0.5a0.494,0.494,0,0,0,.49.51,0.407,0.407,0,0,0,.11-0.01h3.01c0.4,0,.6-0.1.6-0.5S852.86,1975.96,852.46,1975.96Zm6.02,0h-3.01c-0.4,0-.61.1-0.61,0.5a0.509,0.509,0,0,0,.508.51,0.354,0.354,0,0,0,.1-0.01h3.01c0.4,0,.6-0.1.6-0.5s-0.2-.5-0.6-0.5h0Zm6.01,0h-3.01c-0.4,0-.6.1-0.6,0.5a0.494,0.494,0,0,0,.49.51,0.407,0.407,0,0,0,.11-0.01h3.01c0.41,0,.61-0.1.61-0.5s-0.2-.5-0.61-0.5h0Zm18.16,0h-3.01c-0.4,0-.6.1-0.6,0.5s0.2,0.5.6,0.5h3.01c0.4,0,.6-0.1.6-0.5a0.506,0.506,0,0,0-.489-0.51,0.414,0.414,0,0,0-.111.01h0Zm34.6-8.81a0.691,0.691,0,0,0-.8.4c-0.3.8-.7,1.6-1.1,2.41a0.65,0.65,0,0,0,.2.9h0a0.338,0.338,0,0,0,.3.1,0.536,0.536,0,0,0,.5-0.3,11.237,11.237,0,0,0,1.3-2.71,0.534,0.534,0,0,0-.2-0.73,0.476,0.476,0,0,0-.2-0.07h0Zm1.01-2.4v-0.6a15.069,15.069,0,0,0-.2-2.1,0.787,0.787,0,0,0-.71-0.5,0.7,0.7,0,0,0-.5.8,12.376,12.376,0,0,1,.2,1.9v0.3c0,0.4.2,0.3,0.6,0.3,0.31,0.1.61,0.2,0.61-.1h0Zm-92.181-.4a6.221,6.221,0,1,0-6.23,6.21h0.01A6.243,6.243,0,0,0,826.08,1964.35Zm-6.22,4.9a4.9,4.9,0,1,1,4.91-4.9,4.895,4.895,0,0,1-4.91,4.9h0Zm34.5-11.11a6.256,6.256,0,0,0-6.22,6.21,6.182,6.182,0,0,0,6.162,6.21h0.058a6.21,6.21,0,1,0,0-12.42h0Zm0,11.11a4.908,4.908,0,0,1-4.91-4.9,4.851,4.851,0,0,1,4.793-4.9h0.117c2.329-1.37,5.739.08,7.117,2.41a4.9,4.9,0,0,1-1.721,6.71,8.556,8.556,0,0,1-5.4.68h0Zm17.16-11.11a6.21,6.21,0,1,0,6.21,6.21h0a6.246,6.246,0,0,0-6.21-6.21h0Zm0,11.11a4.9,4.9,0,1,1,4.91-4.9,4.895,4.895,0,0,1-4.91,4.9h0Zm23.471-4.9a6.221,6.221,0,1,0-6.231,6.21h0.01a6.241,6.241,0,0,0,6.22-6.21h0Zm-6.221,4.9a4.9,4.9,0,1,1,4.911-4.9,4.895,4.895,0,0,1-4.911,4.9h0Zm-69.01-6.2a1.3,1.3,0,1,0,1.3,1.3,1.305,1.305,0,0,0-1.3-1.3h0Zm34.6,0a1.3,1.3,0,1,0,.02,2.6,1.3,1.3,0,0,0-.01-2.6h-0.01Zm17.16,0a1.3,1.3,0,1,0,1.3,1.3,1.305,1.305,0,0,0-1.3-1.3h0Zm17.25,0a1.3,1.3,0,1,0,1.3,1.3,1.305,1.305,0,0,0-1.3-1.3h0Zm48.851-44.34a5.928,5.928,0,0,0-2.51-3.3,5.184,5.184,0,0,0-2.81-.6c-0.1,0-.1.1-0.2,0.1H899.6a5.146,5.146,0,0,0-3.71-1.9c-2.61,0-5.121,2.1-5.121,4.7a5.394,5.394,0,0,0,2.01,4.01v3.9c-1,.79-1,2.1-1,3.6v3.7c0,0.4,0,1,.4,1h-0.4v2.5c0,0.4.1,0.6,0.5,0.6a0.5,0.5,0,0,0,.51-0.49,0.583,0.583,0,0,0-.011-0.11v-2.5h3.011v4c0,0.4.1,0.6,0.5,0.6s0.5-.2.5-0.6v-4h1v2.5c0,0.4.11,0.6,0.51,0.6a0.5,0.5,0,0,0,.51-0.49,0.668,0.668,0,0,0-.01-0.11v-2.5h0.7c0.4,0-.7-0.6-0.7-1v-3.8c0-1.51,0-2.81-1.01-3.61v-3.79c0-.3,1.31.2,1.61,0.2h26.38l-18.46,31.42c-0.3,0-.5-0.4-0.8-0.4h-4.71v-9.51c0-.4.1-0.5-0.3-0.5H891.68c-0.4,0-.91.1-0.91,0.5v9.51H876.73v-9.01h9.03v8.01c0,0.4.1,0.6,0.5,0.6s0.5-.2.5-0.6v-8.51c0-.4-0.7-0.5-1.1-0.5h-9.83c-0.4,0-.1.1-0.1,0.5v9.51h-5.02v-9.51c0-.4.2-0.5-0.1-0.5h-9.93c-0.4,0,0,.1,0,0.5v9.51h-9.83l17.25-30.03a5.569,5.569,0,0,0-2-7.5,5.184,5.184,0,0,0-2.81-.6c-0.1,0-.1.1-0.2,0.1h-32.6a5.146,5.146,0,0,0-3.71-1.9,4.694,4.694,0,0,0-4.71,4.69v0.01c0,1.71.4,3.21,2.4,4.01v3.89a4.9,4.9,0,0,0-2,3.61v3.7a1.045,1.045,0,0,0,.6,1h0.5v2.5c0,0.4.1,0.6,0.5,0.6a0.5,0.5,0,0,0,.51-0.49,0.668,0.668,0,0,0-.01-0.11v-2.5h1.01v4a0.906,0.906,0,0,0,1,.6,1.043,1.043,0,0,0,1-.6v-4h1.01v2.5c0,0.4.1,0.6,0.5,0.6a0.5,0.5,0,0,0,.51-0.49,0.574,0.574,0,0,0-.01-0.11v-2.5h0.9c0.4,0,.1-0.6.1-1v-3.8a4.888,4.888,0,0,0-2-3.61v-3.8a2.859,2.859,0,0,1,1.8.2h26.38l-18.46,31.03H832.6v-9.51c0-.4-0.4-0.5-0.81-0.5h-9.83c-0.4,0-.4.1-0.4,0.5v9.51h-1.8a8.659,8.659,0,0,0-1.61,0,0.463,0.463,0,0,0-.519.4,0.416,0.416,0,0,0,.019.2,0.556,0.556,0,0,0,.6.5h0.1a8.474,8.474,0,0,1,1.51-.1h17.75l-4.11,7.11a8.211,8.211,0,0,0-7.22,8.1,16.192,16.192,0,0,0,.2,2.21c-1.1,1-2.01.6-2.71,4.6h-1.1c-0.4,0-.6.1-0.6,0.5a0.493,0.493,0,0,0,.489.51,0.414,0.414,0,0,0,.111-0.01h0.6c-0.7,1-.8,3.68-0.8,5.88,0.03-.06.1-0.13,0.1-0.07V2011H808.719c-0.4,0-.6.1-0.6,0.5s0.2,0.5.6,0.5H933.5c0.4,0,.6-0.1.6-0.5s-0.2-.5-0.6-0.5h-17.65v-28.23h0.1a19.448,19.448,0,0,0-2.21-9.21,2.893,2.893,0,0,0,.81-0.7,0.555,0.555,0,0,0,.115-0.78,0.622,0.622,0,0,0-.115-0.12,0.573,0.573,0,0,0-.8-0.11,0.546,0.546,0,0,0-.11.11,2.4,2.4,0,0,1-.6.5,11.464,11.464,0,0,0-1.4-1.7,8.838,8.838,0,0,0,.2-1.61,8.383,8.383,0,0,0-.3-2.2l4.31-7.4c0.1,0.1.1,0.2,0.2,0.3a0.66,0.66,0,0,0,.6.4,0.339,0.339,0,0,0,.3-0.1,0.659,0.659,0,0,0,.311-0.88,0.034,0.034,0,0,1-.011-0.02c-0.2-.41-0.4-0.71-0.6-1.11l20.56-35.42a5.472,5.472,0,0,0,.41-4.01h0Zm-39.83,14.21H892.78v-3.7c0-1.7.8-3,2.511-3s2.5,1.3,2.5,3v3.7Zm-4.01-7.9v-2.8c2.01,0.1,1.109.1,1.51,0.1s1.5-.1,1.5-0.1v2.8a4.492,4.492,0,0,0-1.5-.2c-0.4,0,.5.1-1.511,0.2h0Zm2.11-3.9a3.405,3.405,0,1,1,3.41-3.41,3.451,3.451,0,0,1-3.411,3.41h0Zm-66.3,8.11v3.69h-6.021v-3.69a3.011,3.011,0,0,1,6.021-.01h0v0.01Zm-4.01-4.21v-2.8a2.416,2.416,0,0,0,1,.1c0.335-.02.669-0.05,1-0.1v2.8a2.57,2.57,0,0,0-2,0h0Zm1.3-3.9a3.405,3.405,0,1,1,3.41-3.41,3.448,3.448,0,0,1-3.41,3.41h0Zm3.71,31.82h-8.02v-9.01h8.02v9.01Zm69.61-33.02a7.272,7.272,0,0,0,.4-1.61,2.022,2.022,0,0,0-.3-1.4h28.69a1.772,1.772,0,0,0-1.2,1.2l-1.21,1.81H900.2Zm-8.42,24.01h9.02v9.01h-9.02v-9.01Zm-30.09,0h8.02v9.01h-8.02v-9.01Zm-30.5-24.01a7.325,7.325,0,0,0,.4-1.61,2.022,2.022,0,0,0-.3-1.4h28.69a1.772,1.772,0,0,0-1.2,1.2l-1.31,1.81H831.19Zm28.59-1.91a4.006,4.006,0,0,1,3.41-2,5.124,5.124,0,0,1,2.21.5,4.037,4.037,0,0,1,1.9,2.51,4.129,4.129,0,0,1-.4,3.1l-25.07,43.33a8.328,8.328,0,0,0-6.93-4.5Zm-18,54.51a0.088,0.088,0,0,1-.06-0.06Zm-7.88-10.87v-0.7c0.2,0,.1.6,0.3,0.6,3.11,0,5.42,2.5,6.42,5.5,0,0.7.6,1.4,0.6,2.1a4.922,4.922,0,0,1-.1,1.71,6.983,6.983,0,0,1-5.51,5.2,3.775,3.775,0,0,1-1.11.1,5.659,5.659,0,0,1-2.3-.4,6.8,6.8,0,0,1-4.421-4.9,12.224,12.224,0,0,1-.2-2.01,7.26,7.26,0,0,1,6.32-7.2h0Zm-9.13,14.11a10.018,10.018,0,0,1,2.11-3.5,0.2,0.2,0,0,0,.1.2c0,0.1.1,0.2,0.1,0.3,0.1,0.1.1,0.2,0.2,0.3a0.331,0.331,0,0,0,.1.2c0.1,0.1.1,0.2,0.2,0.3,0,0.1.1,0.1,0.1,0.2a0.548,0.548,0,0,1,.2.3c0,0.1.1,0.1,0.1,0.2a1.468,1.468,0,0,1,.3.4l0.1,0.1a2.466,2.466,0,0,0,.51.5l0.1,0.1a1.67,1.67,0,0,1,.4.4c0.1,0,.1.1,0.2,0.1a0.533,0.533,0,0,0,.3.2c0.1,0,.1.1,0.2,0.1,0.1,0.1.2,0.1,0.3,0.2a0.374,0.374,0,0,1,.2.1c0.1,0.1.2,0.1,0.3,0.2,0.1,0,.2.1,0.3,0.1s0.2,0.1.3,0.1,0.2,0.1.3,0.1a1.948,1.948,0,0,0,.41.1,0.406,0.406,0,0,1,.3.1c0.1,0,.3.1,0.4,0.1h0.3a0.627,0.627,0,0,1,.4.1h1.81a0.572,0.572,0,0,0,.4-0.1h0.3c0.1,0,.3-0.1.4-0.1a0.339,0.339,0,0,0,.3-0.1,2.721,2.721,0,0,1,.4-0.1c0.1,0,.2-0.1.3-0.1a2.721,2.721,0,0,1,.4-0.1,0.316,0.316,0,0,0,.2-0.1c0.1-.1.2-0.1,0.3-0.2a0.341,0.341,0,0,0,.21-0.1c0.1-.1.2-0.1,0.3-0.2,0.1,0,.1-0.1.2-0.1a0.533,0.533,0,0,1,.3-0.2c0.1,0,.1-0.1.2-0.1,0.1-.1.3-0.2,0.4-0.3a0.1,0.1,0,0,0,.1-0.1h0a2.37,2.37,0,0,0,.5-0.5l0.1-.1,0.3-.3a0.2,0.2,0,0,0,.1-0.2,0.52,0.52,0,0,0,.2-0.3,0.4,0.4,0,0,1,.1-0.2c0.1-.1.1-0.2,0.2-0.3a0.388,0.388,0,0,1,.1-0.2c0.11-.1.11-0.2,0.21-0.3a0.5,0.5,0,0,1,.06-0.2,5.177,5.177,0,0,1,1.54,3.1,24.851,24.851,0,0,1,2.01,6.31H823.37a24.142,24.142,0,0,1,1.4-6.41h0ZM845.64,2011H823.569v-28.03H845.64V2011h0Zm45.43-28.13a0.819,0.819,0,0,1-.3-0.1V2011H848.65v-28.23l-0.81.5a12,12,0,0,0-2-6.21h0.6c0.4,0,.6-0.1.6-0.5a0.53,0.53,0,0,0-.449-0.6H845.34c-0.71-4-1.71-3.5-2.71-4.6a12.119,12.119,0,0,0,.2-1.9,9.175,9.175,0,0,0-.3-2.31l7.52-13.21h56.47l-4.01,7.11a8.213,8.213,0,0,0-7.22,8.1,16.515,16.515,0,0,0,.2,2.21c-1.11,1-2.01.6-2.71,4.6h-1.1c-0.4,0-.61.1-0.61,0.5a0.51,0.51,0,0,0,.508.51,0.35,0.35,0,0,0,.1-0.01h0.6c-0.7,1-1.21,3.71-1.21,5.91h0Zm12.541-20.62a6.893,6.893,0,0,1,6.62,4.8,8.375,8.375,0,0,1,.6,2.1v1.71c-2,3.1-3.81,5.3-7.02,5.3s-7.021-2.2-7.021-5.3c0-.5-0.2-1.1-0.2-1.71a6.98,6.98,0,0,1,6.421-6.9h0.6Zm10.23,48.75H891.78v-28.03h22.061V2011h0Zm-1.5-37.34a21.348,21.348,0,0,1,2.31,8.31H892.48c0.1-1,.3-4.51,1.3-6.41v0.1c0-1.3,1.31-2.5,2.11-3.4a8.19,8.19,0,0,0,7.72,5.2,8.425,8.425,0,0,0,7.73-5.2,8.384,8.384,0,0,1,1,1.4h0Zm23.67-51.54-20.76,35.82v0.1l-4.32,7.51a8.283,8.283,0,0,0-6.92-4.5l24.88-43.04a4.006,4.006,0,0,1,3.41-2,5.124,5.124,0,0,1,2.21.5,4.037,4.037,0,0,1,1.9,2.51,4.14,4.14,0,0,1-.4,3.1h0Zm-113.542,60.75v-0.03c-0.029.04-.05,0.07,0,0.03h0Zm81.142-12.71a1,1,0,0,0,1.01-1,1.005,1.005,0,0,0-2.01-.01,1,1,0,0,0,1,1.01h0Zm28.89-50.64a1,1,0,1,0,1,1,1,1,0,0,0-1-1h0Zm-98,51.34a1.529,1.529,0,0,0,1.61-1.3v-0.51a1.76,1.76,0,0,0-1.71-1.7c-0.4,0-.8-0.6-1.1.4a1.436,1.436,0,0,0-.6,1.2,1.877,1.877,0,0,0,1.8,1.91h0Zm28.99-49.34a1,1,0,1,0-1-1,1,1,0,0,0,1,1h0Zm-36.61-4.81a0.9,0.9,0,1,0,.9.9h0a0.9,0.9,0,0,0-.9-0.9h0Zm20.42,30.38a1.092,1.092,0,1,0-.013,0H847.3Zm3.56-5.77a1.506,1.506,0,1,0,1.619-2.54,1.506,1.506,0,0,0-1.619,2.54h0Zm3.54-5.52a1.5,1.5,0,1,0-.459-2.07h0a1.5,1.5,0,0,0,.46,2.07h0Zm63.721,8.76a1.532,1.532,0,1,0,.015.01,0.014,0.014,0,0,1-.015-0.01h0Zm3.57-5.77a1.5,1.5,0,1,0,.459,2.08,0.034,0.034,0,0,0,0-.01,1.491,1.491,0,0,0-.451-2.06s-0.006,0-.009-0.01h0Zm3.53-5.51a1.532,1.532,0,1,0,.015.01,0.014,0.014,0,0,1-.015-0.01h0Z" transform="translate(-808.031 -1913)"/>
</svg>
