<svg xmlns="http://www.w3.org/2000/svg" width="24" height="37" viewBox="0 0 24 37">
  <defs>
    <style>
      .cls-1 {
        fill: #00cfb4;
        fill-rule: evenodd;
      }
    </style>
  </defs>
  <path id="insights-ico.svg" class="cls-1" d="M682.109,751a1.353,1.353,0,0,1-1.253-.922,3.587,3.587,0,0,1-3.106-1.964h-0.879a1.255,1.255,0,0,1-1.327-1.178v-0.057a1.3,1.3,0,0,1,1.245-1.273h0.561v-1.078h-0.515a1.257,1.257,0,0,1-1.326-1.179v-0.057a1.3,1.3,0,0,1,1.244-1.272h0.561v-3.623c0-1.08-.8-1.707-1.693-2.293A11.98,11.98,0,1,1,694,725.949v0.006a12.049,12.049,0,0,1-5.6,10.142c-0.992.7-1.692,1.282-1.655,2.293v1.843h0.589a1.319,1.319,0,0,1,1.328,1.31h0a1.254,1.254,0,0,1-1.28,1.228h-0.571v1.015h0.523a1.255,1.255,0,1,1-.008,2.509l-0.067,0h-0.486v0.166a3.546,3.546,0,0,1-3.4,3.578A1.315,1.315,0,0,1,682.109,751Zm-0.5-.848a0.587,0.587,0,0,0,.819.051,0.614,0.614,0,0,0,.051-0.051h-0.87Zm-3.134-2.01a2.82,2.82,0,0,0,2.386,1.273h2.34a2.7,2.7,0,0,0,2.32-1.273h-7.046Zm7.4-.692a2.775,2.775,0,0,0,.15-0.8h0v-0.276H677.98v0.193a2.947,2.947,0,0,0,.149.922h7.717Zm-9.074-1.078a0.585,0.585,0,0,0-.589.581h0a0.52,0.52,0,0,0,.538.5H677.4a3.616,3.616,0,0,1-.1-0.922V746.37h-0.5Zm10.476-.729a0.522,0.522,0,0,0,.586-0.447v-0.051a0.585,0.585,0,0,0-.59-0.58h-0.5v1.078h0.5Zm-1.252,0v-1.078h-7.971v1.078h7.971Zm0-1.843v-1.024h-7.971v1.078h7.971V743.8Zm-9.224-1.024a0.585,0.585,0,0,0-.589.581h0a0.52,0.52,0,0,0,.538.5H677.3v-1.078h-0.5Zm10.476-.729a0.521,0.521,0,0,0,.586-0.447v-0.05a0.584,0.584,0,0,0-.549-0.617h-0.545v1.079h0.5v0.036h0.009Zm-1.252,0v-1.113h-7.971v1.078h7.971v0.035Zm0-1.843v-1.844c0-1.366,1-2.167,2.019-2.868a11.278,11.278,0,1,0-17.312-9.543h0a11.31,11.31,0,0,0,5.3,9.543c1.02,0.673,2.02,1.448,2.02,2.858v1.845h3.668V732.26a5.466,5.466,0,0,1-5.2-5.468,2.728,2.728,0,0,1,0-.286,2.221,2.221,0,0,0,0-.258v-0.23l0.122-.121h4.013a1.429,1.429,0,1,1,1.377,1.781,1.434,1.434,0,0,1-1.368-1.015h-3.47v0.156a4.855,4.855,0,0,0,9.467,1.457,0.4,0.4,0,0,1,.355-0.258h0.112a0.4,0.4,0,0,1,.215.462,5.6,5.6,0,0,1-4.957,3.8v7.865h3.639V740.2Zm-3.985-14.679a0.788,0.788,0,0,0-.786.774,0.771,0.771,0,0,0,.767.775h0.019a0.775,0.775,0,1,0,.008-1.549H682.04Z" transform="translate(-670 -714)"/>
</svg>
