<?xml version="1.0" encoding="utf-8"?>
<!-- Generator: Adobe Illustrator 20.1.0, SVG Export Plug-In . SVG Version: 6.00 Build 0)  -->
<svg version="1.1" id="Layer_1" xmlns="http://www.w3.org/2000/svg" xmlns:xlink="http://www.w3.org/1999/xlink" x="0px" y="0px"
	 viewBox="0 0 86.3 86" style="enable-background:new 0 0 86.3 86;" xml:space="preserve">
<style type="text/css">
	.st0{fill:#627081;}
</style>
<path id="instagram" class="st0" d="M60.9,43.5c0,9.4-7.9,17.1-17.7,17.1S25.5,53,25.5,43.5c0-1.6,0.2-3.3,0.7-4.9H21v23.9
	c0,1.2,1,2.2,2.3,2.2h39.6c1.2,0,2.3-1,2.3-2.2V38.6h-5C60.6,40.2,60.9,41.9,60.9,43.5z M43.2,53.9c6.1-0.2,10.9-5.3,10.6-11.4
	c-0.2-6.1-5.3-10.9-11.4-10.6c-5.9,0.2-10.6,5.1-10.6,11C31.9,49.1,37,54,43.2,53.9z M56.1,32.2h6.4c1.4,0,2.6-1.1,2.6-2.6v-6.1
	c0-1.4-1.1-2.6-2.6-2.6h-6.4c-1.4,0-2.6,1.1-2.6,2.6v6.1C53.6,31,54.7,32.2,56.1,32.2L56.1,32.2z M0,0v86h86.3V0H0z M71.6,64.1
	c0,4-3.3,7.3-7.3,7.3H22c-4,0-7.3-3.2-7.3-7.3V22c0-4,3.3-7.3,7.3-7.3h42.3c4,0,7.3,3.3,7.3,7.3L71.6,64.1L71.6,64.1z"/>
</svg>
