<?xml version="1.0" encoding="utf-8"?>
<!-- Generator: Adobe Illustrator 20.1.0, SVG Export Plug-In . SVG Version: 6.00 Build 0)  -->
<svg version="1.1" id="Layer_1" xmlns="http://www.w3.org/2000/svg" xmlns:xlink="http://www.w3.org/1999/xlink" x="0px" y="0px"
	 viewBox="0 0 86.3 86" style="enable-background:new 0 0 86.3 86;" xml:space="preserve">
<style type="text/css">
	.st0{fill:#627081;}
</style>
<path id="linkedin" class="st0" d="M0,0v86h86.3V0H0z M27,72.2H14.8v-39H27V72.2L27,72.2z M20.9,27.9c-3.9,0-7-3.2-7-7.1
	s3.2-7,7.1-7s7,3.2,7,7C27.9,24.7,24.8,27.9,20.9,27.9L20.9,27.9L20.9,27.9z M72.5,72.2H60.4v-19c0-4.5-0.1-10.3-6.3-10.3
	c-6.3,0-7.3,4.9-7.3,10v19.3H34.6v-39h11.7v5.3h0.2c1.6-3.1,5.6-6.3,11.5-6.3c12.3,0,14.6,8.1,14.6,18.6L72.5,72.2L72.5,72.2z"/>
</svg>
