<svg xmlns="http://www.w3.org/2000/svg" width="169.94" height="49" viewBox="0 0 169.94 49">
  <defs>
    <style>
      .cls-1 {
        fill: #26d07c;
        fill-rule: evenodd;
      }
    </style>
  </defs>
  <path id="marketing-icon-1.svg" class="cls-1" d="M1171.13,2170.85l-0.94.27a10.586,10.586,0,0,0,8.76,7.11l0.11-.98A9.414,9.414,0,0,1,1171.13,2170.85Zm10.17,5.96,0.11,0.47,0.12,0.48a14.831,14.831,0,0,0,7.92-5.3l-0.79-.58A14.223,14.223,0,0,1,1181.3,2176.81Zm-29.45-.11a1.725,1.725,0,1,1-.01,0h0.01Zm0,2.44a0.73,0.73,0,1,1,.73-0.73,0.724,0.724,0,0,1-.73.73h0Zm57.16,0.79a1.715,1.715,0,1,0-1.73-1.72A1.72,1.72,0,0,0,1209.01,2179.93Zm0-2.46a0.74,0.74,0,1,1-.74.74h0A0.738,0.738,0,0,1,1209.01,2177.47Zm-57.45-3.6a4.758,4.758,0,1,0,4.62,4.91v-0.15a4.7,4.7,0,0,0-4.62-4.76h0Zm0,8.53a3.779,3.779,0,1,1,3.63-3.94v0.17a3.7,3.7,0,0,1-3.63,3.77h0Zm-54.3-15.96c-0.02-.12-0.03-0.25-0.05-0.38-0.14-1.02-.18-1.36-0.68-1.33a0.54,0.54,0,0,0-.49.59c0,0.03.01,0.05,0.01,0.08v3.74a0.529,0.529,0,0,0,.43.61,0.06,0.06,0,0,0,.04.01c0.49,0.04.56-.34,0.71-1.18,0.02-.12.04-0.24,0.06-0.35l1.63,0.07,1,1.8v-3.55l-2.15-.13A2.9,2.9,0,0,0,1097.26,2166.44Zm168.5-2.18-0.16-.26h-0.28c-0.46,0-.58.25-0.76,1.92l-4.5.02v1.87h4.38c0.32,0.87.61,1,.88,1h0a0.513,0.513,0,0,0,.45-0.26,13.423,13.423,0,0,0-.01-4.29h0Zm-71.5,5.97q-1.005.09-1.71,0.12v-0.12l-0.07.12a3.785,3.785,0,0,1-1.57-.09,0.772,0.772,0,0,1-.02-0.15,0.888,0.888,0,0,0-.38-0.61v-0.01c0.01-.05.02-0.11,0.03-0.17a17.261,17.261,0,0,0,.2-2.96c1.33-.17,5.22-0.64,9.08-1.14,9.85-1.28,9.93-1.43,10.09-1.76l-0.04-.5c-0.22-.32-0.3-0.44-10.22.22-3.87.25-7.75,0.54-9.11,0.64a13.4,13.4,0,0,0-2.2-3.92,10.983,10.983,0,0,0-6.35-3.67,33.567,33.567,0,0,1-.27-4.25l-0.05-1.66c-0.25-8.64-.36-10.03-1.31-10.03-0.92,0-1.05,1.07-1.3,10.42l-0.02.55c-0.08,3.32-.19,4.52-0.25,4.95-1.4.32-7.59,2.06-8.7,7.9-1.26-.1-5.06-0.43-8.87-0.72-9.58-.72-9.82-0.5-10.05-0.28a0.494,0.494,0,0,0-.18.38c0,0.49.54,0.6,1.21,0.73,0.5,0.1,1.23.22,2.17,0.35,1.57,0.23,3.76.5,6.5,0.82,3.89,0.45,7.82.86,9.05,0.98,0.01,1.33.06,2.42,0.1,3.16l0.01,0.32a1.11,1.11,0,0,1-.83.62l-0.83-.05-0.13-.42-0.07.41-29.32-1.66v3.16l10.51,0.93a6.55,6.55,0,0,0-1.68,1.23,6.026,6.026,0,0,0,4.25,10.4h0.02a5.228,5.228,0,0,0,4.63-2.99,8.1,8.1,0,0,0,.38-5.38l0.31-1.93,2.47,0.38c0.03,0.22.06,0.51,0.08,0.83a0.862,0.862,0,0,0,.21.51c0,0.01,0,.01.01,0.01v0.02a11.4,11.4,0,0,1-.15,1.42,13.138,13.138,0,0,0-.16,1.66,2.242,2.242,0,0,0,.38,1.2,0.562,0.562,0,0,1,.07.13c0,0.48.15,1.89,0.32,3.34,0.02,0.23.04,0.39,0.05,0.44a1.361,1.361,0,0,0,.01.16,1.151,1.151,0,0,0-.12-0.25,1.1,1.1,0,0,0-.85-0.49,1.858,1.858,0,0,0-1.39.43c-0.53.53-.14,3.16-0.13,3.19a1.557,1.557,0,0,0,.57,1.33,1.608,1.608,0,0,0,.77.23,2.46,2.46,0,0,0,.81-0.19,2.841,2.841,0,0,0,.99-0.72l1.08,0.03a0.82,0.82,0,0,0,.48.45,2.51,2.51,0,0,0,1.79,0,0.635,0.635,0,0,0,.34-0.41,15.45,15.45,0,0,0,.25-3.18,1.114,1.114,0,0,0-1.16-.96,1.556,1.556,0,0,0-1.19.44l-0.12-2.33,0.42-.12-0.06-.88,4.12-5.16,2.71,0.38a4.507,4.507,0,0,0,.84,1.88,2.92,2.92,0,0,0,1.21.99l0.09,0.65,1.7,0.62,0.52-.76,4.97,0.27-0.06,5.01a2.257,2.257,0,0,0-.45.01,1.026,1.026,0,0,0-.79.43,0.62,0.62,0,0,0-.07.38c-0.01.18-.03,0.71-0.02,1.24,0.01,0.94.08,1.72,0.71,1.76a4.339,4.339,0,0,0,.51,0h0.52a0.591,0.591,0,0,0,.57-0.43c0.04,0,.08-0.01.11-0.01,0.06-.01.12-0.01,0.17-0.02a0.538,0.538,0,0,0,.41.41,2.91,2.91,0,0,0,1.21.05c0.03,0,.05-0.01.07-0.01,0.53-.06.56-0.69,0.6-1.49a12.233,12.233,0,0,0,0-1.49,0.674,0.674,0,0,0-.25-0.49,1.532,1.532,0,0,0-.91-0.23l-0.11-4.5,2.8-.04,0.13-.39a12.223,12.223,0,0,0,3.55-.59,3.984,3.984,0,0,0,2.77-3.06c0.37-.04.94-0.11,1.33-0.19s1.02-.25,1.41-0.36a5.365,5.365,0,0,0,1.21,1.39,5.059,5.059,0,0,0,.68.4l2.78,3.99c0,0.42-.01,1.62-0.02,2.6a0.444,0.444,0,0,0-.08-0.11c-0.16-.2-0.51-0.44-1.61-0.32a0.908,0.908,0,0,0-.67.81l-0.01.05-0.04,2.97v0.02a0.919,0.919,0,0,0,.77,1.03h0.87a1.558,1.558,0,0,0,.91-0.54,3,3,0,0,1,.43-0.37c0.13,0,.26-0.01.39-0.01a4.948,4.948,0,0,1,.77,0,0.694,0.694,0,0,1,.05.13,0.984,0.984,0,0,0,.56.65c1.43,0.45,2.07-.07,2.35-0.59l0.06-.1v-0.11c0-.1.09-2.44,0.08-2.93a1.078,1.078,0,0,0-.69-0.95,1.49,1.49,0,0,0-1.6.25,1,1,0,0,0-.2.29l0.17-3.38a2.633,2.633,0,0,0,.4-1.21c0-.43-0.1-4.06-0.12-4.72l0.14-.38,2.3-.52,0.5,2.34c-0.11.63-.57,3.88,1.19,6.08a5.717,5.717,0,0,0,4.56,1.97,5.3,5.3,0,0,0,2.82-.85c2.05-1.33,2.9-3.73,2.39-6.77a5.81,5.81,0,0,0-3.44-4.11l10.9-1v-3.36l-2.02.12c-9.05.55-22.5,1.48-25.93,1.77h0Zm-31.08,17.09,0.16,0.03,0.03-.57c0-.02.07-1.39,0.18-1.96a0.506,0.506,0,0,1,.35-0.11,0.4,0.4,0,0,1,.28.07,14.827,14.827,0,0,1-.2,2.66,1.96,1.96,0,0,1-.8-0.05v-0.07Zm37.95-23.26c-3.4.45-7.28,0.93-10.41,1.31-0.01-.18-0.02-0.38-0.03-0.58C1193.83,2164.55,1197.72,2164.28,1201.13,2164.06Zm-41.61.19c3.41,0.24,7.32.56,10.44,0.83-0.01.11-.02,0.21-0.03,0.31C1166.82,2165.08,1162.92,2164.65,1159.52,2164.25Zm-19.68,6.77v-1.24l28.17,1.6-0.11.71c-0.06.32-.2,1.21-0.24,1.83-1.76-.11-8.99-1.28-13.91-2.12a0.857,0.857,0,0,0,.03-0.99,0.556,0.556,0,0,0-.58-0.18c-0.08.01-.37,0.02-0.61,0.03-1.5.05-2.59,0.13-2.87,0.78a1.342,1.342,0,0,0-.1.45Zm28.79,3.29a3.823,3.823,0,0,1,.03-0.59,1.66,1.66,0,0,0,.63.45,1.579,1.579,0,0,1,.37.88l-1.38-.2a0.387,0.387,0,0,0,.19-0.12l0.19-.18Zm-12.93,6.73a4.249,4.249,0,0,1-3.82,2.46,4.715,4.715,0,0,1-5.05-4.35v-0.04a4.736,4.736,0,0,1,1.55-4.36,5.986,5.986,0,0,1,2.25-1.39l0.65-.17-0.65-.99a0.736,0.736,0,0,1-.01-0.33,7.135,7.135,0,0,1,2.01-.23c0.04,0,.08-0.01.12-0.01-0.05.1-.1,0.21-0.16,0.31l-0.32.59,0.67,0.12c0.03,0,1.49.26,3.49,0.59l-0.48,2.93,0.04,0.11A7.275,7.275,0,0,1,1155.7,2181.04Zm4.91,5.96a2.38,2.38,0,0,1-.73.61,0.685,0.685,0,0,1-.69.05,9.729,9.729,0,0,1-.24-3.04,1.02,1.02,0,0,1,.54-0.12,0.192,0.192,0,0,1,.12.04,5.381,5.381,0,0,1,.34,1.58l0.04,0.45h0.62l0.13,0.27h0Zm1.35-.16h-0.16a0.548,0.548,0,0,0,.04-0.25c-0.01-.4-0.14-1.33-0.26-2.16-0.02-.18-0.04-0.32-0.05-0.37s-0.01-.13-0.06-0.5c-0.08-.77-0.32-2.82-0.3-3.24a1.062,1.062,0,0,0-.22-0.62,1.38,1.38,0,0,1-.24-0.73,12.725,12.725,0,0,1,.16-1.5,10.7,10.7,0,0,0,.15-1.6,0.891,0.891,0,0,0-.22-0.58,9.734,9.734,0,0,0-.15-1.25l-0.01-.11c3.04,0.48,4.86.74,5.97,0.87l-1.44,1.8,0.02-.39-0.08-.04,0.8-.93-0.3.09-0.93.58-0.34-.2,1.01-.59-2.83-.5-0.35-.21-0.58.39-0.09,6.24,0.56-.05V2181l-0.4.12Zm2.22-10.09-0.01.26-1.65,2.23,0.04-3.46Zm23.44,1.62a9.71,9.71,0,0,1-3.54.54l-0.39-.05-0.16.46-3.1.05,0.14,6.56,0.56-.09a3.012,3.012,0,0,1,.6-0.02,17.643,17.643,0,0,1-.06,1.78,1.71,1.71,0,0,1-.32,0,0.552,0.552,0,0,0-.46-0.47,2.359,2.359,0,0,0-.75,0c-0.11.01-.22,0.02-0.32,0.02a0.579,0.579,0,0,0-.56.42h-0.41a10.625,10.625,0,0,1-.04-1.87h0.02a1.034,1.034,0,0,1,.55.06l0.73,0.41,0.09-7.38-6.47-.36-0.4.59-0.42-.15-0.13-.94-0.47.09a1.658,1.658,0,0,1-.82-0.68,3.5,3.5,0,0,1-.69-1.73l-0.02-.4-0.09-.02a2.343,2.343,0,0,0-1.05-1.93,2.256,2.256,0,0,1-.79-1.23l-0.19-.61,0.56,0.03h0.07l0.07-.01c0.64-.15,1.7-0.67,1.66-1.64l-0.02-.32c-0.04-.81-0.1-2.03-0.1-3.5,0-.09.01-0.17,0.01-0.26h2.25l2.13-.67,5,0.09,4.66-.09,2.28,0.49h2.03l-2.74-3.96h-10.57l-2.22.21-2.82,3.73c0.31-6.56,7.16-8.17,8.2-8.38h0.14c0.45-.08.5-0.54,0.56-1.3,0.09-.91.16-2.44,0.21-4.55l0.02-.56c0.08-3.17.16-6.23,0.32-8.02,0.15,1.73.24,4.63,0.32,7.64l0.05,1.66c0.05,1.83.13,3.16,0.23,3.97,0.08,0.69.17,1.16,0.61,1.23a0.647,0.647,0,0,0,.24-0.01,10.083,10.083,0,0,1,5.76,3.31,9.415,9.415,0,0,1,2.14,4.29,20.509,20.509,0,0,1-.14,4.36,2.416,2.416,0,0,0-.05.47,0.841,0.841,0,0,0,.34.6,0.218,0.218,0,0,1,.05.04,1.036,1.036,0,0,0,.35.72,2.562,2.562,0,0,0,1.69.36l-0.8,1.47h-1.05l-0.31,2.53h0v0.02l-0.07.56h0.02A3.024,3.024,0,0,1,1187.62,2178.37Zm-2.46-15.81,1.09,1.77-1.13-.25-0.44-1.52h0.48Zm-1.51,0,0.44,1.53-3.56.07v-1.6h3.12Zm-4.1,1.59-3.68-.07,0.45-1.52h3.23v1.59h0Zm-4.73.02-1.81.58h-0.28l1.53-2.03,1.02-.1Zm20.37,12.11a5.116,5.116,0,0,1-1.11-1.39l-0.19-.34-0.38.11c-0.01,0-1.12.33-1.69,0.44-0.29.06-.7,0.11-1.03,0.15l0.18-1.45h0.59v0.92l0.55-.06c0.04-.01,3.35-0.4,6.88-0.83l-0.79.55-2.98.41,1.37,0.71-1.08.75,0.13,0.2-0.1.07c-0.07-.05-0.19-0.12-0.35-0.24h0Zm2.98,2.14-1.3-1.92,1.26-.88Zm2.09-4.69-0.39,1.05v0.1c0,0.04.12,4.33,0.12,4.78a2.183,2.183,0,0,1-.32.81l-0.07.11-0.25,5.07,0.07,0.12a1.1,1.1,0,0,0,.82.58,0.775,0.775,0,0,0,.66-0.4,2.8,2.8,0,0,0,.23-0.69,3.983,3.983,0,0,1,.17-0.59,0.49,0.49,0,0,1,.41-0.09,0.333,0.333,0,0,1,.21.11c0,0.43-.06,2.22-0.08,2.73a0.941,0.941,0,0,1-1.03.07,0.694,0.694,0,0,1-.05-0.13,0.993,0.993,0,0,0-.64-0.68,4.844,4.844,0,0,0-1.14-.05c-0.14.01-.27,0.01-0.4,0.01a1.745,1.745,0,0,0-1.04.63c-0.1.09-.25,0.23-0.33,0.29h-0.56c0-.04-0.01-0.08-0.01-0.11l0.04-2.81a0.06,0.06,0,0,1,.01-0.04,1.761,1.761,0,0,1,.56.03,4.957,4.957,0,0,1,.26,1.26l0.03,0.35,0.35,0.08a1.108,1.108,0,0,0,.85-0.17,0.81,0.81,0,0,0,.31-0.64c0-.4.01-3.34,0.02-4.03l0.15,0.22-0.14-7.88,0.73-.09q0.5-.06.96-0.12Zm5.06,4.76a3.94,3.94,0,1,1,3.95,3.91h-0.01a3.935,3.935,0,0,1-3.94-3.91h0Zm6.51,4.28a4.437,4.437,0,0,1-2.26.69,5.051,5.051,0,0,1-3.41-1.18,4.912,4.912,0,0,0,3.1,1.1,4.971,4.971,0,0,0,3.68-1.64,4.539,4.539,0,0,1-1.11,1.03h0Zm1.6-6.88a4.941,4.941,0,0,0-6.79-1.54,4.872,4.872,0,0,0-1.86,2.11l0.02-.09-0.68-3.18c3.61-.47,3.69-0.55,3.82-0.69a0.967,0.967,0,0,0,.21-0.75,3.219,3.219,0,0,1,1.87.02c0.02,0.02.05,0.04,0.07,0.06l-0.23.02-0.06,1.33,0.36,0.11a5.99,5.99,0,0,1,3.27,2.6h0Zm7.8-6.51v1.43l-10.11.93a1.189,1.189,0,0,0-.48-0.73c-0.88-.7-2.82-0.2-3.2-0.09l-0.49.14,0.16,0.48a1.554,1.554,0,0,1,.05.23c-1.5.27-9.17,1.21-14.61,1.85v-2.29c0.49-.02,1.08-0.06,1.8-0.12,3.42-.3,16.86-1.23,25.91-1.77Zm-25.09,6.32-1.29-.66-0.08.22,0.76,0.81Zm61.54,13.3H1225.9a1.976,1.976,0,0,1-1.98-1.97h0v-40.25a1.965,1.965,0,0,1,1.75-1.93h1.08l0.12-.28a0.419,0.419,0,0,0,.04-0.16v-2.44a1.97,1.97,0,0,1,1.98-1.97h6.38a1.985,1.985,0,0,1,1.99,1.97h0v2.44a0.41,0.41,0,0,0,.4.41h2.47a4.39,4.39,0,0,1,2.61.99l14.84,13.24a3.984,3.984,0,0,1,1.19,2.53l0.85,25.43a1.932,1.932,0,0,1-1.87,1.99h-0.07Zm-31.85-42.59a0.377,0.377,0,0,0-.33.37v40.25a0.412,0.412,0,0,0,.41.41h31.77a0.365,0.365,0,0,0,.37-0.35v-0.03l-0.85-25.42a2.479,2.479,0,0,0-.67-1.43l-14.84-13.24a2.852,2.852,0,0,0-1.56-.59h-2.46a1.97,1.97,0,0,1-1.98-1.97h0v-2.44a0.433,0.433,0,0,0-.41-0.41h-6.39a0.417,0.417,0,0,0-.4.41v2.13h2.57a1.155,1.155,0,1,1,0,2.31h-5.23Zm28.63,39.39h-5.99v-1.56h5.99a0.386,0.386,0,0,0,.27-0.11,0.4,0.4,0,0,0,.1-0.25l-0.85-6.82,1.56-.19,0.86,6.93a1.932,1.932,0,0,1-1.86,2h-0.08Zm-1.84-22.7a1.679,1.679,0,0,1-.5-0.07l-8.42-1.51a5.382,5.382,0,0,1-4.04-4.29l-1.64-6.48a1.915,1.915,0,0,1,.83-2.19,2.066,2.066,0,0,1,2.44.41l12.23,11.24a1.673,1.673,0,0,1,.55,2.09,1.626,1.626,0,0,1-1.45.8h0Zm-8.52-3.09,8.41,1.51a0.43,0.43,0,0,0,.12.02,0.673,0.673,0,0,0-.14-0.15l-0.03-.02-12.26-11.25a0.553,0.553,0,0,0-.56-0.21,0.421,0.421,0,0,0-.11.46l1.66,6.54a3.828,3.828,0,0,0,2.9,3.1h0.01Zm-14.73,1.74h-1.57v-9.27h1.57v9.27Zm-108.66-10.66v-0.7h-1.06v-2.52h3.31v-0.24h-3.31v-0.74h-1v3.5h-1.06v0.7h-3.19a4.179,4.179,0,0,1,0-8.35h9.53a4.179,4.179,0,0,1,0,8.35h-3.22Zm-6.31-6.81a2.64,2.64,0,0,0,0,5.26h1.63v-0.69h1.06v-2.88a1.228,1.228,0,0,1-1.06-1.22,1.267,1.267,0,0,1,.09-0.47h-1.72Zm10.12,1.24v3.94a2.59,2.59,0,0,0,1.82-2.55,2.524,2.524,0,0,0-2.41-2.63h-1.76a1.267,1.267,0,0,1,.09.47,1.205,1.205,0,0,1-.27.77h2.53Zm-3.1.56v-0.16a0.8,0.8,0,0,1-.21.05v0.11h0.21Zm-5.43,40.85a1.46,1.46,0,1,1-.02-2.92h1.41a1.46,1.46,0,1,1,.02,2.92h-1.41Zm-4.93,0a1.46,1.46,0,1,1-.02-2.92h1.42a1.46,1.46,0,1,1,.02,2.92h-1.42Zm14.78,0a1.46,1.46,0,1,1-.02-2.92h1.41a1.46,1.46,0,1,1,.02,2.92h-1.41Zm-4.93,0a1.46,1.46,0,1,1-.02-2.92h1.42a1.46,1.46,0,1,1,.02,2.92h-1.42Zm-14.07,1.68v-2.36h1.22v-1.16c-4.22-1.65-6.63-4.12-6.63-6.82v-21.76c0-2.7,2.41-5.17,6.63-6.82v-7.11a0.934,0.934,0,0,1-.48-1.24,0.946,0.946,0,0,1,.87-0.56h21.4a0.94,0.94,0,0,1,.38,1.8v7.11c4.22,1.65,6.63,4.12,6.63,6.82v21.76c0,2.7-2.41,5.17-6.63,6.82v1.16h1.23v2.36h-24.62Zm21.83-1.55v-3.04l0.66-.25c3.74-1.38,5.98-3.44,5.98-5.5v-21.76c0-2.06-2.24-4.12-5.98-5.5l-0.66-.24v-8.44h-19.05v8.44l-0.66.24c-3.74,1.38-5.97,3.44-5.97,5.5v21.76c0,2.06,2.23,4.12,5.97,5.5l0.66,0.25v3.04h19.05Z" transform="translate(-1096.03 -2140)"/>
</svg>
