<svg xmlns="http://www.w3.org/2000/svg" width="103" height="103" viewBox="0 0 103 103">
  <defs>
    <style>
      .cls-1 {
        fill: #fff;
        fill-rule: evenodd;
      }
    </style>
  </defs>
  <path id="mission-icon.svg" class="cls-1" d="M473.229,799.064a51.457,51.457,0,1,1,23.976-31.246A51.123,51.123,0,0,1,473.229,799.064Zm-51.083-88.479a50.708,50.708,0,1,0,69.269,18.561A50.766,50.766,0,0,0,422.146,710.585Zm23.483,39.839a6.638,6.638,0,1,1,2.43-9.068A6.645,6.645,0,0,1,445.629,750.424Zm-6.13-10.618a5.623,5.623,0,1,0,7.681,2.057A5.629,5.629,0,0,0,439.5,739.806Zm4.835,4.287a0.508,0.508,0,0,1-.694-0.186,1.538,1.538,0,0,0-2.1-.562,0.508,0.508,0,1,1-.508-0.879,2.555,2.555,0,0,1,3.486.933A0.509,0.509,0,0,1,444.334,744.093Zm33.844,30.012a0.509,0.509,0,0,1-.434.035l-12.292-4.648,0.16,0.8a3.57,3.57,0,0,1-1.71,3.8l-3.018,1.742,3.322,5.754a0.508,0.508,0,1,1-.879.508L460,776.339l-3.017,1.742a3.57,3.57,0,0,1-4.145-.418l-0.61-.538-2.121,12.97a0.512,0.512,0,0,1-.248.358,0.488,0.488,0,0,1-.161.059,0.511,0.511,0,0,1-.533-0.245l-5.451-9.442a8.678,8.678,0,0,1-1.155-4.715l0.52-11.425-0.092-.128c-4.992-6.9-8.812-12.515-10.48-15.4a23.766,23.766,0,0,1-2.982-15.605,21.909,21.909,0,0,1,2.12-6.816,0.506,0.506,0,0,1,.19-0.194,0.513,0.513,0,0,1,.262-0.068,22.013,22.013,0,0,1,6.964,1.573,23.765,23.765,0,0,1,12.022,10.385c1.671,2.894,4.624,9.009,8.1,16.778l0.065,0.144,10.153,5.261a8.675,8.675,0,0,1,3.507,3.358l5.451,9.442a0.509,0.509,0,0,1-.053.583A0.489,0.489,0,0,1,478.178,774.105Zm-34.6,2.05a7.648,7.648,0,0,0,1.02,4.162l4.74,8.21,2.066-12.634-0.117-.154c-2.195-2.888-4.379-5.816-6.492-8.7L444.04,766Zm16.855-18.148c1.452,3.293,2.9,6.649,4.291,9.974l0.075,0.179,11.975,4.527-4.74-8.21a7.665,7.665,0,0,0-3.1-2.965l-9.021-4.675Zm-9.181,2.156a0.508,0.508,0,0,1,.693.185l8.431,14.6,3.018-1.742a2.563,2.563,0,0,0,1.078-3.2c-1.919-4.618-4.012-9.472-6.051-14.038l-0.007-.015-0.008-.015c-0.007-.015-0.013-0.03-0.019-0.045l-0.01-.022c-3.507-7.85-6.485-14.025-8.169-16.942a22.718,22.718,0,0,0-7.4-7.836l-0.231-.149-1.716.991a0.508,0.508,0,1,1-.508-0.879l1.235-.713-0.735-.378a23.273,23.273,0,0,0-8.139-2.444l-0.318-.03-0.133.29a22.676,22.676,0,0,0-1.739,5.99c-0.113.766-.19,1.536-0.228,2.289l-0.043.827,6.561-3.788a0.508,0.508,0,1,1,.508.879l-7.044,4.067,0.014,0.274a22.686,22.686,0,0,0,3.1,10.319c1.682,2.913,5.541,8.579,10.589,15.546l0.014,0.019a0.311,0.311,0,0,1,.031.043l0.017,0.025c2.933,4.047,6.091,8.286,9.132,12.259a2.563,2.563,0,0,0,3.307.664l3.017-1.742-8.431-14.6A0.507,0.507,0,0,1,451.252,760.163Z" transform="translate(-396 -703)"/>
</svg>
