<svg xmlns="http://www.w3.org/2000/svg" width="112.78" height="106" viewBox="0 0 112.78 106">
  <defs>
    <style>
      .cls-1 {
        fill: #26d07c;
        fill-rule: evenodd;
      }
    </style>
  </defs>
  <path id="other-iocn.svg" class="cls-1" d="M1410.93,2132.22c-0.07.04-.14,0.09-0.22,0.14a0.9,0.9,0,0,0-.41,1.01c0.06,0.28.13,0.55,0.2,0.83a1.009,1.009,0,0,0,1.2.6,0.987,0.987,0,0,0,.56-1.1c-0.07-.28-0.18-0.63-0.25-0.91A0.822,0.822,0,0,0,1410.93,2132.22Zm-27.96,34.79c-0.24-.06-0.55-0.07-0.79-0.12a1.454,1.454,0,0,0-.61.18,1,1,0,0,0-.46.61,0.879,0.879,0,0,0,.73,1.02,4.627,4.627,0,0,0,.92.15,0.856,0.856,0,0,0,.99-0.75A0.977,0.977,0,0,0,1382.97,2167.01Zm-20.18-15.18a0.846,0.846,0,0,0-1.1-.45s-0.08.05-.15,0.09a0.978,0.978,0,0,0-.32,1.17c0.14,0.23.25,0.58,0.39,0.8a1.025,1.025,0,0,0,1.18.41,1.067,1.067,0,0,0,.4-1.21C1363,2152.33,1362.93,2152.06,1362.79,2151.83Zm-1.1-3.32c-0.07-.27-0.14-0.55-0.2-0.83a1.135,1.135,0,0,0-1.05-.7c-0.08.05-.15,0.1-0.23,0.15a0.918,0.918,0,0,0-.41,1.01c0.07,0.28.18,0.63,0.25,0.9a0.935,0.935,0,0,0,1.07.58A0.988,0.988,0,0,0,1361.69,2148.51Zm29.59,18.21-0.81.21a0.5,0.5,0,0,0-.34.11,0.88,0.88,0,0,0-.38.89,0.9,0.9,0,0,0,1.05.7,5.344,5.344,0,0,0,.92-0.18,0.928,0.928,0,0,0,.69-1.07A0.866,0.866,0,0,0,1391.28,2166.72Zm-28.77-35.21c0.06-.25.19-0.54,0.24-0.79a0.892,0.892,0,0,0-.43-1.21,1.108,1.108,0,0,0-.78.08,1.288,1.288,0,0,0-.35.44,4.365,4.365,0,0,1-.31.84,0.972,0.972,0,0,0,.51,1.16A0.923,0.923,0,0,0,1362.51,2131.51Zm1.87-3.86c0.18-.22.3-0.52,0.48-0.74a0.929,0.929,0,0,0-.24-1.22,0.813,0.813,0,0,0-.94-0.03,0.512,0.512,0,0,0-.25.27,3.184,3.184,0,0,0-.48.73,0.9,0.9,0,0,0,.24,1.23A0.853,0.853,0,0,0,1364.38,2127.65Zm22.79,39.61c-0.32,0-.51.02-0.83,0.01a0.674,0.674,0,0,0-.42.16,0.967,0.967,0,0,0-.43.81,0.873,0.873,0,0,0,.88.92c0.31,0.01.58-.06,0.9-0.05a0.99,0.99,0,0,0,.85-0.97A0.9,0.9,0,0,0,1387.17,2167.26Zm-26.28-22.91c-0.07-.27-0.06-0.6-0.12-0.87a0.73,0.73,0,0,0-1.2-.6,0.941,0.941,0,0,0-.44.81,4.566,4.566,0,0,0,.05.92,0.876,0.876,0,0,0,.98.75A0.894,0.894,0,0,0,1360.89,2144.35Zm13.37,19.91a1.007,1.007,0,0,0-.9.06,0.734,0.734,0,0,0-.32.31,0.831,0.831,0,0,0,.43,1.21,3.31,3.31,0,0,0,.79.44,0.919,0.919,0,0,0,1.17-.44,0.973,0.973,0,0,0-.43-1.21A3.912,3.912,0,0,1,1374.26,2164.26Zm4.63,1.99c-0.24-.05-0.53-0.19-0.77-0.24a0.77,0.77,0,0,0-.78.08,0.961,0.961,0,0,0-.42.49,0.869,0.869,0,0,0,.58,1.11c0.29,0.13.6,0.14,0.89,0.27a0.847,0.847,0,0,0,1.08-.6A0.883,0.883,0,0,0,1378.89,2166.25Zm31.24-16.31a1.58,1.58,0,0,0-.35.44,4.621,4.621,0,0,1-.31.84,0.965,0.965,0,0,0,.51,1.16,0.916,0.916,0,0,0,1.13-.52,4.621,4.621,0,0,1,.31-0.84,0.983,0.983,0,0,0-.51-1.16A0.8,0.8,0,0,0,1410.13,2149.94Zm1.47-13.27a0.863,0.863,0,0,0-.38.89,3,3,0,0,0,.12.87,0.865,0.865,0,0,0,.98.75,0.883,0.883,0,0,0,.72-1c-0.06-.28-0.05-0.6-0.12-0.88a0.885,0.885,0,0,0-.98-0.75A0.539,0.539,0,0,0,1411.6,2136.67Zm-41.02,25.31a0.727,0.727,0,0,0-1-.1c-0.07.04-.1,0.17-0.17,0.21a0.953,0.953,0,0,0,.16,1.28,8.812,8.812,0,0,0,.76.57,0.857,0.857,0,0,0,1.2-.25,0.9,0.9,0,0,0-.24-1.22A2.878,2.878,0,0,1,1370.58,2161.98Zm-3.08-3a0.847,0.847,0,0,0-1.12-.13c-0.07.05-.07,0.05-0.15,0.1a0.97,0.97,0,0,0-.07,1.22c0.21,0.18.4,0.48,0.61,0.66a0.863,0.863,0,0,0,1.26.03,0.915,0.915,0,0,0,.03-1.29C1367.85,2159.39,1367.71,2159.16,1367.5,2158.98Zm41.47-30.8a0.9,0.9,0,0,0-.32,1.16c0.19,0.3.25,0.58,0.39,0.81a0.858,0.858,0,0,0,1.18.4,1.067,1.067,0,0,0,.4-1.21c-0.14-.23-0.26-0.58-0.4-0.81a0.874,0.874,0,0,0-1.18-.4Zm-44.08,27.39a0.828,0.828,0,0,0-1.21-.28,1.018,1.018,0,0,0-.18,1.39c0.14,0.23.33,0.54,0.47,0.76a0.987,0.987,0,0,0,1.23.16,1,1,0,0,0,.15-1.27C1365.17,2156.03,1365.03,2155.8,1364.89,2155.57Zm24.76-40.15c0.24,0.05.56,0.06,0.8,0.12a0.887,0.887,0,0,0,1.06-.8,0.941,0.941,0,0,0-.73-1.01c-0.31-.01-0.6-0.14-0.91-0.15a0.953,0.953,0,0,0-.54.13,1.174,1.174,0,0,0-.41.69A0.879,0.879,0,0,0,1389.65,2115.42Zm-4.19-.26c0.31,0.01.51-.01,0.82,0a0.961,0.961,0,0,0,.93-1.03,0.879,0.879,0,0,0-.88-0.92,3.288,3.288,0,0,1-.9.05,0.649,0.649,0,0,0-.41.17,0.953,0.953,0,0,0-.44.81A0.885,0.885,0,0,0,1385.46,2115.16Zm-4.28.44a3.288,3.288,0,0,0,.85-0.13,0.884,0.884,0,0,0-.25-1.75,8.39,8.39,0,0,1-.92.17,0.662,0.662,0,0,0-.35.12,0.88,0.88,0,0,0-.38.89A0.914,0.914,0,0,0,1381.18,2115.6Zm18.4,2.52a0.759,0.759,0,0,0-.38-1.14c-0.29-.13-0.5-0.31-0.79-0.44a1.04,1.04,0,0,0-.9.05,0.82,0.82,0,0,0-.32.32,0.973,0.973,0,0,0,.43,1.21,4.494,4.494,0,0,1,.74.36A0.87,0.87,0,0,0,1399.58,2118.12Zm8.9,35.86a0.7,0.7,0,0,0-.32.32c-0.18.22-.3,0.52-0.48,0.74a0.9,0.9,0,0,0,.24,1.22,0.843,0.843,0,0,0,1.19-.24c0.13-.3.31-0.52,0.43-0.81a0.929,0.929,0,0,0-.35-1.26A0.589,0.589,0,0,0,1408.48,2153.98Zm-12.73-37.73a0.886,0.886,0,0,0-.51-1.16,4.922,4.922,0,0,1-.89-0.27,0.748,0.748,0,0,0-.78.08,0.65,0.65,0,0,0-.35.43,0.883,0.883,0,0,0,.58,1.12,3.522,3.522,0,0,1,.77.24A1.119,1.119,0,0,0,1395.75,2116.25Zm7.39,4.45a1.06,1.06,0,0,0-.09-1.32,6.427,6.427,0,0,1-.77-0.57,0.739,0.739,0,0,0-.94-0.03,1.767,1.767,0,0,0-.25.27,0.956,0.956,0,0,0,.16,1.28c0.22,0.18.43,0.36,0.64,0.54A0.91,0.91,0,0,0,1403.14,2120.7Zm-36.27,3.42c0.18-.22.35-0.44,0.53-0.66a0.845,0.845,0,1,0-.96-1.39c-0.08.05-.15,0.09-0.23,0.14-0.17.22-.42,0.49-0.6,0.71a0.813,0.813,0,0,0,.05,1.25A0.76,0.76,0,0,0,1366.87,2124.12Zm39.37-.22a0.964,0.964,0,0,0,.03-1.3c-0.22-.18-0.4-0.48-0.62-0.66a0.822,0.822,0,0,0-1.11-.13,0.746,0.746,0,0,1-.15.09,0.927,0.927,0,0,0-.03,1.3c0.26,0.26.4,0.48,0.61,0.66A0.906,0.906,0,0,0,1406.24,2123.9Zm2.48,3.7a0.864,0.864,0,0,0,.27-1.24c-0.14-.23-0.33-0.53-0.47-0.76a0.882,0.882,0,1,0-1.48.96c0.19,0.3.33,0.53,0.47,0.76A0.82,0.82,0,0,0,1408.72,2127.6Zm-9.35,35.79c-0.3.2-.52,0.34-0.74,0.48l-0.07.05a0.99,0.99,0,0,0-.28,1.24,0.752,0.752,0,0,0,1.14.33c0.22-.15.51-0.34,0.74-0.48a0.914,0.914,0,0,0,.27-1.24A0.95,0.95,0,0,0,1399.37,2163.39Zm-29.49-42.28c0.3-.19.47-0.41,0.69-0.55a0.936,0.936,0,0,0,.16-1.27,0.917,0.917,0,0,0-1.16-.21l-0.08.05c-0.22.15-.47,0.41-0.69,0.56a0.894,0.894,0,0,0-.15,1.26A0.81,0.81,0,0,0,1369.88,2121.11Zm24.73,44.63c-0.08.05-.08,0.05-0.15,0.09a0.89,0.89,0,0,0-.37,1.09,0.954,0.954,0,0,0,1.15.53c0.27-.07.57-0.26,0.84-0.33a0.933,0.933,0,0,0,.51-1.18,0.945,0.945,0,0,0-1.23-.48C1395.1,2165.53,1394.87,2165.67,1394.61,2165.74Zm11.28-8.06c-0.07.05-.15,0.1-0.22,0.14-0.17.22-.35,0.44-0.53,0.66a0.876,0.876,0,0,0,.05,1.25,0.813,0.813,0,0,0,1.21-.04c0.18-.22.43-0.49,0.6-0.71a0.956,0.956,0,0,0-.16-1.28A0.79,0.79,0,0,0,1405.89,2157.68Zm-3.11,3.18-0.07.05c-0.3.19-.47,0.41-0.7,0.56a0.915,0.915,0,0,0-.15,1.27,0.82,0.82,0,0,0,1.24.15,2.982,2.982,0,0,0,.69-0.55,1.089,1.089,0,0,0,.15-1.27A0.93,0.93,0,0,0,1402.78,2160.86ZM1378,2116.49a1.073,1.073,0,0,0,.52-1.19,0.829,0.829,0,0,0-1.08-.57c-0.27.06-.57,0.26-0.84,0.32l-0.14.1a0.89,0.89,0,0,0-.37,1.09,0.909,0.909,0,0,0,1.15.53C1377.51,2116.7,1377.73,2116.55,1378,2116.49Zm-3.88,1.76a0.713,0.713,0,0,0,.25-1.11,0.783,0.783,0,0,0-1.18-.4,2.939,2.939,0,0,0-.79.4,0.987,0.987,0,0,0-.27,1.24,0.863,0.863,0,0,0,1.21.28A3.138,3.138,0,0,0,1374.12,2118.25Zm-13.4,22.29a3.322,3.322,0,0,0-1.5-6.47,3.349,3.349,0,0,0-2.4,4A3.257,3.257,0,0,0,1360.72,2140.54Zm-2.56-2.81a1.906,1.906,0,0,1,1.39-2.28,1.852,1.852,0,0,1,2.23,1.43,1.916,1.916,0,0,1-1.39,2.28A1.864,1.864,0,0,1,1358.16,2137.73Zm55.99,6.96-1.29-3.1a0.619,0.619,0,0,0-1.04-.18l-1.93,2.74-1.94,2.74a0.653,0.653,0,0,0,.42,1.01l3.21,0.36,3.22,0.36a0.6,0.6,0,0,0,.63-0.84Zm-27.5-5.41a7.92,7.92,0,0,1-3.34-1.57,3.42,3.42,0,0,1-.99-2.57,3.685,3.685,0,0,1,1.07-2.81,4.17,4.17,0,0,1,2.99-1.02,3.788,3.788,0,0,1,2.82,1,5.015,5.015,0,0,1,1.21,3.04h2.5a6.537,6.537,0,0,0-1.88-4.6,6.252,6.252,0,0,0-3.61-1.62v-2.76h-2.54v2.84a6.1,6.1,0,0,0-3.21,1.58,5.715,5.715,0,0,0-1.84,4.4,5.5,5.5,0,0,0,1.44,3.9,9.16,9.16,0,0,0,4.35,2.33,9.594,9.594,0,0,1,3.9,1.79,3.678,3.678,0,0,1,1.15,2.84,4.525,4.525,0,0,1-1.2,3.34,4.59,4.59,0,0,1-3.35,1.2,4.439,4.439,0,0,1-3.33-1.2,4.787,4.787,0,0,1-1.22-3.4h-2.47l-0.04.55a5.8,5.8,0,0,0,1.92,4.21,7.112,7.112,0,0,0,3.9,1.99v3.27h2.54v-3.29a6.562,6.562,0,0,0,5.74-6.73,5.7,5.7,0,0,0-1.6-4.14A10.485,10.485,0,0,0,1386.65,2139.28Zm-73.26,41.08a6.03,6.03,0,0,0-1.52.19,6.139,6.139,0,0,0-3.79,2.94,6.389,6.389,0,0,0-.69,4.72,6.484,6.484,0,0,0,6.09,4.79,5.257,5.257,0,0,0,1.37-.18,6.6,6.6,0,0,0,4.49-7.67A6.176,6.176,0,0,0,1313.39,2180.36Zm4.19,8.86a4.857,4.857,0,0,1-2.88,2.3,4.443,4.443,0,0,1-1.19.17,4.912,4.912,0,0,1-4.67-3.63,5.007,5.007,0,0,1,.5-3.72,4.821,4.821,0,0,1,2.88-2.3,4.278,4.278,0,0,1,1.19-.17,4.922,4.922,0,0,1,4.67,3.63A5.067,5.067,0,0,1,1317.58,2189.22Zm102.04-94.86-0.19-7.15a0.794,0.794,0,0,0-.36-0.21l-11.57,7.67-0.15.38,12.28,6.5,0.19,0.05,0.18-.08Zm-15.56,20.18a1.137,1.137,0,0,0,.73-0.38l1.02-1.86a0.557,0.557,0,0,0,.09-0.4,0.79,0.79,0,0,0-.74-0.57,1.033,1.033,0,0,0-.69.28l-0.95,1.76a1,1,0,0,0,.1,1.1A0.711,0.711,0,0,0,1404.06,2114.54Zm3.37-5.43a1.238,1.238,0,0,0,.73-0.38l1.01-1.86a0.513,0.513,0,0,0,.09-0.4,0.654,0.654,0,0,0-.34-0.45,0.7,0.7,0,0,0-.4-0.12,1,1,0,0,0-.68.27l-0.96,1.77a1,1,0,0,0,.11,1.1A0.679,0.679,0,0,0,1407.43,2109.11Zm4.02-8.28a1.055,1.055,0,0,0-.69.27l-0.95,1.77a0.965,0.965,0,0,0,.11,1.09,0.608,0.608,0,0,0,.44.08,1.161,1.161,0,0,0,.72-0.38l1.02-1.86a0.814,0.814,0,0,0-.25-0.86A0.8,0.8,0,0,0,1411.45,2100.83Zm-63.23,23.98a1.164,1.164,0,0,0-.96-0.27,0.87,0.87,0,0,0-.73.47l-28.48,51.93a0.807,0.807,0,0,0,.29,1.1,0.679,0.679,0,0,0,.44.07,0.8,0.8,0,0,0,.72-0.38l28.15-51.31,7.69,7.81a0.618,0.618,0,0,0,.59.27,2.314,2.314,0,0,0,.46-0.16,0.8,0.8,0,0,0,.25-0.52,1.025,1.025,0,0,0-.04-0.52Z" transform="translate(-1307.22 -2087)"/>
</svg>
