<?xml version="1.0" encoding="utf-8"?>
<!-- Generator: Adobe Illustrator 19.2.1, SVG Export Plug-In . SVG Version: 6.00 Build 0)  -->
<svg version="1.1" id="Layer_1" xmlns="http://www.w3.org/2000/svg" xmlns:xlink="http://www.w3.org/1999/xlink" x="0px" y="0px"
	 viewBox="-228.5 362 47 70" style="enable-background:new -228.5 362 47 70;" xml:space="preserve">
<style type="text/css">
	.st0{fill:#FFFFFF;}
</style>
<path class="st0" d="M-223,432c-3,0-5.5-2.5-5.5-5.5v-30.9c0-7,1.9-13.9,5.6-19.9l8.2-13.3c0.1-0.2,0.3-0.3,0.5-0.3h10.8
	c0.4,0,0.6,0.3,0.6,0.7v19.5h-1.3v-18.9h-9.8l-8,13c-3.5,5.8-5.4,12.4-5.4,19.2v30.9c0,2.3,1.9,4.2,4.2,4.2h36.1
	c2.3,0,4.2-1.9,4.2-4.2v-32.5c0-2.3-1.9-4.2-4.2-4.2h-25.4c-2.3,0-4.2,1.9-4.2,4.2v19.6h-1.3v-19.6c0-3.1,2.4-5.5,5.5-5.5h25.4
	c3,0,5.5,2.5,5.5,5.5v32.5c0,3.1-2.4,5.5-5.5,5.5H-223z"/>
</svg>
