<svg xmlns="http://www.w3.org/2000/svg" width="113" height="82" viewBox="0 0 113 82">
  <defs>
    <style>
      .cls-1 {
        fill: #26d07c;
        fill-rule: evenodd;
      }
    </style>
  </defs>
  <path id="retail-icon.svg" class="cls-1" d="M988,2103.7H875V2096H988v7.7Zm-0.839-.85v-6H875.838v6H987.161Zm0.747-2.44H875v-1.11H987.746Zm0-3.3H875V2096H987.9v1.11h0.006Zm-59.235,12.36a7.488,7.488,0,0,1,5.658,0v58.84l-5.658-.12v-58.72Zm4.815,58.13v-57.57a5.99,5.99,0,0,0-1.879-.27,6.825,6.825,0,0,0-2.1.3v57.4Zm49.872-63.61-21.327,8.08h-27.71v0.85h27.859l25.81-9.78H875l25.811,9.78H928.67v-0.85H900.961l-21.323-8.08m3.335,74.01h97.054v-4.06H882.97V2178h0Zm8.165-12.36c-0.077,0-.154-0.01-0.229-0.01-1.782-.13-3.635-1.79-3.569-4.62,0.068-2.74,1.08-5.1,2.142-7.6,1.22-2.87.892-6,.892-9.86h1.02c0,4.08.286,7.31-.975,10.26a19.668,19.668,0,0,0-2.058,7.23c-0.054,2.17,1.311,3.46,2.624,3.56,1.041,0.09,2.213-.6,2.475-2.72a25.187,25.187,0,0,0-.3-7.58,8.008,8.008,0,0,1-.187-2.75,2.246,2.246,0,0,1,2.085-1.9v1.04a1.209,1.209,0,0,0-1.09,1.09,7.838,7.838,0,0,0,.2,2.35,26.1,26.1,0,0,1,.31,7.88c-0.333,2.7-1.953,3.63-3.335,3.63h0Zm0.122-22.32h-0.753v-0.33h0.753v0.33Zm0.353,0.61h-1.461v-0.64h1.454v0.64h0.007Zm0.786-6.37a3.184,3.184,0,0,0-.21,1.68,8.656,8.656,0,0,0,1.179,2.78l0.478-.14a6.167,6.167,0,0,1-1.268-2.56,2.613,2.613,0,0,1,.254-1.84Zm-0.7,4.92v-4.69h-1.637v4.69H891.7Zm0,0v-4.69h-1.637v4.69H891.7Zm-0.112.51v-0.51h-1.413v0.51h1.413Zm-0.136-8.17a9.594,9.594,0,0,1,3.17-3.68l0.387,0.6a8.625,8.625,0,0,0-2.789,3.54Zm0.248,6.82a4.163,4.163,0,0,0,2.074-.02,0.332,0.332,0,0,0,.231-0.38l-0.549-3.04a0.57,0.57,0,0,0-.659-0.47h-0.007c-0.228.04-.474,0.1-0.728,0.17a14.907,14.907,0,0,0-2.038.78l-0.579-.12a0.088,0.088,0,0,1-.067-0.1l0.318-1.55a0.081,0.081,0,0,1,.1-0.07l0.1,0.02,1.179-1.99a0.238,0.238,0,0,1,.33-0.1,0.018,0.018,0,0,1,.019.01l0.825,0.49a0.268,0.268,0,0,1,.087.36l-0.313.53a0.706,0.706,0,0,1,.143.04,2.329,2.329,0,0,1,1.695,1.19h0v0.02a40.518,40.518,0,0,1,.786,4.14,0.6,0.6,0,0,1-.359.61,4.66,4.66,0,0,1-2.581.33C891.356,2142.43,891.422,2141.58,891.7,2141.64Zm23.42,29.2a1.136,1.136,0,0,0-1.116-1.14H894.554a1.127,1.127,0,0,0-1.121,1.13v1.99h21.69v-1.98h0Zm-20.068-1.14v-35.79c0-2.58,6.657-3.14,9.223-3.14s9.222,0.56,9.222,3.14v35.79H895.056Zm9.223-37.79c-4.472,0-8.1,1.13-8.1,2v35.79h16.193v-35.79c0-.87-3.63-2-8.1-2h0Zm-5.186,13.36a0.285,0.285,0,0,1-.282-0.29h0v-8.36a0.284,0.284,0,0,1,.281-0.29h10.372a0.283,0.283,0,0,1,.282.28v8.37a0.285,0.285,0,0,1-.281.29H899.093Zm10.371-8.65H899.088v8.36h10.371v-8.36h0.005Zm-5.185,22.75a2.678,2.678,0,0,1-2.687-2.67,2.721,2.721,0,0,1,.067-0.62,19.5,19.5,0,0,1,2.62-4.82,19.494,19.494,0,0,1,2.618,4.82,2.686,2.686,0,0,1-2.009,3.22,2.549,2.549,0,0,1-.614.07h0Zm0-8.88a4.825,4.825,0,1,0,4.763,4.86c0-.01,0-0.02,0-0.03a4.8,4.8,0,0,0-4.766-4.83h0Zm5.3,4.83a5.3,5.3,0,1,1-5.3-5.37,5.312,5.312,0,0,1,5.3,5.37h0Zm-8.8-11.42h-0.7v-1.28h0.7v1.28Zm0.933,0h-0.7v-1.28h0.7v1.28Zm0.935,0h-0.7v-1.28h0.7v1.28Zm0.933,0h-0.7v-1.28h0.7v1.28Zm2.2,0h-0.7v-1.28h0.7v1.28Zm0.934,0h-0.7v-1.28h0.7v1.28Zm0.934,0h-0.7v-1.28h0.7v1.28Zm0.934,0h-0.7v-1.28h0.7v1.28Zm0-3.1h-8.51v-2.53h8.5v2.53h0Zm37.49,24.84c-0.078,0-.154-0.01-0.229-0.01-1.782-.13-3.636-1.79-3.57-4.62,0.069-2.74,1.075-5.1,2.142-7.6,1.221-2.87.892-6,.892-9.86h1.021c0,4.08.286,7.31-.976,10.26a19.706,19.706,0,0,0-2.058,7.23c-0.055,2.17,1.312,3.46,2.625,3.56,1.04,0.09,2.213-.6,2.474-2.72a25.122,25.122,0,0,0-.305-7.58,8.007,8.007,0,0,1-.185-2.75,2.245,2.245,0,0,1,2.085-1.9v1.04a1.211,1.211,0,0,0-1.091,1.09,7.839,7.839,0,0,0,.2,2.35,26.1,26.1,0,0,1,.31,7.88c-0.335,2.7-1.956,3.63-3.337,3.63h0Zm0.122-22.32h-0.753v-0.33H946.2v0.33Zm0.353,0.61h-1.459v-0.64h1.459v0.64Zm0.786-6.37a3.2,3.2,0,0,0-.21,1.68,8.658,8.658,0,0,0,1.18,2.78l0.478-.14a6.153,6.153,0,0,1-1.267-2.56,2.608,2.608,0,0,1,.254-1.84Zm-0.7,4.92v-4.69H945v4.69h1.637Zm0,0v-4.69H945v4.69h1.637Zm-0.112.51v-0.51h-1.413v0.51h1.413Zm-0.137-8.17a9.594,9.594,0,0,1,3.17-3.68l0.388,0.6a8.627,8.627,0,0,0-2.79,3.54Zm0.249,6.82a4.154,4.154,0,0,0,2.072-.02,0.332,0.332,0,0,0,.232-0.38l-0.549-3.04a0.571,0.571,0,0,0-.66-0.47h-0.006c-0.227.04-.475,0.1-0.727,0.17a14.87,14.87,0,0,0-2.039.78l-0.579-.12a0.086,0.086,0,0,1-.066-0.1l0.318-1.55a0.081,0.081,0,0,1,.1-0.07l0.1,0.02,1.179-1.99a0.237,0.237,0,0,1,.33-0.1,0.018,0.018,0,0,1,.019.01l0.824,0.49a0.27,0.27,0,0,1,.088.36l-0.314.53a0.734,0.734,0,0,1,.144.04,2.329,2.329,0,0,1,1.694,1.19h0v0.02a40.792,40.792,0,0,1,.786,4.14,0.6,0.6,0,0,1-.36.61,4.657,4.657,0,0,1-2.58.33c-0.355-.06-0.287-0.91-0.013-0.85h0.006Zm23.419,29.2a1.137,1.137,0,0,0-1.117-1.14H949.482a1.127,1.127,0,0,0-1.122,1.13v1.99h21.69v-1.98h0.007Zm-38.556-3.38h-18v0.85h36.491v-0.85H931.5Zm38.282,0h-1.349v0.85h1.076l7.882,5.77H885.645l8.025-5.77h1.382v-0.85H893.4l-10.383,7.47h96.961Zm-19.793,2.24v-35.79c0-2.58,6.657-3.14,9.222-3.14s9.222,0.56,9.222,3.14v35.79H949.99Zm9.222-37.79c-4.471,0-8.1,1.13-8.1,2v35.79h16.191v-35.79c0-.87-3.627-2-8.1-2h0Zm-5.187,13.36a0.285,0.285,0,0,1-.281-0.29h0v-8.36a0.285,0.285,0,0,1,.281-0.29H964.4a0.284,0.284,0,0,1,.282.28v8.37a0.285,0.285,0,0,1-.281.29H954.025Zm10.373-8.65H954.022v8.36H964.4v-8.36h0Zm-5.186,22.75a2.678,2.678,0,0,1-2.688-2.67,2.721,2.721,0,0,1,.068-0.62,19.5,19.5,0,0,1,2.62-4.82,19.531,19.531,0,0,1,2.619,4.82,2.686,2.686,0,0,1-2.01,3.22,2.519,2.519,0,0,1-.611.07h0Zm0-8.88a4.825,4.825,0,1,0,4.764,4.86v-0.03a4.8,4.8,0,0,0-4.765-4.83h0Zm5.3,4.83a8.048,8.048,0,1,1,0-.01v0.01h0Zm-8.8-11.42h-0.7v-1.28h0.7v1.28Zm0.934,0h-0.7v-1.28h0.7v1.28Zm0.934,0h-0.7v-1.28h0.7v1.28Zm0.934,0h-0.7v-1.28h0.7v1.28Zm2.2,0h-0.7v-1.28h0.7v1.28Zm0.934,0h-0.7v-1.28h0.7v1.28Zm0.934,0h-0.7v-1.28h0.7v1.28Zm0.934,0h-0.7v-1.28h0.7v1.28Zm0-3.1h-8.5v-2.53h8.5v2.53Z" transform="translate(-875 -2096)"/>
</svg>
