<svg xmlns="http://www.w3.org/2000/svg" width="144" height="99" viewBox="0 0 144 99">
  <defs>
    <style>
      .cls-1 {
        fill: #26d07c;
        fill-rule: evenodd;
      }
    </style>
  </defs>
  <path id="store.svg" class="cls-1" d="M444.675,2041a0.546,0.546,0,0,0,.379-0.1l11.59-9.2a0.38,0.38,0,0,0,0-.5,0.7,0.7,0,0,0-.631,0l-11.589,9.2a0.378,0.378,0,0,0,0,.5C444.424,2041,444.549,2041,444.675,2041Zm-1.136,3.2a0.547,0.547,0,0,0,.379-0.1l19.9-15.8a0.3,0.3,0,0,0,0-.5,0.528,0.528,0,0,0-.632,0l-19.9,15.8a0.378,0.378,0,0,0,0,.5c0,0.1.13,0.1,0.257,0.1h0Zm14.612-13.8a0.547,0.547,0,0,0,.379-0.1l1.642-1.3a0.3,0.3,0,0,0,0-.5,0.528,0.528,0,0,0-.632,0l-1.768,1.3a0.38,0.38,0,0,0,0,.5,0.558,0.558,0,0,0,.383.1h0Zm50.9-42.4c2.06-.21,3.553-1.66,3.4-3.3,0-1.7-1.137-3.5-4.787-3.5h-3.779a0.915,0.915,0,0,0-1.01.78v10.82a0.908,0.908,0,0,0,1.768,0h0V1988h2.526l3.9,5.3a0.994,0.994,0,0,0,.758.3,0.981,0.981,0,0,0,.884-0.7,0.51,0.51,0,0,0-.127-0.4Zm-4.534-1.3v-4.2h3.023c2.526,0,3.15,1.1,3.15,2.1,0,1.4-1.137,2.1-3.024,2.1h-3.149Zm-22.548-5.6h-7.811a0.86,0.86,0,0,0-.884.7,0.774,0.774,0,0,0,.838.7h3.07v10.4a0.908,0.908,0,0,0,1.768,0h0v-10.4h3.024a0.8,0.8,0,0,0,.884-0.66v-0.04a0.868,0.868,0,0,0-.892-0.7h0Zm10.077-.1c-3.653,0-5.038,2-5.038,4.4v3.7c0,2.5,1.642,4.5,5.038,4.5s5.039-2,5.039-4.5v-3.7c0-2.4-1.388-4.5-5.042-4.4h0Zm3.274,8.1c0,1.8-1.01,3.1-3.274,3.1s-3.275-1.3-3.275-3.1v-3.7c0-1.9.884-3.1,3.275-3.1s3.274,1.3,3.274,3.1v3.7Zm-31.744-3.1a1.7,1.7,0,0,1-1.263-1.7c0-1.5,1.389-1.9,2.771-1.9,1.516,0,2.021.5,2.772,0.5a0.8,0.8,0,0,0,.884-0.66,0.258,0.258,0,0,0,0-.04c0-1-2.652-1.2-3.779-1.2-2.2-.18-4.173,1.09-4.4,2.84a2.487,2.487,0,0,0-.01.56c0,3.1,3.653,3.1,5.669,4a1.731,1.731,0,0,1,1.263,1.8c0,1.4-1.011,2.1-2.9,2.1a17.026,17.026,0,0,1-3.275-.6,0.739,0.739,0,0,0-.758.7c0,0.9,2.645,1.3,4.03,1.3,2.4,0.18,4.54-1.21,4.772-3.11a2.77,2.77,0,0,0,.016-0.49c-0.116-3.2-3.779-3.2-5.79-4.1h0Zm61.726,6h-5.417v-4.1h4.787a0.717,0.717,0,1,0,0-1.4h-4.787v-4h5.166a0.717,0.717,0,1,0,0-1.4h-5.921a0.916,0.916,0,0,0-1.011.78v10.62a1.061,1.061,0,0,0,1.2.82,1.213,1.213,0,0,0,.19-0.02H525.3a0.8,0.8,0,0,0,.884-0.66,0.258,0.258,0,0,0,0-.04,0.8,0.8,0,0,0-.888-0.6h0Zm39.554,14.7-6.8-8.3a1.05,1.05,0,0,0-.631-0.2H545.957v-22.7c0-.1-0.126-0.2-0.126-0.3a0.979,0.979,0,0,0-.5-0.2H440.9a2.886,2.886,0,0,0-.506.1,0.712,0.712,0,0,0-.252.4v22.9H428.424a0.7,0.7,0,0,0-.632.2L421,2006.9v6.7c0,2.7,2.761,4.89,6.172,4.9a7.518,7.518,0,0,0,2.273-.3v55.2a0.494,0.494,0,0,0,.253.4,0.979,0.979,0,0,0,.5.2H555.8a0.732,0.732,0,0,0,.5-0.2,0.723,0.723,0,0,0,.252-0.4v-55.2a8.644,8.644,0,0,0,2.274.3c3.411-.01,6.173-2.2,6.173-4.9v-6.7l-0.126-.2h-0.021Zm-123.324-30.6H544.573v22.2H441.527v-22.2h0Zm-12.471,23.3H557.041l5.921,7.2H423.134Zm123.576,8.2v6c0,2.09-2.134,3.79-4.777,3.8s-4.791-1.69-4.8-3.79v-6.01h9.573Zm-10.958.1v6c0.043,2.09-2.066,3.82-4.71,3.85s-4.822-1.63-4.865-3.73q0-.06,0-0.12v-6h9.575Zm-10.96,0v6c0,2.09-2.134,3.79-4.778,3.8s-4.791-1.69-4.8-3.79v-6.01h9.574Zm-10.96-.1v6c0,2.09-2.134,3.79-4.778,3.8s-4.79-1.69-4.795-3.79v-6.01h9.573Zm-10.959,0v6c0.043,2.09-2.065,3.82-4.709,3.85s-4.822-1.63-4.865-3.73q0-.06,0-0.12v-6H508.8Zm-10.96,0v6c0,2.09-2.134,3.79-4.778,3.8s-4.79-1.69-4.8-3.79v-6.01h9.573Zm-10.959.1v6c0.044,2.09-2.065,3.82-4.709,3.85s-4.822-1.63-4.865-3.73q0-.06,0-0.12v-6h9.574Zm-10.96-.1v6c0,2.09-2.134,3.79-4.777,3.8s-4.791-1.69-4.8-3.79v-6.01h9.573Zm-10.958.1v6c0.043,2.09-2.066,3.82-4.71,3.85s-4.822-1.63-4.865-3.73q0-.06,0-0.12v-6h9.575Zm-10.96,0v6c0,2.09-2.134,3.79-4.778,3.8s-4.791-1.69-4.795-3.79v-6.01H454Zm-10.959,0v6c0.043,2.09-2.065,3.82-4.709,3.85s-4.822-1.63-4.865-3.73q0-.06,0-0.12v-6h9.574Zm-15.746,9.7c-2.646,0-4.789-1.7-4.787-3.8h0v-6h9.573v6c0,2.1-2.137,3.8-4.784,3.8h0Zm36.278,52.3a0.719,0.719,0,0,0-.253.4v2.8H430.945V2064h41.57v2.2h-3.9a0.732,0.732,0,0,0-.5.2,0.712,0.712,0,0,0-.252.4v2.8h-3.9c-0.254,0-.38,0-0.38.1h0Zm49.761-5.7v2.3H473.649V2064h39.685Zm-19.274-1.1v-33H508.8v33H494.06Zm20.029,4.4H518v2.3H469.119v-2.3h44.97Zm8.44,5.7H464.578v-2.3h57.947v2.3h0Zm32.752,0.1H524.037v-2.8a0.493,0.493,0,0,0-.252-0.4,0.982,0.982,0,0,0-.506-0.2H519.5v-2.8a0.494,0.494,0,0,0-.253-0.4,0.979,0.979,0,0,0-.5-0.2h-3.905V2064h40.44v9.1h0Zm-9.195-50.7a0.979,0.979,0,0,0-.5-0.2H520.006a0.728,0.728,0,0,0-.5.2,0.719,0.719,0,0,0-.253.4v25.1h-1.389v-26.7h29.729v26.7H546.2v-25.1a0.627,0.627,0,0,0-.116-0.4h0Zm-1.263,1v24.5H520.637v-24.5h24.186Zm2.771,25.6v2.3H517.869V2049h29.725Zm0,3.4v10.5H517.869v-10.5h29.725Zm7.685,10.5h-6.3v-42.2a0.494,0.494,0,0,0-.253-0.4,0.979,0.979,0,0,0-.5-0.2H517.237a0.73,0.73,0,0,0-.5.2,0.712,0.712,0,0,0-.252.4v42.2h-6.3v-33.5a0.5,0.5,0,0,0-.252-0.4,1.08,1.08,0,0,0-.506-0.2H478.184a0.728,0.728,0,0,0-.505.2,0.712,0.712,0,0,0-.252.4v0.5h15.242v33H477.428v-33H477.3v33H471v-42.2a0.492,0.492,0,0,0-.253-0.4,0.979,0.979,0,0,0-.5-0.2H439.259a0.732,0.732,0,0,0-.506.2,0.723,0.723,0,0,0-.252.4v0.5h29.734v26.7h-1.39v-25.1a1.86,1.86,0,0,1-.126-0.4,0.979,0.979,0,0,0-.5-0.2h-25.57a0.728,0.728,0,0,0-.5.2,0.719,0.719,0,0,0-.253.4v25.1H438.5v1.1h29.738v2.3H438.5v1.1h29.732v10.5h-36.03v-45.3a5.583,5.583,0,0,0,1.894-1.7,6.327,6.327,0,0,0,5.417,2.7,6.474,6.474,0,0,0,5.417-2.7,6.327,6.327,0,0,0,5.417,2.7,6.466,6.466,0,0,0,5.415-2.7,6.327,6.327,0,0,0,5.417,2.7,6.471,6.471,0,0,0,5.417-2.7,6.327,6.327,0,0,0,5.417,2.7,6.473,6.473,0,0,0,5.417-2.7,6.326,6.326,0,0,0,5.417,2.7,6.471,6.471,0,0,0,5.416-2.7,6.327,6.327,0,0,0,5.417,2.7,6.474,6.474,0,0,0,5.417-2.7,6.327,6.327,0,0,0,5.417,2.7,6.474,6.474,0,0,0,5.417-2.7,6.322,6.322,0,0,0,5.415,2.7,6.47,6.47,0,0,0,5.417-2.7,6.327,6.327,0,0,0,5.417,2.7,6.473,6.473,0,0,0,5.417-2.7,6.326,6.326,0,0,0,5.417,2.7,6.472,6.472,0,0,0,5.416-2.7,6.327,6.327,0,0,0,5.417,2.7,6.474,6.474,0,0,0,5.417-2.7,6.544,6.544,0,0,0,1.895,1.7h0.126v45.3h-0.009Zm-89.823-39.5v24.5H441.274v-24.5h24.182Zm98.132-9.8c0.043,2.09-2.065,3.82-4.709,3.85s-4.822-1.63-4.865-3.73q0-.06,0-0.12v-6h9.574v6h0Zm-106.445,21.3-5.669,4.5a0.38,0.38,0,0,0,0,.5,0.785,0.785,0,0,0,.758,0l5.668-4.5a0.378,0.378,0,0,0,0-.5,0.983,0.983,0,0,0-.753,0h0Zm89.691,33.3h-5.921v-1.7h2.526a0.411,0.411,0,1,0,0-.8H531.85a0.411,0.411,0,1,0,0,.8h1.768v1.7h-4.031a0.5,0.5,0,0,0-.5.4,0.626,0.626,0,0,0,.5.4h7.558v1.7H534.62a0.411,0.411,0,1,0,0,.8h11.588a0.411,0.411,0,1,0,0-.8H544.44V2069h2.394a0.457,0.457,0,0,0,.5-0.41,0.466,0.466,0,0,0-.493-0.39h0Zm-12.346,0v-1.7h5.417v1.7h-5.417Zm8.945,2.4h-5.417v-1.7h5.417v1.7Zm-35.9-50.7H478.684a0.728,0.728,0,0,0-.505.2,0.712,0.712,0,0,0-.252.4v6.3a0.509,0.509,0,0,0,.126.4,0.979,0.979,0,0,0,.5.2H507.53a0.732,0.732,0,0,0,.506-0.2,0.712,0.712,0,0,0,.252-0.4v-6.3a0.493,0.493,0,0,0-.252-0.4c-0.123-.1-0.376-0.1-0.5-0.2h0Zm-0.631,6.4H479.317v-5.2h27.588v5.2H506.9Zm-9.575,20.1a1.644,1.644,0,1,0,2.021,1.6,1.9,1.9,0,0,0-2.014-1.6h-0.007Zm26.832-5.4a0.547,0.547,0,0,0,.379-0.1l11.589-9.2a0.3,0.3,0,0,0,0-.5,0.528,0.528,0,0,0-.632,0l-11.589,9.2a0.378,0.378,0,0,0,0,.5c0.008,0.1.134,0.1,0.259,0.1h-0.006Zm-1.137,3.2a0.546,0.546,0,0,0,.379-0.1l19.9-15.8a0.3,0.3,0,0,0,0-.5,0.527,0.527,0,0,0-.631,0l-20.03,15.8a0.378,0.378,0,0,0,0,.5,0.524,0.524,0,0,0,.389.1h-0.01Zm13.479-9.3-5.669,4.5a0.378,0.378,0,0,0,0,.5,0.785,0.785,0,0,0,.758,0l5.67-4.5a0.38,0.38,0,0,0,0-.5,0.973,0.973,0,0,0-.749,0H536.5Zm1.01-4.5a0.547,0.547,0,0,0,.379-0.1l1.642-1.3a0.3,0.3,0,0,0,0-.5,0.528,0.528,0,0,0-.632,0l-1.768,1.3a0.378,0.378,0,0,0,0,.5,0.517,0.517,0,0,0,.386.1h-0.007Zm-48.75,19.2a1.644,1.644,0,1,0-2.021-1.6,1.8,1.8,0,0,0,1.962,1.6h0.059Zm10.077-27.6a0.249,0.249,0,0,0-.253.2v2.2l-1.642-2.3c0-.1-0.126-0.1-0.252-0.1a0.249,0.249,0,0,0-.253.2v2.8a0.229,0.229,0,0,0,.251.2,0.232,0.232,0,0,0,.254-0.2h0v-2.2l1.642,2.3c0,0.1.127,0.1,0.253,0.1a0.248,0.248,0,0,0,.252-0.2v-2.8a0.241,0.241,0,0,0-.245-0.2h-0.007Zm-3.4,2.8h-1.39v-1h1.264a0.222,0.222,0,0,0,.246-0.2,0.229,0.229,0,0,0-.246-0.2h-1.264v-1h1.264a0.222,0.222,0,0,0,.246-0.2,0.229,0.229,0,0,0-.246-0.2h-1.516a0.249,0.249,0,0,0-.253.2v2.8a0.7,0.7,0,0,0,.379.2h1.516a0.229,0.229,0,0,0,.251-0.2,0.225,0.225,0,0,0-.244-0.2h-0.007Zm-3.905-2.7h-0.758a0.25,0.25,0,0,0-.253.2v2.7c0,0.1.127,0.2,0.127,0.3a0.248,0.248,0,0,0,.252-0.2v-1h0.632a1.025,1.025,0,1,0,.007-2h-0.007Zm0,1.6H490.9v-1.2h0.632a0.7,0.7,0,0,1,.761.6,0.688,0.688,0,0,1-.754.6h-0.007Zm-3.149-1.6a1.149,1.149,0,0,0-1.273.93,0.809,0.809,0,0,0,.01.17v0.9a1.3,1.3,0,0,0,2.526,0v-0.9a1.039,1.039,0,0,0-1.052-1.09,1.374,1.374,0,0,0-.2-0.01H488.38Zm0.884,2a0.758,0.758,0,0,1-.781.79,0.357,0.357,0,0,1-.1.01,0.8,0.8,0,0,1-.9-0.62,0.5,0.5,0,0,1,.015-0.18v-0.9a0.908,0.908,0,0,1,1.768,0h0v0.9h0Zm-32.752,44.1h-5.921v-1.7h2.52a0.411,0.411,0,1,0,0-.8H441.522a0.411,0.411,0,1,0,0,.8h1.768v1.7h-4.031a0.411,0.411,0,1,0,0,.8h7.558v1.7h-2.526a0.411,0.411,0,1,0,0,.8H455.88a0.411,0.411,0,1,0,0-.8h-1.768V2069h2.4a0.467,0.467,0,0,0,.508-0.4,0.46,0.46,0,0,0-.5-0.4h0Zm-12.219,0v-1.7h5.417v1.7h-5.417Zm8.944,2.4h-5.412v-1.7h5.417v1.7h0Z" transform="translate(-421 -1975)"/>
</svg>
