<svg xmlns="http://www.w3.org/2000/svg" width="106" height="110" viewBox="0 0 106 110">
  <defs>
    <style>
      .cls-1 {
        fill: #26d07c;
        fill-rule: evenodd;
      }
    </style>
  </defs>
  <path id="stp-icon.svg" class="cls-1" d="M577.549,2193h-6.725l-0.611-5.28a39.938,39.938,0,0,1-6.6-1.21l-2.779,4.83-6.214-2.56,1.5-5.22a38.531,38.531,0,0,1-6.372-4.15L546,2182.3l-4.757-4.73,2.9-3.63a39.117,39.117,0,0,1-4.321-6.35l-5.063,1.37-2.578-6.18,4.565-2.52a38.659,38.659,0,0,1-1.437-7.16l-5.313-.67v-6.69l5.315-.6a38.391,38.391,0,0,1,1.716-7.99l-4.313-2.46,2.573-6.18,4.953,1.41a39.2,39.2,0,0,1,4.542-6.34l-3-3.86,4.756-4.73,4.056,3.2a40.2,40.2,0,0,1,5.743-3.6l-1.279-4.68,6.214-2.56,2.435,4.35a35.3,35.3,0,0,1,6.195-1.24l0.692-5.41h3.4v0.52c0,1.32,0,2.58.009,3.8,0.01,2.23.019,4.33-.013,6.46l-0.008.52-0.57-.01H572.93c-17.762,0-31.675,14.38-31.675,32.74a32.963,32.963,0,0,0,63.835,11.33l0.126-.34h0.364c0.606,0,1.212-.02,1.8-0.03,1.165-.03,2.37-0.05,3.611.03l0.668,0.04-0.094.29,4.873,2.78-2.574,6.18-5.439-1.55a39.005,39.005,0,0,1-3.864,5.72l3.407,4.38-4.756,4.73-4.341-3.43a38.912,38.912,0,0,1-5.668,3.83l1.615,5.88-6.216,2.56-2.927-5.25a39.247,39.247,0,0,1-7.437,1.48Zm-5.792-1.04h4.872l0.673-5.21,0.418-.04a37.985,37.985,0,0,0,8.043-1.6l0.408-.13,2.888,5.18,4.5-1.85-1.584-5.79,0.364-.19a39.216,39.216,0,0,0,6.19-4.19l0.327-.27,4.273,3.37,3.445-3.42-3.354-4.31,0.267-.32a38.206,38.206,0,0,0,4.214-6.24l0.2-.37,5.351,1.52,1.863-4.48-4.455-2.53c-1.1-.06-2.15-0.04-3.259-0.01l-1.458.03a34.011,34.011,0,0,1-65.735-12.03,34.338,34.338,0,0,1,9.314-23.88,31.971,31.971,0,0,1,23.406-9.9h0.017c0.024-1.95.015-3.88,0.007-5.92,0-1.06-.009-2.16-0.01-3.29h-1.427l-0.682,5.33-0.42.04a34.38,34.38,0,0,0-6.817,1.36l-0.4.11-2.387-4.27-4.5,1.86,1.262,4.62-0.384.19a38.519,38.519,0,0,0-6.279,3.93l-0.324.25-3.968-3.13-3.443,3.42,2.972,3.83-0.29.32a37.817,37.817,0,0,0-4.9,6.84l-0.2.36-4.852-1.38-1.861,4.47,4.258,2.43-0.137.4a37.558,37.558,0,0,0-1.843,8.59l-0.039.42-5.23.59v4.84l5.23,0.66,0.038,0.42a37.531,37.531,0,0,0,1.558,7.76l0.127,0.41-4.491,2.48,1.868,4.47,4.981-1.34,0.195,0.37a38.354,38.354,0,0,0,4.669,6.85l0.279,0.33-2.857,3.57,3.445,3.42,3.678-2.82,0.323,0.26a39.036,39.036,0,0,0,6.891,4.48l0.385,0.19-1.484,5.15,4.5,1.86,2.726-4.75,0.4,0.12a38.491,38.491,0,0,0,7.223,1.32l0.424,0.04ZM636,2160.81H548.008v-3.59h1.26v-18.58a1.139,1.139,0,0,1,.79-0.98,0.793,0.793,0,0,0,.2-0.11,0.6,0.6,0,0,0,.117-0.13,1.716,1.716,0,0,1,1.156-.75v-3.11h0.485v-0.52h12.114v3.8h2.182v16.08h1.6v-9.44h6.756l1.56-39.59h4.635l1.629,39.59h0.393l1.584-31.32H589.1l1.656,31.32h12.985v13.53h1.132V2141.9H593.119v-24.23h25.492v10.36h-3.147l-0.008-.05H596.3v3.31H613.28v4.21H596.3v3.06H613.28v18.45h1.009V2129.7h20.2v27.31H636v3.8Zm-86.945-1.04h85.9v-1.72h-1.514v-27.31H615.334v27.31h-3.1V2139.6H595.259v-5.14h16.974v-2.13H595.259v-5.39h21.092l0.008,0.05h1.2v-8.28h-23.4v22.15h11.752v17.19h-3.226v-13.53H589.764l-1.655-31.32h-2.637l-1.584,31.32H581.5l-1.63-39.59H577.24l-1.558,39.59h-6.714v9.44h-3.694v-16.08h-2.183v-3.8h-10.5v3.49l-0.464.05a0.986,0.986,0,0,0-.886.4,1.519,1.519,0,0,1-.4.41c-0.1.06-.215,0.12-0.311,0.17a1.493,1.493,0,0,0-.21.11v18.85a0.5,0.5,0,0,0-.029-0.16l-0.36.32v0.54h-0.871v1.51h-0.009Zm19.908-1.51h-7.347v-15.9c-0.028-.01-0.059-0.03-0.086-0.04a1.472,1.472,0,0,1-.327-0.2c-0.059-.05-0.117-0.09-0.174-0.14a2.186,2.186,0,0,0-.786-0.47l-0.391-.1v-2.94h4.574v16.33h4.542v3.46h0Zm-6.3-1.04h5.249v-1.38h-4.536v-16.33h-2.482v1.14a3.137,3.137,0,0,1,.792.53l0.157,0.12a0.557,0.557,0,0,0,.163.09,0.981,0.981,0,0,1,.652.86v14.97h0Zm-4.912,1.04h-2.457v-0.52l-0.522-.02v-19.05a1.652,1.652,0,0,0-.2-0.13,1.487,1.487,0,0,1-.194-0.11,1.787,1.787,0,0,1-.47-0.46,0.74,0.74,0,0,0-.516-0.36l-0.428-.08v-3.07h9.325v3.42h-2.814v3.58l-0.421.08a1.328,1.328,0,0,0-.768.39c-0.069.06-.146,0.13-0.236,0.2a1.977,1.977,0,0,1-.215.14,0.291,0.291,0,0,0-.082.05v15.94h0Zm-1.935-1.04H556.7v-14.97a0.978,0.978,0,0,1,.587-0.87q0.07-.045.135-0.09a1.1,1.1,0,0,0,.152-0.13,2.332,2.332,0,0,1,.848-0.52v-3.8h2.814v-1.34h-7.231v1.22a1.8,1.8,0,0,1,.732.62,0.883,0.883,0,0,0,.19.21l0.149,0.09a1.136,1.136,0,0,1,.736,1v18.58Zm44.041-4.7H571.55v-6.17h28.309v6.17h0Zm-4.508-1.04h3.462v-1.53h-3.462v1.53Zm-4.722,0h3.68v-1.53h-3.675v1.53h0Zm-4.722,0h3.676v-1.53h-3.676v1.53Zm-4.723,0h3.676v-1.53h-3.675v1.53h0Zm-4.507,0h3.461v-1.53h-3.461v1.53Zm-4.079,0h3.029v-1.53H572.6v1.53Zm22.753-2.57h3.462v-1.52h-3.462v1.52Zm-4.722,0h3.68v-1.52h-3.675v1.52h0Zm-4.722,0h3.676v-1.52h-3.676v1.52Zm-4.722,0h3.675v-1.52h-3.675v1.52h0Zm-4.508,0h3.461v-1.52h-3.461v1.52Zm-4.079,0h3.029v-1.52H572.6v1.52Zm58.451-.37h-4.091v-3.5h4.091v3.5ZM628,2147.5h2v-1.42h-2v1.42Zm-1.332,1.04h-4.1v-3.5h4.091v3.5h0.006Zm-3.044-1.04h2v-1.42h-2v1.42Zm-1.527,1.04h-4.281v-3.5H622.1v3.5Zm-3.235-1.04h2.188v-1.42h-2.188v1.42Zm12.182-2.7h-4.091v-3.5h4.091v3.5ZM628,2143.76h2v-1.42h-2v1.42Zm-1.332,1.04h-4.1v-3.5h4.091v3.5h0.006Zm-3.044-1.04h2v-1.42h-2v1.42Zm-1.527,1.04h-4.281v-3.5H622.1v3.5Zm-3.235-1.04h2.188v-1.42h-2.188v1.42Zm12.182-2.89h-4.091v-3.12h4.091v3.12ZM628,2139.83h2v-1.04h-2v1.04Zm-1.332,1.04h-4.1v-3.12h4.091v3.12h0.006Zm-3.044-1.04h2v-1.04h-2v1.04Zm-1.527,1.04h-4.281v-3.12H622.1v3.12Zm-3.235-1.04h2.188v-1.04h-2.188v1.04Zm12.182-2.51h-4.091v-3.5h4.091v3.5ZM628,2136.28h2v-1.42h-2v1.42Zm-1.332,1.04h-4.1v-3.5h4.091v3.5h0.006Zm-3.044-1.04h2v-1.42h-2v1.42Zm-1.527,1.04h-4.281v-3.5H622.1v3.5Zm-3.235-1.04h2.188v-1.42h-2.188v1.42Zm-2.524-11.21H595.259v-5.14h21.084v5.14h0Zm-20.038-1.04h18.991v-3.06H596.3v3.06h0Zm-17.061-19.58c-0.074-.09-1.8-2.33-1.141-4.64,0.411-1.45,1.637-2.56,3.646-3.32,1.986-.74,1.758-4.53,1.755-4.57l-0.156-2.1,1.122,1.79a6.386,6.386,0,0,1,.8,4.65,5.128,5.128,0,0,1-2.88,3.17c-1.506.76-2.392,1.62-2.631,2.59a2.325,2.325,0,0,0,.321,1.81Zm5.113-10.07a3.944,3.944,0,0,1-2.239,3.09c-1.681.63-2.692,1.51-3.007,2.62a3,3,0,0,0-.106.97,6.2,6.2,0,0,1,2.915-2.56,4.115,4.115,0,0,0,2.341-2.52,3.949,3.949,0,0,0,.1-1.6h0Zm-5.888,10.21a3.5,3.5,0,0,1-.82-0.62,7.991,7.991,0,0,1-3-5.3c-0.145-2.29,1.063-4.53,3.591-6.68,1.8-1.53-.524-5.71-1.573-7.19L575.4,2083l1.949,1.04c0.17,0.09,4.174,2.27,4.791,5.82,0.326,1.88-.356,3.76-2.027,5.6-2.055,2.25-2.994,4.31-2.715,5.94a3.254,3.254,0,0,0,.908,1.76c0.4,0.34.69,0.53,0.7,0.54Zm0.335-18.22c0.994,2,1.928,4.87.119,6.41-2.265,1.92-3.35,3.88-3.23,5.82a5.366,5.366,0,0,0,.605,2.1c0.042-1.78,1.058-3.77,3.035-5.94a5.6,5.6,0,0,0,1.771-4.72,6.7,6.7,0,0,0-2.3-3.67h0Zm8.332,26.68a3.7,3.7,0,0,1-.277-0.35,6.738,6.738,0,0,1-1.291-4.72c0.272-1.91,1.529-3.6,3.735-5.03a1.906,1.906,0,0,0,1.01-1.27,1.529,1.529,0,0,0-.528-1.05l-1.609-1.3,2.039,0.39c0.1,0.02,2.47.49,2.876,2.15,0.31,1.27-.589,2.71-2.748,4.4-1.883,1.47-2.928,2.95-3.02,4.27a2.525,2.525,0,0,0,.349,1.5c0.069,0.1.144,0.2,0.226,0.3Zm4.19-11.8a1.929,1.929,0,0,1,.036.49,2.756,2.756,0,0,1-1.488,2.09c-1.938,1.25-3.038,2.69-3.268,4.28a4.648,4.648,0,0,0-.026,1.08,9.327,9.327,0,0,1,3.121-3.74c1.729-1.35,2.573-2.53,2.378-3.33a1.549,1.549,0,0,0-.75-0.87h0Z" transform="translate(-530 -2083)"/>
</svg>
