<svg xmlns="http://www.w3.org/2000/svg" width="29.625" height="33" viewBox="0 0 29.625 33">
  <defs>
    <style>
      .cls-1 {
        fill: #00cfb4;
        fill-rule: evenodd;
      }
    </style>
  </defs>
  <path id="sustainability-report-ico.svg" class="cls-1" d="M643.165,741.054a0.54,0.54,0,0,1-.155-0.025h-0.027l-0.051-.006a0.583,0.583,0,0,1-.454-0.589h0l-0.019-.04-0.019-.06a12.2,12.2,0,0,0-1.727-4.418,3.346,3.346,0,0,1-2.184.864,3.9,3.9,0,0,1-2.493-.982c-1.853-1.53-2.416-5.764-2.423-6.2a0.52,0.52,0,0,1,.119-0.386,0.544,0.544,0,0,1,.386-0.21H634.2c0.2-.012.718-0.042,1.437-0.042,1.328,0,3.75.157,5.062,1.208a3.814,3.814,0,0,1,1.549,2.675,3.471,3.471,0,0,1-.719,2.292,15.761,15.761,0,0,1,1.5,3.029q0.278-.689.668-1.467a2.632,2.632,0,0,1-.628-1.658,3.025,3.025,0,0,1,1.036-2.122c1.257-1.158,4.177-1.216,4.749-1.216h0.138a0.562,0.562,0,0,1,.551.549c0,0.034-.064,3.447-1.5,4.777a3.074,3.074,0,0,1-2.082.939,2.646,2.646,0,0,1-1.436-.458,8.233,8.233,0,0,0-.907,3.117A0.483,0.483,0,0,1,643.165,741.054Zm1.914-4.535a1.6,1.6,0,0,0,.889.3,2.029,2.029,0,0,0,1.315-.617,6.684,6.684,0,0,0,1.11-3.45,6.4,6.4,0,0,0-3.511.932,1.812,1.812,0,0,0-.706,1.351,1.387,1.387,0,0,0,.147.6,7.53,7.53,0,0,1,2.244-2.283,0.692,0.692,0,0,1,.269-0.055,0.558,0.558,0,0,1,.494.275,0.605,0.605,0,0,1-.215.765,6.7,6.7,0,0,0-2.034,2.179h0Zm-10.215-6.378c0.212,1.52.888,4,1.929,4.871a3.042,3.042,0,0,0,1.823.757,2.376,2.376,0,0,0,1.624-.742,10.088,10.088,0,0,0-3.134-2.926,0.5,0.5,0,0,1-.28-0.3,0.579,0.579,0,0,1,.006-0.414,0.529,0.529,0,0,1,.5-0.323,0.6,0.6,0,0,1,.218.042,10.79,10.79,0,0,1,3.356,3.025,2.191,2.191,0,0,0,.288-1.242,2.88,2.88,0,0,0-1.16-1.861c-0.75-.615-2.254-0.939-4.35-0.939-0.2,0-.395.014-0.559,0.026-0.1.012-.18,0.018-0.255,0.022h0Zm11.745,19.853a0.522,0.522,0,0,1-.269-0.055l-2.9-1.742a0.432,0.432,0,0,1-.269-0.324,0.556,0.556,0,0,1,.051-0.435l1.794-2.89a0.611,0.611,0,0,1,.483-0.246,0.546,0.546,0,0,1,.539.554,0.557,0.557,0,0,1-.084.29l-0.943,1.513a13.629,13.629,0,0,0,2.891-25.627,0.541,0.541,0,0,1-.271-0.711,0.531,0.531,0,0,1,.494-0.321,0.574,0.574,0,0,1,.217.042,14.707,14.707,0,0,1-3.451,27.752l2.039,1.158a0.583,0.583,0,0,1,.171.767,0.646,0.646,0,0,1-.5.275h0Zm-8.036-2.333H638.52a14.726,14.726,0,0,1-11.336-14.495,14.535,14.535,0,0,1,10.923-14.074l-1.788-1.077a0.636,0.636,0,0,1-.23-0.36,0.486,0.486,0,0,1,.069-0.414,0.6,0.6,0,0,1,.477-0.241,0.545,0.545,0,0,1,.286.081l2.893,1.741a0.432,0.432,0,0,1,.269.324,0.565,0.565,0,0,1-.051.435l-1.748,2.889a0.636,0.636,0,0,1-.494.274,0.485,0.485,0,0,1-.269-0.055,0.59,0.59,0,0,1-.18-0.768l1.034-1.729a13.638,13.638,0,0,0,.449,26.431,0.506,0.506,0,0,1,.365.241,0.445,0.445,0,0,1,.021.385,0.535,0.535,0,0,1-.545.424h-0.09Z" transform="translate(-627.188 -717)"/>
</svg>
