<svg xmlns="http://www.w3.org/2000/svg" width="102.938" height="102.91" viewBox="0 0 102.938 102.91">
  <defs>
    <style>
      .cls-1 {
        fill: #00cfb4;
        fill-rule: evenodd;
      }
    </style>
  </defs>
  <path id="talent-management-new.svg" class="cls-1" d="M706.986,1377.18a51.439,51.439,0,1,0,14.991,36.3A51.477,51.477,0,0,0,706.986,1377.18Zm-36.308,86.87a50.575,50.575,0,1,1,50.592-50.57A50.58,50.58,0,0,1,670.678,1464.05Zm-11.843-56.97v1.75a15.513,15.513,0,0,0,3.456,9.69,10.3,10.3,0,0,0,14.364,2.43,10.13,10.13,0,0,0,2.42-2.42,15.553,15.553,0,0,0,3.447-9.7v-3.23l0.019-.06a43.3,43.3,0,0,0,1.086-9.49,20.355,20.355,0,0,0-.568-5.53,0.527,0.527,0,0,0-.518-0.37h-0.049l-0.05.01-0.04-.01h-0.13a9.2,9.2,0,0,1-1.285.09,30.321,30.321,0,0,1-5.608-.8,32.99,32.99,0,0,0-6.335-.86,9,9,0,0,0-5.329,1.49l-0.139.1-0.17-.02h-0.06a5.77,5.77,0,0,0-4.5,2.04,7.42,7.42,0,0,0-1.593,4.79,58.679,58.679,0,0,0,1.573,10.05Zm22.6,1.75a14.427,14.427,0,0,1-3.2,9,9.231,9.231,0,0,1-12.85,2.25,9.408,9.408,0,0,1-2.25-2.25,14.4,14.4,0,0,1-3.208-9v-1.25c0-2.64,1.684-6.12,2.4-7.51l0.119-.22,0.259-.03a38.633,38.633,0,0,1,4.433-.25,30.334,30.334,0,0,1,12.64,2.47l0.17,0.07,1.484,3.54v3.18h0Zm-18.089-17.59a0.475,0.475,0,0,0,.119-0.01l0.1-.02,0.1,0.02a0.487,0.487,0,0,0,.12.01,0.561,0.561,0,0,0,.329-0.11,7.822,7.822,0,0,1,4.93-1.45,31.629,31.629,0,0,1,6.126.84,30.064,30.064,0,0,0,5.817.82c0.239,0,.488-0.01.728-0.03l0.428-.03,0.08,0.43a34.9,34.9,0,0,1-.14,10.37l-0.249,1.7-0.956-2.28a0.615,0.615,0,0,0-.239-0.27c-0.209-.11-5.11-2.78-13.418-2.78a39.547,39.547,0,0,0-5.1.33h-0.009l-0.02.01a0.553,0.553,0,0,0-.449.27,29.7,29.7,0,0,0-1.7,3.63l-0.607,1.6-0.309-1.69a33.608,33.608,0,0,1-.688-5.62c0-3.97,2.521-5.74,5.011-5.74h0Zm24.892,34.86a0.034,0.034,0,0,0-.03-0.01l-6.3-1.33-1.723-2.64-0.02-.02a1.258,1.258,0,0,0-.9-0.53,0.844,0.844,0,0,0-.159-0.01,1.342,1.342,0,0,0-.837.3l-7.59,6.59-7.59-6.59a1.342,1.342,0,0,0-.837-0.3,0.844,0.844,0,0,0-.159.01,1.258,1.258,0,0,0-.9.53c-0.01,0-1.743,2.66-1.743,2.66l-6.315,1.33a0.123,0.123,0,0,0-.02.01,7.283,7.283,0,0,0-4.1,3.02,8.448,8.448,0,0,0-1.454,4.69v1.95a2.762,2.762,0,0,0,2.888,2.61h40.462a2.761,2.761,0,0,0,2.888-2.61v-1.95a8.448,8.448,0,0,0-1.454-4.69,7.283,7.283,0,0,0-4.1-3.02h0Zm-9.084-3.55,1.753,2.69-5.628,7.81-3.8-3.84Zm-8.477,7.41,1.5,1.52v0.6a0.958,0.958,0,0,1-.817,1.05h-1.374a0.958,0.958,0,0,1-.817-1.05v-0.6Zm-8.477-7.41,7.68,6.66-3.8,3.84-5.628-7.81Zm5.7,14.71H650.437a1.663,1.663,0,0,1-1.783-1.5v-1.95a6.938,6.938,0,0,1,4.722-6.64h0.01l6.165-1.31,6.017,8.36a0.6,0.6,0,0,0,.408.23h0.03a0.523,0.523,0,0,0,.389-0.17l1.653-1.67,0.309,0.58a1.18,1.18,0,0,0,.15.23l0.119,0.18Zm1.105,0,0.608-3.02h2.132l0.607,3.02H669Zm23.7-1.5a1.657,1.657,0,0,1-1.793,1.5H673.457l-0.727-3.67,0.129-.17a1.043,1.043,0,0,0,.14-0.24l0.309-.57,1.653,1.67a0.523,0.523,0,0,0,.389.17h0.04a0.575,0.575,0,0,0,.4-0.23l6.016-8.36,6.166,1.31h0.01a6.938,6.938,0,0,1,4.722,6.64v1.95h0Zm-46.159-26.15v1.16a9.612,9.612,0,0,0,2.271,6.33,7.269,7.269,0,0,0,5.518,2.62,7.115,7.115,0,0,0,4.363-1.52,0.536,0.536,0,0,0,.2-0.37,0.593,0.593,0,0,0-.1-0.41,0.577,0.577,0,0,0-.439-0.21,0.553,0.553,0,0,0-.328.11,5.916,5.916,0,0,1-3.7,1.3c-3.7,0-6.7-3.52-6.7-7.85v-0.61a17.1,17.1,0,0,1,1.056-4.99l0.1-.3,0.309-.03c0.5-.04,1.016-0.07,1.544-0.07a30.661,30.661,0,0,1,4.383.41l0.179,0.03c0.03,0,.05.01,0.08,0.01a0.552,0.552,0,0,0,.538-0.48,0.532,0.532,0,0,0-.441-0.61h-0.017l-0.18-.03a28.822,28.822,0,0,0-4.542-.42,16.1,16.1,0,0,0-2.3.14l-0.03.01h-0.04l-0.04.02H648.2a0.05,0.05,0,0,0-.03.02l-0.03.01-0.019.01-0.04.03-0.04.03-0.04.04-0.04.04c-0.008.01-.018,0.03-0.03,0.05l-0.01.01v0.01l-0.03.06h0l-0.02.03c-0.02.07-.089,0.25-0.179,0.51l-0.936-.1a16.1,16.1,0,0,1-.14-1.84c0-2.58,1.315-3.72,2.62-3.72,0.02,0,.05-0.01.08-0.01l0.069-.01,0.07,0.01a0.166,0.166,0,0,0,.07.01,0.494,0.494,0,0,0,.328-0.12,5.135,5.135,0,0,1,3.238-.96,11.149,11.149,0,0,1,1.115.06,0.047,0.047,0,0,0,.05.01,0.535,0.535,0,0,0,.538-0.49,0.508,0.508,0,0,0-.12-0.41,0.54,0.54,0,0,0-.368-0.2c-0.438-.04-0.837-0.06-1.205-0.06a6.306,6.306,0,0,0-3.636.98l-0.12.08H649.2c-2.172.02-3.676,2-3.676,4.83a42.1,42.1,0,0,0,1.006,6.8Zm-4.074,13.88,0.02-.01,4.064-.85,2.111,3.07a0.546,0.546,0,0,0,.767.14,0.546,0.546,0,0,0,.13-0.76l-2.1-3.07,1.026-1.57,4.413,3.32a0.536,0.536,0,0,0,.755-0.1c0-.01.008-0.01,0.012-0.02a0.544,0.544,0,0,0-.11-0.76l-4.412-3.32a1.083,1.083,0,0,0-.668-0.24c-0.04,0-.079.01-0.119,0.01a1.091,1.091,0,0,0-.737.43l-0.01.02-1.146,1.74-4.213.89a0.058,0.058,0,0,1-.04.01,5.65,5.65,0,0,0-3.905,5.42v1.33a2.05,2.05,0,0,0,2.132,1.95h4.572a0.55,0.55,0,1,0,0-1.1h-4.572a0.962,0.962,0,0,1-1.036-.85v-1.33a4.549,4.549,0,0,1,3.068-4.35h0Zm43.6-26.56a36.085,36.085,0,0,1,4.861.57c1.155,0.19,2.35.38,3.356,0.45l0.459,0.03-0.01.46c-0.03,2.14-.16,4.32-0.379,6.48l-0.1.96-0.687-.63a0.041,0.041,0,0,0-.03-0.02l-0.02-.02a16.59,16.59,0,0,0-7.4-2.13h-0.04a0.55,0.55,0,0,0-.547.51,0.543,0.543,0,0,0,.139.4,0.529,0.529,0,0,0,.369.19,15.543,15.543,0,0,1,6.663,1.83l0.14,0.08,0.07,0.15a10.757,10.757,0,0,1,.816,3.92v0.61c0,4.33-3.008,7.85-6.7,7.85a5.916,5.916,0,0,1-3.7-1.3,0.555,0.555,0,0,0-.328-0.11,0.577,0.577,0,0,0-.439.21,0.593,0.593,0,0,0-.1.41,0.536,0.536,0,0,0,.2.37,7.178,7.178,0,0,0,4.363,1.52,7.269,7.269,0,0,0,5.518-2.62,9.617,9.617,0,0,0,2.271-6.33v-1.17l0.01-.05a70.879,70.879,0,0,0,1.006-11.88v-0.06l0.02-.06a0.473,0.473,0,0,0,.01-0.17,0.532,0.532,0,0,0-.548-0.51h-0.06c-0.1,0-.2.01-0.308,0.01a27.739,27.739,0,0,1-3.855-.47,36.671,36.671,0,0,0-5.011-.58,0.546,0.546,0,0,0-.547.54A0.556,0.556,0,0,0,686.068,1396.93Zm13.078,25.49a0.058,0.058,0,0,1-.04-0.01l-4.213-.89-1.126-1.72-0.029-.04a1.093,1.093,0,0,0-.738-0.43c-0.039,0-.079-0.01-0.119-0.01a1.111,1.111,0,0,0-.677.24l-4.4,3.32a0.544,0.544,0,0,0-.11.76,0.534,0.534,0,0,0,.751.13,0.015,0.015,0,0,0,.016-0.01l4.413-3.32,1.026,1.57-2.1,3.07a0.483,0.483,0,0,0-.089.4,0.509,0.509,0,0,0,.219.36,0.568,0.568,0,0,0,.309.1,0.562,0.562,0,0,0,.458-0.24l2.111-3.07,4.064,0.85,0.02,0.01a4.546,4.546,0,0,1,3.068,4.34v1.34a0.962,0.962,0,0,1-1.036.85h-4.572a0.55,0.55,0,0,0,0,1.1h4.572a2.05,2.05,0,0,0,2.132-1.95v-1.34A5.647,5.647,0,0,0,699.146,1422.42Z" transform="translate(-619.031 -1362.03)"/>
</svg>
