<svg xmlns="http://www.w3.org/2000/svg" width="96" height="86" viewBox="0 0 96 86">
  <defs>
    <style>
      .cls-1 {
        fill: #26d07c;
        fill-rule: evenodd;
      }
    </style>
  </defs>
  <path id="terminal-icon.svg" class="cls-1" d="M804,2124.04c0-3.22-10.078-5.85-22.465-5.85-1.044,0-2.064.03-3.07,0.07v-15.18h-0.03a1.519,1.519,0,0,0,.032-0.24c0-3.5-11.62-5.84-22.47-5.84-12.383,0-22.456,2.62-22.456,5.84v0.01h0v15.41c-1.01-.04-2.027-0.07-3.073-0.07-12.384,0-22.458,2.63-22.464,5.85h0v25.76c0,4.22,11.574,6.5,22.464,6.5h0.268l-0.007,18.81c0,0.44,0,.49.007,0.64,0.045,4.7,13.052,7.24,25.269,7.24a85.437,85.437,0,0,0,10.486-.62c9.241-1.16,14.766-3.63,14.784-6.63a4.812,4.812,0,0,0,.016-0.55l-0.014-16.78h0.015v-2.11h0.251a76.011,76.011,0,0,0,9.3-.56c8.244-1.02,13.165-3.25,13.165-5.94v-25.44h-0.042A1.588,1.588,0,0,0,804,2124.04Zm-48-25.75c13.115,0,21.142,2.95,21.142,4.55,0,0.56-1.794,1.85-6.559,3.02a2.223,2.223,0,0,0-1.98-1.35,2.124,2.124,0,0,0-1.892,1.24,2.176,2.176,0,0,0-1.92-1.24,2.416,2.416,0,0,0-2.232,2.6v0.01h0c-2.093.19-4.3,0.28-6.56,0.28-13.106,0-21.128-2.95-21.128-4.56s8.021-4.55,21.127-4.55h0Zm14.489,11.66v-2.73a21.88,21.88,0,0,0,6.653-2.48v13.57a64.475,64.475,0,0,0-6.649.7v-9.06h0Zm-3.446,7.58h2.121v1.7c-0.746.13-1.448,0.29-2.121,0.45v-2.15Zm-0.008-8.55v-1.09c0.042-.01.077-0.01,0.12-0.02l0.026-.01,0.332-.05c0.567-.1,1.112-0.2,1.647-0.3v1.47h-2.125Zm0.008,7.25v-2.33h2.121v2.33h-2.121Zm0-3.62v-2.34h2.121v2.34h-2.121Zm0.814-6.17a0.882,0.882,0,0,1,.746-0.63,0.816,0.816,0,0,1,.623.36c-0.443.1-.9,0.18-1.37,0.27h0Zm-2.18.34c-0.574.08-1.167,0.15-1.784,0.21a1.126,1.126,0,0,1,.9-1.18,1.037,1.037,0,0,1,.885.97h0Zm-30.81-1.97c3.1,2.26,11.392,3.88,21.133,3.88a71.805,71.805,0,0,0,7.478-.36c0.777-.06,1.508-0.16,2.223-0.25v2.19H765.7v9.76c-3.692,1.04-5.973,2.46-5.973,4.01v16.11c-1.226-.05-2.469-0.09-3.739-0.09s-2.512.04-3.739,0.09v-16.11c0-2.82-7.477-5.18-17.4-5.73v-13.5h0.007Zm-4.4,14.67c13.245,0,20.471,3.02,20.471,4.56,0,0.55-1.25,1.86-5.894,3.01a2.221,2.221,0,0,0-1.979-1.35,2.139,2.139,0,0,0-1.881,1.25,2.18,2.18,0,0,0-1.934-1.25,2.439,2.439,0,0,0-2.223,2.6v0.02c-2.1.18-4.292,0.28-6.556,0.28-13.111,0-21.137-2.96-21.137-4.56s8.021-4.56,21.132-4.56h0Zm20.471,6.59v14.14c-2.1.11-4.1,0.3-5.981,0.55v-12.35a18.368,18.368,0,0,0,5.98-2.35v0.01Zm-9.432,11.36v-2.33h2.122v2.33H741.5Zm2.122,1.3v2.22c-0.731.11-1.439,0.23-2.122,0.35v-2.57h2.122Zm-2.122-4.93v-2.01h2.122v2.01H741.5Zm0-3.31v-1.41l0.472-.08c0.57-.09,1.118-0.2,1.651-0.3v1.79H741.5Zm0.817-2.86a0.923,0.923,0,0,1,.742-0.64,0.8,0.8,0,0,1,.625.38c-0.441.09-.9,0.18-1.368,0.26h0Zm-2.176.34c-0.588.08-1.186,0.15-1.792,0.22a1.161,1.161,0,0,1,.895-1.2,1.077,1.077,0,0,1,.895.98h0Zm-9.412,18.69a1.717,1.717,0,0,0,.087.44h-0.087v7.9h-0.268c-12.456,0-21.136-2.74-21.136-5.2V2126c3.107,2.26,11.395,3.89,21.136,3.89a73.318,73.318,0,0,0,9.711-.61v12.28c-5.72,1.23-9.444,3.07-9.444,5.1h0Zm49.228,8.33h-0.017v20.76c0,1.75-4.264,4.16-13.626,5.33a84.67,84.67,0,0,1-10.316.62c-14.076,0-23.914-3.14-23.941-5.96v-0.15c0-.04,0-0.09-0.008-0.4l0.011-19.55h0v-6.92c3.4,2.61,12.98,4.54,23.941,4.54a80.01,80.01,0,0,0,11.047-.71v22.88h5.224v-23.81h-0.077c2.4-.56,5.882-1.56,7.766-2.95v6.32h0Zm-15.145-3.47v-0.05a1.414,1.414,0,0,1,1.1-1.56,1.328,1.328,0,0,1,1.12,1.34c-0.729.11-1.47,0.19-2.222,0.27h0Zm6.128,0.38v1.78h-2.569v-1.32l0.144-.02,0.6-.1v-0.01c0.63-.1,1.236-0.21,1.823-0.33h0Zm-1.739-.99a1.213,1.213,0,0,1,1.017-1,1.089,1.089,0,0,1,.887.63c-0.607.13-1.245,0.25-1.9,0.37h0Zm1.739,4.06v2.8h-2.569v-2.8h2.569Zm0,4.09v2.8h-2.569v-2.8h2.569Zm0,4.1v2.79h-2.569v-2.79h2.569Zm0,4.09v2.79h-2.569v-2.79h2.569Zm0,4.09v2.8h-2.569v-2.8h2.569Zm1.5-21.11a6.19,6.19,0,0,1-6.524-1.61,2.671,2.671,0,0,0-2.425,2.85v0.18c-2.4.21-4.908,0.32-7.486,0.32-14.853,0-23.941-3.43-23.941-5.31s9.094-5.31,23.941-5.31,23.959,3.44,23.959,5.31c0,0.7-2.022,2.21-7.525,3.57h0Zm30.236-.43c0,1.53-3.757,3.63-12.006,4.66a73.318,73.318,0,0,1-9.131.54h-0.25v-8.12H781.25a1.513,1.513,0,0,0,.031-0.22c0-3.12-8.844-5.82-20.219-6.45v-14.18c3.044,2.24,11.058,3.86,20.469,3.86a75.057,75.057,0,0,0,9.712-.61v20.32h4.778v-21.19a21.824,21.824,0,0,0,6.647-2.47v23.86h0Zm-13.249-21.61a1.161,1.161,0,0,1,.895-1.2,1.078,1.078,0,0,1,.9.98c-0.59.08-1.188,0.15-1.794,0.22h0Zm5.275,0.51v1.48h-2.122v-1.1l0.471-.08c0.568-.09,1.117-0.2,1.65-0.3h0Zm-1.307-1.07a0.924,0.924,0,0,1,.743-0.64,0.8,0.8,0,0,1,.625.38c-0.441.09-.9,0.18-1.369,0.26h0Zm1.307,3.84v2.33h-2.122v-2.33h2.122Zm0,3.63v2.33h-2.122v-2.33h2.122Zm0,3.62v2.33h-2.122v-2.33h2.122Zm0,3.62v2.33h-2.122v-2.33h2.122Zm0,3.63v2.33h-2.122v-2.33h2.122Zm1.414-18.92a2.22,2.22,0,0,0-1.979-1.35,2.147,2.147,0,0,0-1.882,1.24,2.189,2.189,0,0,0-1.934-1.24,2.434,2.434,0,0,0-2.223,2.6v0.02c-2.1.18-4.291,0.27-6.556,0.27-13.245,0-20.469-3.01-20.469-4.55s7.224-4.56,20.469-4.56c13.112,0,21.137,2.95,21.137,4.56,0,0.55-1.8,1.84-6.563,3.01h0Z" transform="translate(-708 -2097)"/>
</svg>
