<?xml version="1.0" encoding="utf-8"?>
<!-- Generator: Adobe Illustrator 20.1.0, SVG Export Plug-In . SVG Version: 6.00 Build 0)  -->
<svg version="1.1" id="Layer_1" xmlns="http://www.w3.org/2000/svg" xmlns:xlink="http://www.w3.org/1999/xlink" x="0px" y="0px"
	 viewBox="0 0 86.3 86" style="enable-background:new 0 0 86.3 86;" xml:space="preserve">
<style type="text/css">
	.st0{fill:#627081;}
</style>
<path id="twitter" class="st0" d="M0,0v86h86.3V0H0z M66,31.3c0,0.5,0,1,0,1.5c0,15.5-11.9,33.5-33.6,33.5c-6.4,0-12.7-1.8-18.1-5.3
	c0.9,0.1,1.9,0.2,2.8,0.2c5.3,0,10.5-1.8,14.7-5c-5-0.1-9.5-3.4-11-8.2c1.8,0.3,3.6,0.3,5.3-0.2c-5.5-1.1-9.5-5.9-9.5-11.5v-0.2
	c1.6,0.9,3.5,1.4,5.3,1.5c-5.2-3.4-6.8-10.3-3.7-15.7c6,7.4,14.9,11.8,24.3,12.3C41,27.8,45,21.5,51.4,20.1
	c4.1-0.9,8.4,0.4,11.2,3.4c2.6-0.5,5.2-1.5,7.5-2.9c-0.9,2.7-2.7,5-5.2,6.5c2.3-0.3,4.6-0.9,6.8-1.8C70.4,27.6,68.4,29.6,66,31.3
	L66,31.3z"/>
</svg>
