<svg xmlns="http://www.w3.org/2000/svg" width="103" height="103" viewBox="0 0 103 103">
  <defs>
    <style>
      .cls-1 {
        fill: #fff;
        fill-rule: evenodd;
      }
    </style>
  </defs>
  <path id="vision-icon.svg" class="cls-1" d="M1138.5,810a51.493,51.493,0,1,1,36.42-15.084A51.171,51.171,0,0,1,1138.5,810Zm0-102.249a50.749,50.749,0,1,0,50.75,50.749A50.809,50.809,0,0,0,1138.5,707.751Zm-14.2,77.9a4.3,4.3,0,0,1-4.29-4.3v-24a29.246,29.246,0,0,1,4.39-15.412l6.42-10.352a0.5,0.5,0,0,1,.43-0.24h8.51a0.51,0.51,0,0,1,.51.508v15.156h-1.01V732.367h-7.73l-6.27,10.112a28.235,28.235,0,0,0-4.24,14.877v24a3.283,3.283,0,0,0,3.28,3.281h28.4a3.283,3.283,0,0,0,3.28-3.281V756.113a3.283,3.283,0,0,0-3.28-3.28h-19.96a3.283,3.283,0,0,0-3.28,3.28v15.208h-1.02V756.113a4.3,4.3,0,0,1,4.3-4.294h19.96a4.294,4.294,0,0,1,4.29,4.294v25.238a4.3,4.3,0,0,1-4.29,4.3h-28.4Z" transform="translate(-1087 -707)"/>
</svg>
