<?xml version="1.0" encoding="utf-8"?>
<!-- Generator: Adobe Illustrator 20.1.0, SVG Export Plug-In . SVG Version: 6.00 Build 0)  -->
<svg version="1.1" id="Layer_1" xmlns="http://www.w3.org/2000/svg" xmlns:xlink="http://www.w3.org/1999/xlink" x="0px" y="0px"
	 viewBox="0 0 86.3 86" style="enable-background:new 0 0 86.3 86;" xml:space="preserve">
<style type="text/css">
	.st0{fill:#627081;}
</style>
<path id="youtube" class="st0" d="M51.4,50.7c-1.5,0.1-2.8,0.9-3.6,2.1v-8.4h-3.5V70h3.5v-1.8c0.8,1.2,2.1,2,3.6,2.1
	c1.3,0,2.5-0.9,2.8-2.1c0.3-1.3,0.4-2.6,0.4-3.8v-7.6c0.1-1.3-0.1-2.6-0.4-3.8C53.9,51.6,52.7,50.7,51.4,50.7z M51,64.6
	c0,1.7-0.5,2.6-1.5,2.6c-0.7,0-1.3-0.3-1.7-0.8V54.7c0.4-0.5,1.1-0.8,1.7-0.8c1,0,1.5,0.9,1.5,2.6V64.6L51,64.6z M37.8,65.5
	c-0.8,1.1-1.5,1.6-2.2,1.6c-0.4,0-0.8-0.3-0.8-0.8l0,0c0-0.4,0-0.9,0-1.3V51h-3.5v15c0,1,0.1,1.9,0.3,2.8c0.3,0.9,1.3,1.5,2.2,1.4
	c1.3,0,2.6-0.8,4-2.3V70h3.5V51h-3.5V65.5z M42.4,31.4c1.1,0,1.7-0.9,1.7-2.7v-8.1c0-1.8-0.5-2.7-1.7-2.7s-1.7,0.9-1.7,2.7v8.1
	C40.7,30.5,41.2,31.4,42.4,31.4L42.4,31.4z M18.7,48h4.1v22h3.9V48h4.2v-3.6H18.7V48L18.7,48z M62.4,50.7c-1.6-0.1-3.2,0.7-4.2,2
	c-0.8,1.3-1.2,2.9-1.1,4.5v6.7c-0.1,1.6,0.3,3.1,1.1,4.5c1,1.3,2.6,2,4.2,2c1.7,0.1,3.2-0.7,4.2-2.1c0.4-0.6,0.7-1.3,0.8-2.1
	c0-0.3,0.1-1.1,0.1-2.2v-0.5H64c0,0.8,0,1.6-0.1,2.3c-0.1,0.8-0.7,1.4-1.5,1.4c-1.2,0-1.8-0.9-1.8-2.6v-3.4h6.9v-3.9
	c0.1-1.6-0.2-3.2-1.1-4.5C65.6,51.4,64,50.7,62.4,50.7L62.4,50.7z M64.1,58.3h-3.5v-1.8c0-1.8,0.6-2.6,1.7-2.6s1.7,0.9,1.7,2.6
	L64.1,58.3L64.1,58.3z M0,0v86h86.3V0H0z M50.4,15h3.5v14.2c0,0.5,0,0.9,0,1.4c0,0.4,0.3,0.8,0.8,0.8l0,0c0.7,0,1.4-0.5,2.2-1.6V15
	h3.5v19.3H57v-2.1c-1.4,1.6-2.7,2.4-4,2.4c-1,0.1-1.9-0.5-2.3-1.4c-0.2-0.9-0.4-1.9-0.3-2.9V15L50.4,15z M37.2,21.3
	c-0.1-1.6,0.3-3.2,1.1-4.5c1.8-2.3,5.1-2.6,7.3-0.9c0.3,0.2,0.6,0.5,0.9,0.9c0.8,1.4,1.2,2.9,1.1,4.5V28c0.1,1.6-0.3,3.2-1.1,4.5
	c-1.8,2.3-5.1,2.6-7.3,0.8c-0.3-0.2-0.6-0.5-0.8-0.8c-0.8-1.4-1.2-2.9-1.1-4.5v-6.7H37.2z M27.8,8.4l2.8,10.2l2.7-10.2h3.9
	l-4.7,15.4v10.5h-3.9V23.8c-0.6-2.8-1.4-5.5-2.4-8.2c-0.8-2.4-1.7-4.8-2.5-7.2H27.8L27.8,8.4z M70.9,71.2c-0.7,3-3.2,5.3-6.2,5.6
	c-7.1,0.7-14.3,0.9-21.5,0.8c-7.2,0.1-14.4-0.1-21.5-0.8c-3.1-0.4-5.5-2.6-6.2-5.6c-1-4.3-1-9.1-1-13.5s0-9.2,1-13.5
	c0.7-3,3.2-5.2,6.2-5.6c7.1-0.7,14.3-0.9,21.5-0.8c7.2-0.1,14.4,0.1,21.5,0.8c3,0.4,5.5,2.6,6.2,5.6c1,4.3,1,9.1,1,13.5
	S71.9,66.9,70.9,71.2L70.9,71.2z"/>
</svg>
